<?xml version="1.0" encoding="UTF-8"?>
<svg id="koleider_Sharp_copy_3" xmlns="http://www.w3.org/2000/svg" version="1.1" viewBox="0 0 1860.14 741.64">
  <!-- Generator: Adobe Illustrator 30.0.0, SVG Export Plug-In . SVG Version: 2.1.1 Build 123)  -->
  <path d="M349.27,413.09c0-68.48,50.44-117.99,120.31-117.99s120.31,49.51,120.31,117.99-50.44,117.99-120.31,117.99-120.31-49.51-120.31-117.99ZM469.58,462.14c29.61,0,48.12-22.67,48.12-49.05s-18.51-49.05-48.12-49.05-48.12,22.67-48.12,49.05,18.51,49.05,48.12,49.05Z"/>
  <path d="M610.8,509.98V234.66c0-12.03,6.94-18.97,18.97-18.97h33.32c12.03,0,18.97,6.94,18.97,18.97v275.32c0,12.03-6.94,18.97-18.97,18.97h-33.32c-12.03,0-18.97-6.94-18.97-18.97Z"/>
  <path d="M702.46,411.88c0-64.32,49.05-113.37,114.76-113.37s110.13,47.66,110.13,96.25c0,9.25-1.85,18.97-6.02,29.15-3.7,9.72-11.11,13.88-21.75,13.88h-33.32c-13.42,0-18.51-6.02-14.81-15.73,2.31-6.48,3.7-12.03,3.7-17.58,0-21.75-17.58-37.02-37.94-37.02-24.52,0-42.57,18.51-42.57,43.5,0,27.3,21.29,49.97,61.54,49.97h72.18c13.42,0,19.43,7.87,16.2,21.29l-7.87,30.54c-2.78,10.64-9.72,16.2-20.82,16.2h-67.09c-71.26,0-126.32-48.59-126.32-117.07Z"/>
  <path d="M1654.02,494.78c0-19.54,14.84-33.78,33.98-33.78s33.98,14.24,33.98,33.78-14.45,34.19-33.98,34.19-33.98-14.24-33.98-34.19Z"/>
  <path d="M1224.54,215.67h33.32c12.03,0,18.97,6.94,18.97,18.97v182.1c0,68.48-49.97,114.76-116.61,114.76s-118.46-46.27-118.46-114.76c0-89.77,80.51-115.68,112.9-115.68h.46c11.11,0,16.2,3.7,19.43,15.27l8.33,31.46c3.7,13.88-4.16,21.29-15.27,21.29h-4.16c-25.45,0-49.51,19.43-49.51,47.66,0,24.99,17.58,45.81,45.35,45.81,24.99,0,46.27-17.12,46.27-49.05v-178.86c0-12.03,6.94-18.97,18.97-18.97Z"/>
  <path d="M1294.77,411.88c0-64.32,49.05-113.37,114.76-113.37s110.13,47.66,110.13,96.25c0,9.25-1.85,18.97-6.02,29.15-3.7,9.72-11.11,13.88-21.75,13.88h-33.32c-13.42,0-18.51-6.02-14.81-15.73,2.31-6.48,3.7-12.03,3.7-17.58,0-21.75-17.58-37.02-37.94-37.02-24.52,0-42.57,18.51-42.57,43.5,0,27.3,21.29,49.97,61.54,49.97h72.18c13.42,0,19.43,7.87,16.2,21.29l-7.87,30.54c-2.78,10.64-9.72,16.2-20.82,16.2h-67.09c-71.26,0-126.32-48.59-126.32-117.07Z"/>
  <g>
    <path d="M350.94,505.74l-63.92-88.17c-2.05-2.82-2.03-6.64.03-9.44l60.17-81.7c9.29-13,4.18-23.22-11.61-23.22h-40.41c-10.22,0-16.72,3.72-22.76,12.08l-60.08,83.85c-2.92,4.07-4.49,8.96-4.49,13.97v3.79c0,4.91,1.51,9.71,4.32,13.74l60.25,86.25c5.57,8.36,13,12.08,23.22,12.08h43.2c15.8,0,21.37-10.69,12.08-23.23ZM346.33,517.89c-.71,1.36-2.79,2.08-7.47,2.08h-43.2c-7.35,0-11.91-2.34-15.73-8.07l-60.36-86.42c-1.76-2.53-2.7-5.5-2.7-8.58v-3.79c0-3.15.97-6.17,2.8-8.73l60.09-83.85c4.49-6.22,8.39-8.32,15.44-8.32h40.41c5.14,0,6.6.86,7.16,1.75.72,1.15.28,2.81-2.84,7.19l-60.13,81.64c-4.4,5.99-4.43,14.06-.06,20.07l63.92,88.16c2.67,3.61,3.49,5.32,2.67,6.87Z"/>
    <path d="M209.42,509.99c0,12.03-6.94,18.97-18.97,18.97h-33.32c-12.03,0-18.97-6.94-18.97-18.97V234.64c0-12.03,6.94-18.97,18.97-18.97h33.32c12.03,0,18.97,6.94,18.97,18.97v275.35Z"/>
  </g>
  <g>
    <path d="M945.31,248.54c0-22.21,17.58-38.41,40.26-38.41s40.26,16.2,40.26,38.41-17.12,38.87-40.26,38.87-40.26-16.2-40.26-38.87Z"/>
    <path d="M1002.23,304.08h-33.32c-12.03,0-18.97,6.94-18.97,18.98v186.93c0,12.03,6.94,18.97,18.97,18.97h33.32c12.03,0,18.97-6.94,18.97-18.97v-186.93c0-12.04-6.94-18.98-18.97-18.98ZM1012.2,509.99c0,7.08-2.89,9.97-9.97,9.97h-33.32c-7.08,0-9.97-2.89-9.97-9.97v-186.93c0-7.09,2.89-9.98,9.97-9.98h33.32c7.08,0,9.97,2.89,9.97,9.98v186.93Z"/>
  </g>
  <path d="M1645.05,304.07h-12.5c-61.07,0-90.69,36.57-90.69,89.78v116.14c0,12.03,6.94,18.97,18.97,18.97h33.32c12.03,0,18.97-6.94,18.97-18.97v-110.12c0-17.12,8.79-27.77,27.3-27.77h4.63c12.03,0,18.97-6.94,18.97-18.97v-30.09c0-12.03-6.94-18.97-18.97-18.97ZM1655.02,353.13c0,7.08-2.89,9.97-9.97,9.97h-4.63c-22.73,0-36.3,13.75-36.3,36.77v110.12c0,7.08-2.89,9.97-9.97,9.97h-33.32c-7.08,0-9.97-2.89-9.97-9.97v-116.14c0-24.65,6.9-44.92,19.96-58.64,13.99-14.69,34.76-22.14,61.73-22.14h12.5c7.08,0,9.97,2.89,9.97,9.97v30.09Z"/>
</svg>