<?xml version="1.0" standalone="no"?>
<!DOCTYPE svg PUBLIC "-//W3C//DTD SVG 1.1//EN" "http://www.w3.org/Graphics/SVG/1.1/DTD/svg11.dtd">
<svg version="1.1" xmlns="http://www.w3.org/2000/svg" viewBox="0 0 381.54756018170156 606.3332537851957" width="1144.6426805451047" height="1818.999761355587"><!-- svg-source:excalidraw --><metadata></metadata><defs><style class="style-fonts">
      </style></defs><g transform="translate(-97.17549778154353 119.57177905531353) rotate(33.199187893026924 237.3681185989044 124.9752932856868)" stroke="none"><path  d="M 3.13,-6.29 Q 3.13,-6.29 52.52,18.59 101.90,43.48 162.15,75.55 222.40,107.63 283.92,140.62 345.43,173.60 383.37,194.13 421.32,214.66 449.35,229.83 477.39,245.00 478.11,245.55 478.83,246.11 479.34,246.86 479.84,247.62 480.08,248.50 480.32,249.37 480.26,250.28 480.21,251.19 479.87,252.03 479.52,252.87 478.93,253.56 478.34,254.25 477.56,254.71 476.78,255.18 475.89,255.37 475.00,255.56 474.10,255.45 473.19,255.35 472.37,254.96 471.55,254.57 470.89,253.94 470.24,253.32 469.82,252.51 469.40,251.70 469.26,250.81 469.12,249.91 469.27,249.01 469.42,248.12 469.85,247.32 470.28,246.52 470.95,245.90 471.61,245.28 472.44,244.90 473.26,244.52 474.17,244.43 475.07,244.34 475.96,244.54 476.84,244.74 477.62,245.22 478.39,245.69 478.98,246.39 479.56,247.08 479.89,247.93 480.22,248.77 480.27,249.68 480.31,250.59 480.06,251.46 479.81,252.34 479.30,253.09 478.78,253.83 478.06,254.38 477.33,254.92 476.47,255.21 475.60,255.49 474.69,255.49 473.79,255.48 472.93,255.19 472.07,254.89 472.07,254.89 472.07,254.89 443.97,239.84 415.86,224.79 377.85,204.44 339.83,184.08 278.22,151.34 216.60,118.59 156.33,86.90 96.05,55.20 46.45,30.75 -3.13,6.29 -3.84,5.82 -4.55,5.36 -5.12,4.73 -5.70,4.11 -6.11,3.37 -6.52,2.63 -6.74,1.81 -6.96,0.99 -6.98,0.14 -6.99,-0.70 -6.81,-1.52 -6.62,-2.35 -6.24,-3.11 -5.87,-3.87 -5.32,-4.52 -4.77,-5.16 -4.08,-5.66 -3.39,-6.15 -2.61,-6.47 -1.82,-6.79 -0.98,-6.91 -0.14,-7.03 0.69,-6.94 1.54,-6.86 2.34,-6.57 3.13,-6.29 3.13,-6.29 L 3.13,-6.29 Z"></path></g><g transform="translate(300.3272044786718 448.1822086239017) rotate(0 -0.040979170302307466 -73.19066085006853)" stroke="none"><path  d="M -7.76,0 Q -7.76,0 -7.42,-13.93 -7.09,-27.87 -6.84,-42.37 -6.59,-56.88 -6.41,-74.12 -6.22,-91.37 -6.09,-103.35 -5.96,-115.34 -5.87,-124.13 -5.78,-132.93 -6.67,-139.63 -7.56,-146.34 -7.37,-147.54 -7.18,-148.73 -6.62,-149.80 -6.06,-150.88 -5.18,-151.71 -4.31,-152.55 -3.21,-153.06 -2.11,-153.58 -0.91,-153.71 0.28,-153.85 1.47,-153.60 2.65,-153.34 3.69,-152.72 4.73,-152.10 5.52,-151.18 6.31,-150.26 6.76,-149.14 7.21,-148.02 7.28,-146.81 7.36,-145.60 7.04,-144.43 6.72,-143.27 6.04,-142.26 5.37,-141.26 4.41,-140.52 3.45,-139.78 2.30,-139.39 1.16,-139.00 -0.04,-138.99 -1.25,-138.99 -2.40,-139.37 -3.55,-139.75 -4.52,-140.48 -5.49,-141.21 -6.17,-142.20 -6.85,-143.20 -7.18,-144.37 -7.51,-145.53 -7.45,-146.74 -7.39,-147.95 -6.95,-149.08 -6.51,-150.20 -5.73,-151.13 -4.95,-152.06 -3.91,-152.69 -2.88,-153.31 -1.70,-153.58 -0.52,-153.85 0.68,-153.72 1.88,-153.60 2.98,-153.09 4.08,-152.59 4.97,-151.76 5.85,-150.93 6.42,-149.86 6.99,-148.80 7.19,-147.60 7.40,-146.41 7.40,-146.41 7.40,-146.41 6.57,-139.67 5.75,-132.94 5.85,-124.14 5.96,-115.34 6.09,-103.35 6.22,-91.37 6.41,-74.12 6.59,-56.88 6.84,-42.37 7.09,-27.87 7.42,-13.93 7.76,0 7.65,0.92 7.53,1.85 7.20,2.73 6.87,3.60 6.34,4.37 5.81,5.14 5.11,5.76 4.41,6.38 3.58,6.82 2.75,7.25 1.84,7.48 0.93,7.70 -0.00,7.70 -0.93,7.70 -1.84,7.48 -2.75,7.25 -3.58,6.82 -4.41,6.38 -5.11,5.76 -5.81,5.14 -6.34,4.37 -6.87,3.60 -7.20,2.73 -7.53,1.85 -7.65,0.92 -7.76,-0.00 -7.76,-0.00 L -7.76,0 Z"></path></g><g transform="translate(230.95691991454441 491.4413109470124) rotate(0 -52.80538631406489 -30.04331990051014)" stroke="none"><path  d="M -3.91,5.84 Q -3.91,5.84 -11.51,0.45 -19.12,-4.93 -30.42,-11.73 -41.72,-18.52 -55.32,-26.11 -68.93,-33.69 -80.22,-39.85 -91.52,-46.01 -99.89,-50.57 -108.26,-55.13 -108.98,-55.68 -109.70,-56.24 -110.21,-56.99 -110.71,-57.75 -110.95,-58.62 -111.19,-59.50 -111.14,-60.41 -111.09,-61.31 -110.75,-62.16 -110.41,-63.00 -109.81,-63.69 -109.22,-64.38 -108.44,-64.84 -107.66,-65.31 -106.77,-65.50 -105.89,-65.69 -104.98,-65.59 -104.08,-65.49 -103.26,-65.10 -102.43,-64.72 -101.78,-64.09 -101.12,-63.46 -100.70,-62.66 -100.28,-61.85 -100.13,-60.95 -99.99,-60.06 -100.14,-59.16 -100.29,-58.26 -100.72,-57.46 -101.15,-56.66 -101.81,-56.04 -102.47,-55.42 -103.30,-55.04 -104.13,-54.66 -105.03,-54.57 -105.94,-54.48 -106.82,-54.67 -107.71,-54.87 -108.48,-55.35 -109.26,-55.82 -109.85,-56.51 -110.43,-57.21 -110.76,-58.05 -111.10,-58.90 -111.14,-59.81 -111.19,-60.71 -110.94,-61.59 -110.69,-62.46 -110.18,-63.21 -109.67,-63.96 -108.94,-64.51 -108.21,-65.06 -107.35,-65.34 -106.49,-65.63 -105.58,-65.62 -104.67,-65.62 -103.81,-65.33 -102.95,-65.03 -102.95,-65.03 -102.95,-65.03 -94.52,-60.59 -86.09,-56.15 -74.66,-50.14 -63.23,-44.12 -49.35,-36.67 -35.47,-29.23 -23.64,-22.52 -11.82,-15.82 -3.95,-10.83 3.91,-5.84 4.56,-5.28 5.20,-4.73 5.69,-4.04 6.18,-3.35 6.49,-2.56 6.80,-1.77 6.92,-0.93 7.03,-0.09 6.94,0.75 6.85,1.59 6.56,2.38 6.27,3.18 5.79,3.89 5.32,4.59 4.69,5.16 4.07,5.73 3.32,6.14 2.58,6.54 1.76,6.75 0.93,6.97 0.09,6.98 -0.75,6.99 -1.58,6.80 -2.40,6.60 -3.16,6.22 -3.91,5.84 -3.91,5.84 L -3.91,5.84 Z"></path></g><g transform="translate(357.724120556195 461.80964543908794) rotate(17.842190670112814 0 -45.11620381364355)" stroke="none"><path  d="M -8.06,0 Q -8.06,0 -7.80,-8.05 -7.54,-16.11 -7.23,-28.60 -6.93,-41.09 -6.70,-53.95 -6.47,-66.81 -6.67,-73.55 -6.88,-80.28 -7.23,-85.25 -7.59,-90.23 -7.39,-91.44 -7.19,-92.65 -6.62,-93.74 -6.04,-94.82 -5.15,-95.67 -4.26,-96.51 -3.14,-97.03 -2.03,-97.55 -0.81,-97.68 0.41,-97.81 1.61,-97.55 2.81,-97.28 3.86,-96.65 4.91,-96.02 5.71,-95.08 6.50,-94.14 6.96,-93.00 7.41,-91.86 7.48,-90.63 7.55,-89.41 7.22,-88.22 6.89,-87.04 6.20,-86.02 5.51,-85.00 4.53,-84.26 3.55,-83.52 2.39,-83.12 1.22,-82.73 -0.00,-82.73 -1.23,-82.73 -2.39,-83.12 -3.55,-83.52 -4.53,-84.26 -5.51,-85.00 -6.20,-86.02 -6.89,-87.04 -7.22,-88.22 -7.55,-89.41 -7.48,-90.63 -7.41,-91.86 -6.96,-93.00 -6.50,-94.15 -5.71,-95.08 -4.91,-96.02 -3.86,-96.65 -2.80,-97.28 -1.60,-97.55 -0.40,-97.81 0.81,-97.68 2.03,-97.55 3.14,-97.03 4.26,-96.51 5.15,-95.67 6.04,-94.82 6.62,-93.74 7.19,-92.65 7.39,-91.44 7.59,-90.23 7.59,-90.23 7.59,-90.23 7.23,-85.25 6.88,-80.28 6.67,-73.55 6.47,-66.81 6.70,-53.95 6.93,-41.09 7.23,-28.60 7.54,-16.11 7.80,-8.05 8.06,0 7.94,0.96 7.82,1.92 7.48,2.83 7.13,3.74 6.58,4.54 6.03,5.34 5.30,5.99 4.57,6.63 3.71,7.08 2.85,7.53 1.91,7.77 0.97,8.00 -0.00,8.00 -0.97,8.00 -1.91,7.77 -2.85,7.53 -3.71,7.08 -4.58,6.63 -5.30,5.98 -6.03,5.34 -6.58,4.54 -7.13,3.74 -7.48,2.83 -7.82,1.92 -7.94,0.96 -8.06,-0.00 -8.06,-0.00 L -8.06,0 Z"></path></g><g transform="translate(214.98994501298876 545.0979463896374) rotate(0 -58.62815387615774 0)" stroke="none"><path  d="M 0,7.31 Q 0,7.31 -17.27,7.03 -34.54,6.75 -52.68,6.55 -70.83,6.34 -84.18,6.19 -97.52,6.04 -107.39,5.94 -117.25,5.83 -118.18,5.67 -119.11,5.52 -119.95,5.08 -120.78,4.64 -121.43,3.95 -122.08,3.27 -122.47,2.41 -122.87,1.56 -122.97,0.62 -123.07,-0.31 -122.87,-1.23 -122.67,-2.15 -122.18,-2.96 -121.70,-3.77 -120.98,-4.38 -120.26,-4.99 -119.38,-5.34 -118.50,-5.69 -117.56,-5.74 -116.62,-5.79 -115.71,-5.54 -114.80,-5.29 -114.02,-4.76 -113.24,-4.23 -112.67,-3.48 -112.10,-2.73 -111.80,-1.83 -111.50,-0.94 -111.50,0.00 -111.50,0.94 -111.80,1.83 -112.10,2.73 -112.67,3.48 -113.24,4.23 -114.02,4.76 -114.80,5.29 -115.71,5.54 -116.62,5.79 -117.56,5.74 -118.51,5.69 -119.38,5.34 -120.26,4.99 -120.98,4.38 -121.70,3.77 -122.18,2.96 -122.67,2.15 -122.87,1.23 -123.08,0.31 -122.97,-0.62 -122.87,-1.56 -122.47,-2.41 -122.08,-3.27 -121.43,-3.95 -120.78,-4.64 -119.95,-5.08 -119.11,-5.52 -118.18,-5.67 -117.25,-5.83 -117.25,-5.83 -117.25,-5.83 -107.39,-5.94 -97.52,-6.04 -84.18,-6.19 -70.83,-6.34 -52.68,-6.55 -34.54,-6.75 -17.27,-7.03 0,-7.31 0.87,-7.20 1.74,-7.09 2.57,-6.78 3.39,-6.47 4.12,-5.97 4.84,-5.47 5.43,-4.81 6.01,-4.15 6.42,-3.37 6.83,-2.59 7.04,-1.73 7.25,-0.88 7.25,0.00 7.25,0.88 7.04,1.73 6.83,2.59 6.42,3.37 6.01,4.15 5.43,4.81 4.84,5.47 4.12,5.97 3.39,6.47 2.57,6.78 1.74,7.09 0.87,7.20 -0.00,7.31 -0.00,7.31 L 0,7.31 Z"></path></g><g stroke-linecap="round" transform="translate(248.74115878820885 486.3257146306005) rotate(0 51.07823234209354 51.078232342094)"><path d="M66.15 2.65 C74.26 4.37, 84.02 10.45, 89.92 16.63 C95.82 22.81, 99.88 31.52, 101.55 39.74 C103.22 47.96, 102.81 57.87, 99.94 65.96 C97.07 74.04, 90.67 82.35, 84.32 88.25 C77.97 94.15, 70.04 99.54, 61.84 101.37 C53.65 103.21, 43.4 102.03, 35.18 99.27 C26.96 96.5, 18.32 91.09, 12.5 84.78 C6.68 78.46, 1.79 69.68, 0.23 61.39 C-1.33 53.11, 0.49 43.24, 3.12 35.08 C5.75 26.91, 9.93 18, 16.02 12.4 C22.11 6.81, 30.32 2.81, 39.66 1.5 C49 0.2, 65.74 3.44, 72.07 4.57 C78.4 5.7, 77.93 7.57, 77.63 8.27 M74.31 4.53 C81.58 7.41, 88.66 16.21, 93.38 23.75 C98.1 31.28, 102 41.01, 102.62 49.75 C103.24 58.49, 101.3 68.66, 97.12 76.2 C92.95 83.75, 84.74 90.69, 77.56 95.03 C70.38 99.37, 62.54 102.11, 54.05 102.23 C45.56 102.35, 34.18 99.95, 26.6 95.76 C19.02 91.56, 12.9 84.16, 8.57 77.06 C4.24 69.96, 1.12 61.45, 0.61 53.15 C0.1 44.84, 1.53 34.68, 5.49 27.25 C9.45 19.81, 17.05 13.2, 24.37 8.51 C31.69 3.83, 41.16 -0.68, 49.42 -0.86 C57.69 -1.03, 69.59 6.11, 73.97 7.46 C78.34 8.81, 75.86 6.58, 75.68 7.25"  stroke-width="4" fill="none"></path></g><g stroke-linecap="round" transform="translate(246.2437292547911 482.81890119449963) rotate(0 53.27691321218845 53.27691321218845)"><path d="M34.84 2.19 C42.53 -1.1, 54.56 -0.43, 63.41 1.3 C72.27 3.03, 81.38 6.91, 87.97 12.58 C94.56 18.24, 100.17 26.89, 102.96 35.29 C105.75 43.69, 106.16 54.2, 104.71 62.96 C103.25 71.73, 100.01 81.22, 94.21 87.87 C88.41 94.52, 78.52 99.84, 69.9 102.86 C61.28 105.88, 51.15 107.55, 42.49 105.97 C33.82 104.4, 24.48 99.32, 17.92 93.4 C11.35 87.49, 5.96 78.93, 3.1 70.47 C0.23 62.01, -1.06 51.27, 0.75 42.63 C2.56 33.99, 6.84 25.64, 13.96 18.63 C21.08 11.63, 37.69 3.61, 43.47 0.59 C49.24 -2.43, 48.63 -0.49, 48.63 0.52 M60.63 1.22 C69.12 1.55, 80.72 6.36, 87.68 11.72 C94.64 17.08, 99.19 25.31, 102.37 33.38 C105.55 41.45, 107.91 51.23, 106.77 60.13 C105.63 69.02, 101.27 79.62, 95.52 86.77 C89.77 93.92, 80.57 99.69, 72.27 103.02 C63.96 106.34, 54.38 108.21, 45.7 106.72 C37.02 105.22, 27.38 99.46, 20.19 94.05 C13.01 88.64, 5.68 82.29, 2.59 74.23 C-0.49 66.18, 0.15 54.58, 1.69 45.72 C3.22 36.85, 6.27 27.85, 11.79 21.05 C17.3 14.26, 26.3 8.3, 34.78 4.94 C43.26 1.58, 58.3 1.53, 62.67 0.88 C67.04 0.22, 61.23 -0.06, 61.01 1"  stroke-width="4" fill="none"></path></g><g stroke-linecap="round" transform="translate(243.7123236722473 480.40889516920015) rotate(0 56.02189208988602 56.02189208988557)"><path d="M49.7 1.26 C58.52 -0.38, 69.78 1.61, 78.29 5.3 C86.79 8.98, 95.03 16.12, 100.71 23.36 C106.38 30.61, 111.21 39.75, 112.34 48.74 C113.47 57.74, 111.22 68.58, 107.49 77.33 C103.76 86.07, 97.61 95.53, 89.98 101.22 C82.35 106.9, 71.17 110.43, 61.71 111.43 C52.24 112.42, 41.73 110.87, 33.2 107.19 C24.67 103.51, 15.87 96.93, 10.51 89.36 C5.14 81.8, 1.99 70.91, 0.99 61.79 C0 52.68, 0.94 43.26, 4.55 34.66 C8.16 26.07, 13.82 16.16, 22.66 10.23 C31.5 4.3, 50.6 0.59, 57.58 -0.93 C64.55 -2.45, 64.54 -0.13, 64.52 1.13 M57.82 0.52 C66.63 -0.51, 76.66 1.72, 84.43 6.52 C92.2 11.31, 100.02 21.09, 104.45 29.3 C108.88 37.51, 111.25 46.58, 111.03 55.76 C110.8 64.94, 107.87 76.25, 103.08 84.38 C98.3 92.52, 90.57 99.74, 82.33 104.56 C74.09 109.38, 63.03 113.57, 53.65 113.33 C44.28 113.08, 34.07 108.16, 26.1 103.09 C18.14 98.03, 10.26 90.9, 5.87 82.91 C1.47 74.92, -0.73 64.68, -0.25 55.16 C0.22 45.64, 3.69 33.89, 8.7 25.81 C13.71 17.73, 21.62 10.78, 29.82 6.68 C38.02 2.57, 53.11 2.25, 57.89 1.19 C62.66 0.13, 58.74 -0.31, 58.47 0.32"  stroke-width="4" fill="none"></path></g><g stroke-linecap="round" transform="translate(239.73789712675716 476.25012114789115) rotate(0 60.04156631865226 60.04156631865226)"><path d="M57.41 -0.05 C66.1 -0.96, 77.9 2.62, 86.39 6.88 C94.87 11.13, 102.93 17.97, 108.31 25.49 C113.7 33.01, 117.2 43.07, 118.72 52 C120.24 60.94, 120.25 70.58, 117.41 79.1 C114.57 87.63, 108.61 96.57, 101.69 103.15 C94.77 109.72, 84.98 115.93, 75.89 118.55 C66.81 121.17, 56.17 120.9, 47.18 118.86 C38.19 116.83, 28.99 112.52, 21.94 106.36 C14.89 100.21, 8.65 90.46, 4.89 81.95 C1.13 73.44, -1.33 64.37, -0.6 55.31 C0.12 46.25, 4.13 35.35, 9.23 27.57 C14.34 19.79, 20.91 13.28, 30.02 8.62 C39.13 3.97, 57.33 0.72, 63.89 -0.34 C70.45 -1.39, 69.34 1.33, 69.37 2.31 M41.08 3.32 C49.37 -0.13, 60.48 -1.31, 69.54 0.37 C78.6 2.06, 88.1 7.81, 95.45 13.42 C102.8 19.04, 109.5 25.6, 113.65 34.06 C117.8 42.51, 120.57 54.65, 120.37 64.15 C120.17 73.64, 117.45 83.48, 112.46 91.03 C107.47 98.58, 98.29 104.46, 90.44 109.47 C82.58 114.48, 74.33 120.34, 65.32 121.07 C56.31 121.81, 45.27 117.93, 36.37 113.88 C27.46 109.83, 17.7 103.79, 11.89 96.79 C6.09 89.78, 3.3 80.75, 1.55 71.82 C-0.2 62.89, -1.18 52.1, 1.39 43.19 C3.97 34.29, 10.43 25.32, 17.01 18.42 C23.58 11.52, 36.59 4.04, 40.83 1.79 C45.06 -0.47, 41.85 3.75, 42.41 4.9"  stroke-width="4" fill="none"></path></g></svg>