<svg xmlns="http://www.w3.org/2000/svg" aria-hidden="true" style="width: 0; height: 0; position: absolute;"><symbol id="icon-file-text" viewBox="0 0 24 24"><path d="M14 2H6a2 2 0 0 0-2 2v16a2 2 0 0 0 2 2h12a2 2 0 0 0 2-2V8z"></path><path d="M14 2v6h6M16 13H8M16 17H8M10 9H8"></path></symbol><symbol id="icon-github" viewBox="0 0 24 24"><path d="M9 19c-5 1.5-5-2.5-7-3m14 6v-3.87a3.37 3.37 0 0 0-.94-2.61c3.14-.35 6.44-1.54 6.44-7A5.44 5.44 0 0 0 20 4.77 5.07 5.07 0 0 0 19.91 1S18.73.65 16 2.48a13.4 13.4 0 0 0-7 0C6.27.65 5.09 1 5.09 1A5.07 5.07 0 0 0 5 4.77a5.44 5.44 0 0 0-1.5 3.78c0 5.42 3.3 6.61 6.44 7A3.37 3.37 0 0 0 9 18.13V22"></path></symbol><symbol id="icon-koleider-logo-mono" viewBox="0 0 1860.14 741.64"><path d="M349.27 413.09c0-68.48 50.44-117.99 120.31-117.99s120.31 49.51 120.31 117.99-50.44 117.99-120.31 117.99-120.31-49.51-120.31-117.99m120.31 49.05c29.61 0 48.12-22.67 48.12-49.05s-18.51-49.05-48.12-49.05-48.12 22.67-48.12 49.05 18.51 49.05 48.12 49.05M610.8 509.98V234.66c0-12.03 6.94-18.97 18.97-18.97h33.32c12.03 0 18.97 6.94 18.97 18.97v275.32c0 12.03-6.94 18.97-18.97 18.97h-33.32c-12.03 0-18.97-6.94-18.97-18.97M702.46 411.88c0-64.32 49.05-113.37 114.76-113.37s110.13 47.66 110.13 96.25c0 9.25-1.85 18.97-6.02 29.15-3.7 9.72-11.11 13.88-21.75 13.88h-33.32c-13.42 0-18.51-6.02-14.81-15.73 2.31-6.48 3.7-12.03 3.7-17.58 0-21.75-17.58-37.02-37.94-37.02-24.52 0-42.57 18.51-42.57 43.5 0 27.3 21.29 49.97 61.54 49.97h72.18c13.42 0 19.43 7.87 16.2 21.29l-7.87 30.54c-2.78 10.64-9.72 16.2-20.82 16.2h-67.09c-71.26 0-126.32-48.59-126.32-117.07ZM1654.02 494.78c0-19.54 14.84-33.78 33.98-33.78s33.98 14.24 33.98 33.78-14.45 34.19-33.98 34.19-33.98-14.24-33.98-34.19M1224.54 215.67h33.32c12.03 0 18.97 6.94 18.97 18.97v182.1c0 68.48-49.97 114.76-116.61 114.76s-118.46-46.27-118.46-114.76c0-89.77 80.51-115.68 112.9-115.68h.46c11.11 0 16.2 3.7 19.43 15.27l8.33 31.46c3.7 13.88-4.16 21.29-15.27 21.29h-4.16c-25.45 0-49.51 19.43-49.51 47.66 0 24.99 17.58 45.81 45.35 45.81 24.99 0 46.27-17.12 46.27-49.05V234.64c0-12.03 6.94-18.97 18.97-18.97ZM1294.77 411.88c0-64.32 49.05-113.37 114.76-113.37s110.13 47.66 110.13 96.25c0 9.25-1.85 18.97-6.02 29.15-3.7 9.72-11.11 13.88-21.75 13.88h-33.32c-13.42 0-18.51-6.02-14.81-15.73 2.31-6.48 3.7-12.03 3.7-17.58 0-21.75-17.58-37.02-37.94-37.02-24.52 0-42.57 18.51-42.57 43.5 0 27.3 21.29 49.97 61.54 49.97h72.18c13.42 0 19.43 7.87 16.2 21.29l-7.87 30.54c-2.78 10.64-9.72 16.2-20.82 16.2h-67.09c-71.26 0-126.32-48.59-126.32-117.07Z"></path><path d="m350.94 505.74-63.92-88.17a8 8 0 0 1 .03-9.44l60.17-81.7c9.29-13 4.18-23.22-11.61-23.22H295.2c-10.22 0-16.72 3.72-22.76 12.08l-60.08 83.85a23.97 23.97 0 0 0-4.49 13.97v3.79c0 4.91 1.51 9.71 4.32 13.74l60.25 86.25c5.57 8.36 13 12.08 23.22 12.08h43.2c15.8 0 21.37-10.69 12.08-23.23m-4.61 12.15c-.71 1.36-2.79 2.08-7.47 2.08h-43.2c-7.35 0-11.91-2.34-15.73-8.07l-60.36-86.42c-1.76-2.53-2.7-5.5-2.7-8.58v-3.79c0-3.15.97-6.17 2.8-8.73l60.09-83.85c4.49-6.22 8.39-8.32 15.44-8.32h40.41c5.14 0 6.6.86 7.16 1.75.72 1.15.28 2.81-2.84 7.19l-60.13 81.64c-4.4 5.99-4.43 14.06-.06 20.07l63.92 88.16c2.67 3.61 3.49 5.32 2.67 6.87"></path><path d="M209.42 509.99c0 12.03-6.94 18.97-18.97 18.97h-33.32c-12.03 0-18.97-6.94-18.97-18.97V234.64c0-12.03 6.94-18.97 18.97-18.97h33.32c12.03 0 18.97 6.94 18.97 18.97zM945.31 248.54c0-22.21 17.58-38.41 40.26-38.41s40.26 16.2 40.26 38.41-17.12 38.87-40.26 38.87-40.26-16.2-40.26-38.87M1002.23 304.08h-33.32c-12.03 0-18.97 6.94-18.97 18.98v186.93c0 12.03 6.94 18.97 18.97 18.97h33.32c12.03 0 18.97-6.94 18.97-18.97V323.06c0-12.04-6.94-18.98-18.97-18.98m9.97 205.91c0 7.08-2.89 9.97-9.97 9.97h-33.32c-7.08 0-9.97-2.89-9.97-9.97V323.06c0-7.09 2.89-9.98 9.97-9.98h33.32c7.08 0 9.97 2.89 9.97 9.98zM1645.05 304.07h-12.5c-61.07 0-90.69 36.57-90.69 89.78v116.14c0 12.03 6.94 18.97 18.97 18.97h33.32c12.03 0 18.97-6.94 18.97-18.97V399.87c0-17.12 8.79-27.77 27.3-27.77h4.63c12.03 0 18.97-6.94 18.97-18.97v-30.09c0-12.03-6.94-18.97-18.97-18.97m9.97 49.06c0 7.08-2.89 9.97-9.97 9.97h-4.63c-22.73 0-36.3 13.75-36.3 36.77v110.12c0 7.08-2.89 9.97-9.97 9.97h-33.32c-7.08 0-9.97-2.89-9.97-9.97V393.85c0-24.65 6.9-44.92 19.96-58.64 13.99-14.69 34.76-22.14 61.73-22.14h12.5c7.08 0 9.97 2.89 9.97 9.97z"></path></symbol><symbol id="icon-lazer" viewBox="0 0 381.548 606.333"><path d="m16.063 6.45 27.705 47.863q27.692 47.865 60.547 107.69 32.85 59.834 66.265 121.125 33.411 61.276 53.917 99.23 20.514 37.958 35.663 66 15.157 28.047 15.458 28.901.296.863.312 1.77.002.91-.279 1.777-.276.86-.824 1.588-.54.734-1.285 1.251-.752.511-1.624.766-.871.254-1.776.212-.91-.034-1.759-.362-.848-.329-1.541-.913-.707-.582-1.18-1.358-.472-.775-.68-1.664-.204-.874-.112-1.782t.462-1.73q.376-.829.994-1.5.613-.663 1.411-1.097t1.698-.585q.892-.158 1.794-.021.894.13 1.705.554.803.417 1.438 1.072.627.649 1.017 1.478.386.815.497 1.723.107.895-.082 1.787-.184.884-.64 1.673-.465.783-1.15 1.374-.692.6-1.529.948-.84.334-1.744.4-.906.053-1.785-.176-.881-.242-1.643-.74-.747-.501-1.308-1.215l-.555-.722-15.273-27.98-35.944-65.825q-20.666-37.855-54.293-98.985-33.63-61.145-66.71-120.663-33.083-59.532-61.2-107.15Q3.938 13.55 3.6 12.768q-.342-.773-.474-1.613-.146-.836-.084-1.68.062-.843.327-1.65t.714-1.529Q4.534 5.587 5.133 5q.614-.59 1.348-1.018.726-.433 1.542-.676.811-.235 1.662-.275.846-.032 1.674.127.836.165 1.605.524.768.36 1.413.89.668.532 1.178 1.213zM292.567 448.182l.34-13.93q.33-13.94.58-28.44.25-14.51.43-31.75.19-17.25.32-29.23.13-11.99.22-20.78.09-8.8-.8-15.5-.89-6.71-.7-7.91.19-1.19.75-2.26.56-1.08 1.44-1.91.87-.84 1.97-1.35 1.1-.52 2.3-.65 1.19-.14 2.38.11 1.18.26 2.22.88t1.83 1.54 1.24 2.04.52 2.33q.08 1.21-.24 2.38-.32 1.16-1 2.17-.67 1-1.63 1.74t-2.11 1.13q-1.14.39-2.34.4-1.21 0-2.36-.38t-2.12-1.11-1.65-1.72q-.68-1-1.01-2.17-.33-1.16-.27-2.37t.5-2.34q.44-1.12 1.22-2.05t1.82-1.56q1.03-.62 2.21-.89t2.38-.14q1.2.12 2.3.63 1.1.5 1.99 1.33.88.83 1.45 1.9.57 1.06.77 2.26l.21 1.19-.83 6.74q-.82 6.73-.72 15.53.11 8.8.24 20.79.13 11.98.32 29.23.18 17.24.43 31.75.25 14.5.58 28.44.34 13.93.23 14.85-.12.93-.45 1.81-.33.87-.86 1.64t-1.23 1.39-1.53 1.06q-.83.43-1.74.66-.91.22-1.84.22t-1.84-.22q-.91-.23-1.74-.66-.83-.44-1.53-1.06t-1.23-1.39-.86-1.64q-.33-.88-.45-1.81zM227.047 497.281l-7.6-5.39q-7.61-5.38-18.91-12.18-11.3-6.79-24.9-14.38-13.61-7.58-24.9-13.74-11.3-6.16-19.67-10.72t-9.09-5.11q-.72-.56-1.23-1.31-.5-.76-.74-1.63-.24-.88-.19-1.79.05-.9.39-1.75.34-.84.94-1.53.59-.69 1.37-1.15.78-.47 1.67-.66.88-.19 1.79-.09.9.1 1.72.49.83.38 1.48 1.01.66.63 1.08 1.43.42.81.57 1.71.14.89-.01 1.79t-.58 1.7-1.09 1.42-1.49 1-1.73.47q-.91.09-1.79-.1-.89-.2-1.66-.68-.78-.47-1.37-1.16-.58-.7-.91-1.54-.34-.85-.38-1.76-.05-.9.2-1.78.25-.87.76-1.62t1.24-1.3 1.59-.83q.86-.29 1.77-.28.91 0 1.77.29l.86.3 8.43 4.44q8.43 4.44 19.86 10.45 11.43 6.02 25.31 13.47 13.88 7.44 25.71 14.15 11.82 6.7 19.69 11.69 7.86 4.99 8.51 5.55.64.55 1.13 1.24t.8 1.48.43 1.63q.11.84.02 1.68t-.38 1.63q-.29.8-.77 1.51-.47.7-1.1 1.27-.62.57-1.37.98-.74.4-1.56.61-.83.22-1.67.23t-1.67-.18q-.82-.2-1.58-.58zM336.228 457.17l2.714-7.583q2.717-7.593 6.84-19.387 4.112-11.797 8.271-23.968t6.034-18.648q1.862-6.471 3.052-11.31 1.183-4.85 1.744-5.94t1.438-1.954q.883-.85 1.99-1.387 1.105-.527 2.33-.679 1.216-.154 2.417.096 1.202.25 2.264.865 1.06.624 1.866 1.546.807.921 1.28 2.061.464 1.137.553 2.363.079 1.223-.231 2.416-.308 1.182-.986 2.214-.676 1.022-1.645 1.782-.97.76-2.13 1.163-1.159.404-2.386.43-1.233.013-2.394-.361-1.171-.377-2.156-1.104-.981-.736-1.687-1.74t-1.05-2.188q-.345-1.182-.298-2.406.05-1.234.491-2.374.444-1.15 1.221-2.097.79-.954 1.827-1.597 1.05-.65 2.243-.927 1.202-.275 2.427-.165 1.222.12 2.334.615 1.121.497 2.018 1.333.907.838 1.497 1.91.587 1.082.808 2.288.208 1.212.028 2.425l-.18 1.213-1.869 4.63q-1.856 4.624-4.118 10.966-2.255 6.354-5.976 18.666t-7.263 24.294q-3.532 11.984-5.754 19.736-2.219 7.742-2.627 8.62-.409.876-1.011 1.638-.612.76-1.38 1.352-.77.593-1.664.989-.89.385-1.847.55t-1.925.105q-.965-.069-1.888-.366-.924-.297-1.748-.804-.821-.517-1.502-1.209-.69-.694-1.177-1.534-.498-.833-.777-1.763-.278-.93-.333-1.903-.044-.97.135-1.921zM214.99 552.408l-17.27-.28q-17.27-.28-35.41-.48-18.15-.21-31.5-.36-13.34-.15-23.21-.25-9.86-.11-10.79-.27-.93-.15-1.77-.59-.83-.44-1.48-1.13-.65-.68-1.04-1.54-.4-.85-.5-1.79-.1-.93.1-1.85t.69-1.73q.48-.81 1.2-1.42t1.6-.96 1.82-.4 1.85.2 1.69.78 1.35 1.28.87 1.65q.3.89.3 1.83t-.3 1.83q-.3.9-.87 1.65t-1.35 1.28-1.69.78-1.85.2q-.95-.05-1.82-.4-.88-.35-1.6-.96t-1.2-1.42q-.49-.81-.69-1.73-.21-.92-.1-1.85.1-.94.5-1.79.39-.86 1.04-1.54.65-.69 1.48-1.13.84-.44 1.77-.59l.93-.16 9.86-.11q9.87-.1 23.21-.25 13.35-.15 31.5-.36 18.14-.2 35.41-.48t18.14-.17 1.7.42q.82.31 1.55.81.72.5 1.31 1.16.58.66.99 1.44t.62 1.64q.21.85.21 1.73t-.21 1.73q-.21.86-.62 1.64t-.99 1.44q-.59.66-1.31 1.16-.73.5-1.55.81-.83.31-1.7.42z"></path><path fill="none" stroke-linecap="round" d="M314.891 488.976c8.11 1.72 17.87 7.8 23.77 13.98s9.96 14.89 11.63 23.11 1.26 18.13-1.61 26.22c-2.87 8.08-9.27 16.39-15.62 22.29s-14.28 11.29-22.48 13.12c-8.19 1.84-18.44.66-26.66-2.1-8.22-2.77-16.86-8.18-22.68-14.49-5.82-6.32-10.71-15.1-12.27-23.39-1.56-8.28.26-18.15 2.89-26.31 2.63-8.17 6.81-17.08 12.9-22.68 6.09-5.59 14.3-9.59 23.64-10.9 9.34-1.3 26.08 1.94 32.41 3.07s5.86 3 5.56 3.7m-3.32-3.74c7.27 2.88 14.35 11.68 19.07 19.22 4.72 7.53 8.62 17.26 9.24 26s-1.32 18.91-5.5 26.45c-4.17 7.55-12.38 14.49-19.56 18.83s-15.02 7.08-23.51 7.2-19.87-2.28-27.45-6.47c-7.58-4.2-13.7-11.6-18.03-18.7s-7.45-15.61-7.96-23.91c-.51-8.31.92-18.47 4.88-25.9 3.96-7.44 11.56-14.05 18.88-18.74 7.32-4.68 16.79-9.19 25.05-9.37 8.27-.17 20.17 6.97 24.55 8.32 4.37 1.35 1.89-.88 1.71-.21"></path><path fill="none" stroke-linecap="round" d="M281.084 485.009c7.69-3.29 19.72-2.62 28.57-.89 8.86 1.73 17.97 5.61 24.56 11.28 6.59 5.66 12.2 14.31 14.99 22.71s3.2 18.91 1.75 27.67c-1.46 8.77-4.7 18.26-10.5 24.91s-15.69 11.97-24.31 14.99-18.75 4.69-27.41 3.11c-8.67-1.57-18.01-6.65-24.57-12.57-6.57-5.91-11.96-14.47-14.82-22.93-2.87-8.46-4.16-19.2-2.35-27.84s6.09-16.99 13.21-24c7.12-7 23.73-15.02 29.51-18.04 5.77-3.02 5.16-1.08 5.16-.07m12 .7c8.49.33 20.09 5.14 27.05 10.5s11.51 13.59 14.69 21.66 5.54 17.85 4.4 26.75c-1.14 8.89-5.5 19.49-11.25 26.64s-14.95 12.92-23.25 16.25c-8.31 3.32-17.89 5.19-26.57 3.7-8.68-1.5-18.32-7.26-25.51-12.67-7.18-5.41-14.51-11.76-17.6-19.82-3.08-8.05-2.44-19.65-.9-28.51 1.53-8.87 4.58-17.87 10.1-24.67 5.51-6.79 14.51-12.75 22.99-16.11s23.52-3.41 27.89-4.06c4.37-.66-1.44-.94-1.66.12"></path><path fill="none" stroke-linecap="round" d="M293.412 481.669c8.82-1.64 20.08.35 28.59 4.04 8.5 3.68 16.74 10.82 22.42 18.06 5.67 7.25 10.5 16.39 11.63 25.38 1.13 9-1.12 19.84-4.85 28.59-3.73 8.74-9.88 18.2-17.51 23.89-7.63 5.68-18.81 9.21-28.27 10.21-9.47.99-19.98-.56-28.51-4.24s-17.33-10.26-22.69-17.83c-5.37-7.56-8.52-18.45-9.52-27.57-.99-9.11-.05-18.53 3.56-27.13 3.61-8.59 9.27-18.5 18.11-24.43s27.94-9.64 34.92-11.16c6.97-1.52 6.96.8 6.94 2.06m-6.7-.61c8.81-1.03 18.84 1.2 26.61 6 7.77 4.79 15.59 14.57 20.02 22.78s6.8 17.28 6.58 26.46c-.23 9.18-3.16 20.49-7.95 28.62-4.78 8.14-12.51 15.36-20.75 20.18s-19.3 9.01-28.68 8.77c-9.37-.25-19.58-5.17-27.55-10.24-7.96-5.06-15.84-12.19-20.23-20.18-4.4-7.99-6.6-18.23-6.12-27.75.47-9.52 3.94-21.27 8.95-29.35s12.92-15.03 21.12-19.13c8.2-4.11 23.29-4.43 28.07-5.49 4.77-1.06.85-1.5.58-.87"></path><path fill="none" stroke-linecap="round" d="M297.148 476.2c8.69-.91 20.49 2.67 28.98 6.93 8.48 4.25 16.54 11.09 21.92 18.61 5.39 7.52 8.89 17.58 10.41 26.51 1.52 8.94 1.53 18.58-1.31 27.1-2.84 8.53-8.8 17.47-15.72 24.05-6.92 6.57-16.71 12.78-25.8 15.4-9.08 2.62-19.72 2.35-28.71.31-8.99-2.03-18.19-6.34-25.24-12.5-7.05-6.15-13.29-15.9-17.05-24.41s-6.22-17.58-5.49-26.64c.72-9.06 4.73-19.96 9.83-27.74 5.11-7.78 11.68-14.29 20.79-18.95 9.11-4.65 27.31-7.9 33.87-8.96 6.56-1.05 5.45 1.67 5.48 2.65m-28.29 1.01c8.29-3.45 19.4-4.63 28.46-2.95 9.06 1.69 18.56 7.44 25.91 13.05 7.35 5.62 14.05 12.18 18.2 20.64 4.15 8.45 6.92 20.59 6.72 30.09-.2 9.49-2.92 19.33-7.91 26.88s-14.17 13.43-22.02 18.44c-7.86 5.01-16.11 10.87-25.12 11.6-9.01.74-20.05-3.14-28.95-7.19-8.91-4.05-18.67-10.09-24.48-17.09-5.8-7.01-8.59-16.04-10.34-24.97s-2.73-19.72-.16-28.63c2.58-8.9 9.04-17.87 15.62-24.77 6.57-6.9 19.58-14.38 23.82-16.63 4.23-2.26 1.02 1.96 1.58 3.11"></path></symbol><symbol id="icon-mail" viewBox="0 0 24 24"><path d="M4 4h16c1.1 0 2 .9 2 2v12c0 1.1-.9 2-2 2H4c-1.1 0-2-.9-2-2V6c0-1.1.9-2 2-2"></path><path d="m22 6-10 7L2 6"></path></symbol><symbol id="icon-map" viewBox="0 0 24 24"><path d="M1 6v16l7-4 8 4 7-4V2l-7 4-8-4zM8 2v16M16 6v16"></path></symbol><symbol id="icon-menu" viewBox="0 0 24 24"><path d="M3 12h18M3 6h18M3 18h18"></path></symbol><symbol id="icon-plug" viewBox="0 0 24 24"><path d="M9 2v6M15 2v6M12 17v5M5 8h14M6 11V8h12v3a6 6 0 1 1-12 0"></path></symbol><symbol id="icon-test1" viewBox="-211.281 -2451.952 1152.794 2886.034"><path fill="currentColor" d="m195.764 253.662.144-4.075.386-7.58 1.357-7.707 2.869-9.449 3.468-9.487 5.832-9.322 7.779-8.859 7.102-6.41 6.276-4.948 6.334-4.628 6.517-4.165 6.286-3.971 6.352-4.08 7.252-3.216 10.062-3.109 11.187-3.202 9.442-2.597 7.18-3.106 6.871-4.084 8.367-4.665 9.325-5 8.104-4.649 6.849-4.456 6.592-4.53 6.818-4.784 7.695-5.376 7.343-5.422 7.89-6.805 7.47-7.479 4.896-6.317 3.242-6.167 2.743-7.647 2.037-9.874-.309-10.244-3.117-7.626-8.655-7.4-12.416-7.393-11.627-4.664-11.7-2.963-12.378-1.752-11.96-1.066-11.769-.642-11.666-.388-10.583.041-9.038 1.228-7.723 2.684-7.592 3.664-6.82 4.484-5.973 5.544-6.573 8.338-5.236 9.56-2.23 8.821-.555 8.042 3.72 2.669 9.832-.609 11.393-.214 9.447-1.498 7.505-2.63 8.393-5.037 5.107-3.448a7.985 7.985 0 0 1 9.395 12.914l-2.352 1.754-6.636 4.277-8.735 4.387-9.579 2.99-8.552 1.618-9.73.593-12.723-.148-11.938-2.124-7.583-5.656-1.834-7.289.865-7.489 1.954-8.063 4.037-9.341 7.413-11.003 8.227-9.276 7.433-6.364 8.19-4.919 8.877-3.766 9.394-2.564 10.15-1.025 10.874-.078 11.85.2 12.054.393 12.482.756 13.451 1.453 13.12 2.675 13.081 4.287 12.27 5.313 8.955 5.683 6.815 7.19 5.174 8.936 1.69 8.367-.308 7.227-.902 7.071-2.451 8.734-3.856 9.019-5.011 7.644-6.762 7.295-8.847 7.556-8.615 6.885-7.37 5.755-7.582 5.805-6.875 4.985-6.794 4.73-7.048 4.734-7.78 5.241-8.461 6.023-7.56 5.484-8.395 5.376-8.224 3.592-7.08 1.566-9.425 2.457-12.439 3.759-10.136 3.88-7.98 4.515-7.407 4.696-5.641 4.488-5.66 4.996-6.385 6.074-6.227 6.495-4.431 6.781-3.372 8.11-2.562 10.043-.818 9.895.145 4.072a7.687 7.687 0 0 1-15.374 0M423.055-28.293l1.618-2.2 4.332-5.374 5.264-5.606 6.366-5.63 7.352-5.615 7.073-4.38 6.855-3.39 7.886-2.79 11.1-2.883 12.08-2.953 9.832-2.38 9.12-1.25 10.188-.348 9.325-.175 7.321-3.166 6.67-5.233 6.632-4.16 10.008-5.212 14.307-6.29 14.115-4.607 11.163-3.265 9.288-3.477 9.051-3.611 9.586-3.996 10.092-4.556 10.671-4.965 9.903-4.492 12.51-5.15 17.111-6.2 17.387-5.7 15.533-4.941 15.31-4.778 16.478-4.806 16.075-4.245 14.6-3.69 10.851-2.919 8.207-2.302 9.76-2.183 5.81-1.117a6.075 6.075 0 0 1-.068 12.15l-4.69-.139-8.61.57-8.23 1.616-10.917 2.616-14.498 3.717-15.838 4.254-16.272 4.846-15.215 4.891-15.39 5.09-17.005 5.836-16.639 6.394-12.256 5.056-9.6 4.368-10.493 5.425-10.135 5.317-9.567 4.572-8.948 4.006-9.613 4.412-10.511 4.42-12.394 5.625-10.258 5.462-7.8 4.728-8.668 5.38-7.184 4.697-8.309 4.255-9.175 1.983-9.035.049-10.57.467-9.737 1.542-10.647 3.07-11.791 3.581-10.056 3.509-8.253 3.652-7.082 4.739-6.626 5.28-5.619 5.114-4.005 4.962-1.555 2.234a8.344 8.344 0 0 1-13.57-9.711m401.224-139.8-1.666 2.083-4.406 5.627-5.53 7.927-6.338 8.555-7.5 8.138-7.074 7.28-4.86 6.288-3.82 6.325-5.841 7.748-8.867 8.645-8.116 6.43-7.165 5.658-8.228 6.995-7.834 6.6-7.385 6.412-7.117 6.18-8.525 6.266-10.031 6.73-9.013 6.166-8.518 5.952-9.171 6.706-8.902 6.605-8.219 5.714-6.932 4.548-.816 5.768 2.357 8.796-2.577 11.75-5.393 10.45-7.073 9.296-7.115 8.551-5.034 5.346-6.99 7.224-7.736 7.189-6.01 4.769-6.325 4.87-9.865 7.303-9.904 7.04-6.745 4.65-6.958 4.588-7.5 4.6-9.282 6.307-9.97 7.505-9.013 6.428-7.961 5.214-5.553 4.139-2.136 1.833a7.732 7.732 0 0 1-9.205-12.426l2.838-1.852 6.435-3.934 7.787-4.38 8.92-5.607 10.68-7.355 9.717-6.561 7.052-4.588 6.645-4.567 6.568-4.729 9.285-7.012 9.328-7.545 6.043-5.104 7.54-6.63 9.115-9.129 6.636-7.502 6.006-7.96 7.106-11.23 3.261-9.91-.752-7.369-1.095-8.104 1.843-7.873 5.41-5.043 6.453-3.742 6.75-3.905 7.565-5.32 6.863-5.483 7.051-5.172 8.6-5.928 9.144-6.297 9.517-6.608 7.838-5.726 7.129-5.98 7.708-6.496L735-92.145l8.392-7.03 9.738-8.054 8.708-7.794 5.835-6.792 4.307-6.231 5.086-6.885 6.914-7.695 7.42-7.324 6.955-7.929 6.047-7.761 5.21-5.629 4.182-3.717 1.63-1.427a6.075 6.075 0 0 1 8.856 8.32M503.666 127.275l-.228-.58-.228-.58a7.807 7.807 0 0 1 14.85-4.82l.157.603.156.603a7.732 7.732 0 0 1-14.708 4.774m.626-8.12 1.322-1.888 4.044-6.429 4.444-7.526 3.995-6.566 4.198-6.663 4.37-7.57 4.408-9.164 3.43-8.675 2.822-7.243 2.107-6.752.156-6.987-3.758-6.272-6.263-5.113-6.835-4.453-7.836-4.641-8.68-4.985-9.064-4.277-7.782-3.37-7.78-3.043-7.99-2.551-7.856-1.617-9.889-.664-9.626-.143-8.027.305-10.035-1.688-6.099-2.01a8.865 8.865 0 0 1 8.437-15.594l2.91 1.115 7.825 1.044 9.365-.039 8.218.194 7.51.654 9.487 2.083 11.351 3.347 10.851 3.753 10.623 4.29 9.95 4.842 8.205 4.638 7.283 4.43 7.014 4.968 6.136 5.08 5.066 5.763 3.302 7.425 1.05 9.148-1.261 8.81-3.253 7.588-3.592 7.719-4.062 9.295-5.14 10.093-4.515 7.751-3.687 6.553-3.619 6.857-4.768 8.458-4.41 6.962-1.365 1.859a7.807 7.807 0 0 1-12.687-9.101M421.232-15.91l2.796-1.888 9.457-5.292 10.567-5.212 7.474-3.494 6.817-3.397 7.752-3.898 4.504-2.188a6.73 6.73 0 0 1 6.537 11.768l-4.238 2.668-7.63 4.645-6.815 3.865-6.91 3.908-7.036 4.309-6.427 4.139-4.81 3.24-1.93 1.392a8.865 8.865 0 0 1-10.108-14.565M565.142-46.036l.115.739 5.281-.298 9.836-1.033 8.383-.117 8.156-1.419 5.986-4.86-1.988-1.453-7.094 2.14-7.757.842-10.626 2.183-6.43 1.367a8.292 8.292 0 0 1-4.084-16.072l6.556-1.933 12.284-3.19 10.036-1.216 8.323.263 8.342 1.333 7.816 4.884 3.459 8.444-.887 8.358-3.205 7.009-5.635 4.674-6.74 2.364-8.103 1.953-8.414.802-8.454-.17-11.095.057-11.32-1.513-6.388-4.904-1.47-3.3a8.12 8.12 0 0 1 15.117-5.934"></path><path fill="currentColor" d="m662.536 6.822-.006 3.527.011 10.139-.2 11.502-.762 10.939-1.695 12.58-2.032 11.232-2.777 10.04-5.17 11.617-8.574 13.82-9.471 13.2-7.953 10.283-6.725 8.133-5.564 6.416-7.38 6.923-10.71 7.128-9.184 4.552-6.697 2.74-8.233 3.763-4.772 2.466a7.052 7.052 0 0 1-6.59-12.47l3.8-1.676 9.002-3.391 8.605-3.134 8.497-3.559 9.435-4.883 7.042-5.22 5.698-5.634 6.55-7.657 7.551-10.164 8.788-12.73 7.54-12.795 4.228-10.401 2.3-9.147 1.47-10.47.58-11.805-.283-10.697-.2-11.501.012-10.14-.006-3.527a6.937 6.937 0 0 1 13.875 0M560.72 154.562l4.516-.395 10.078-.474 11.944-.163 13.012-.504 11.322-.789 8.534-.693 8.918-.6 10.196 2.425 7.61 5.354 4.737 7.251 3.396 8.458 1.72 6.66.571 2.803a8.018 8.018 0 0 1-15.857 2.383l-.419-4.006-1.737-8.228-3.739-7.592-6.68-3.686-7.985-.226-8.327.453-11.406 1.229-13.061 1.518-12.952 1.467-9.918 1.11-3.22.294a7.052 7.052 0 0 1-1.253-14.048m86.38 22.827 4.368-1.215 8.688-2.56 8.769-2.782 8.064-2.658 7.134-2.142 10.266-1.808 11.11-.944 8.12-.124 7.735.099 8.587 2.236 8.571 5.59 7.09 7.184 5.484 7.503 4.055 7.528 3.628 9.428 2.335 9.13.615 6.946.499 8.823.265 9.457-.378 7.07-.347 2.88a7.773 7.773 0 0 1-15.296-2.773l.852-5.521.83-10.589-.39-11.032-1.49-10.433-4.115-10.444-5.645-8.923-5.447-5.372-8.08-3.84-8.956-1.31-10.634.563-12.621 1.542-9.08 2.296-7.716 3.064-8.645 3.76-9.042 3.338-4.693 1.428a8.018 8.018 0 0 1-4.49-15.394m105.03 60.738 3.746-1.047 7.477-1.795 7.301-1.49 9.229-1.648 9.926-1.275 10.25.516 9.983 3.718 6.731 5.477 5.276 6.05 5.75 9.374 5.067 11.377 2.24 9.421.216 8.444-1.419 9.502-4.395 10.655-5.112 9.127-8.142 9.89-13.232 12.295-14.082 11.204-12.783 8.941-11.419 6.716-10.942 5.558-10.497 4.83-10.702 4.218-12.725 3.616-14.354 3.131-13.885 2.686-12.419 2.314-10.134 1.845-10.7 1.772-12.14 1.539-5.915.553a6.03 6.03 0 0 1-.53-12.047l5.803.038 11.78-.058 10.288-.52 9.972-1.502 12.353-2.343 13.675-2.699 13.756-3.046 11.9-3.448 10.167-4.151 10.083-4.85 10.287-5.501 10.584-6.62 11.923-8.932 12.974-11.138 11.31-11.4 6.782-8.826 3.812-7.628 2.685-7.955.414-10.04-1.63-10.647-3.642-8.762-6.313-8.947-9-6.475-8.75-1.937-8.561.804-8.379 1.574-7.027 1.818-7.216 1.833-3.735.923a7.773 7.773 0 0 1-3.96-15.032M452.22 95.25l-.38 3.845-1.325 7.817-2.275 7.559-3.324 8.087-4.676 9.053-5.639 8.655-4.904 7.427-3.988 6.782-4.274 6.716-4.368 6.759-4.561 6.452-4.83 5.548-4.895 5.394-5.24 6.198-6.428 7.296-7.635 8.146-8.374 8.849-6.97 7.2-4.865 5.22-5.197 5.847-5.288 5.946-5.814 6.328-6.632 7.297-5.53 6.695-4.96 6.405-4.643 6.32-3.82 5.916-4.475 8.523-4.48 10.01-2.579 8.749-1.43 8.899-.933 10.535-.276 11.174-.042 9.058.341 7.277 2.022 8.24 3.795 8.329 4.834 6.208 5.578 4.659 7.243 4.383 7.647 3.564 8.05 2.611 10.056 1.867 9.53.79 7.934.466 7.732.298 8.228.293 9.755-.546 8.83-1.785 6.828-2.888 9.616-5.13 10.404-6.21 7.443-5.252 7.597-5.62 9.03-6.724L468 353.47l6.278-6.987 3.947-6.39 3.307-8.837 3.138-11.82 1.702-11.756.44-10.295-1.427-8.693-3.633-6.927-4.896-6.465-5.736-6.232-6.036-4.926-6.557-3.701-6.932-1.727-7.775.103-9.02 2.438-8.017 4.329-7.105 5.24-6.369 5.929-4.395 5.802-3.246 6.613-2.282 7.618-.424 7.703 2.476 7.004 5.7 3.798 8.31.658 9.088.117 7.9-.046 7.18-2.71-.404-3.279-8.887-1.613-4.812-.972a9.212 9.212 0 0 1 2.454-18.26l2.532.263 7.382 1.38 8.304 2.889 7.366 3.51 6.11 6.583 1.746 8.41-2.386 7.217-5.787 6.474-8.14 5.165-9.02 2.783-8.5.424-8.96-.02-8.811-.088-7.348-.761-7.102-2.586-6.517-5.548-4.832-7.282-2.614-8.58-.568-9.45 1.589-9.275 3.416-9.356 4.015-7.523 5.057-6.542 6.247-6.317 5.871-4.92 6.973-4.916 8.676-4.85 9.908-3.511 8.94-1.253 7.125.419 7.346 1.391 7.158 2.935 7.475 4.894 7.993 6.75 7.012 7.778 5.687 7.923 4.591 9.325 2.041 10.215-.335 10.05-.61 8.723-.798 7.167-2.266 10.57-4.005 12.65-5.163 9.985-6.676 8.057-6.332 6.368-6.964 5.743-9.232 6.672-8.401 5.75-8.576 5.27-11.108 6.205-10.503 5.747-8.497 3.921-11.143 2.245-11.255.891-8.306.2-7.84.133-11.49.057-11.226-.295-9.138-2.047-9.529-3.27-8.59-3.945-8.262-5.29-7.146-6.553-5.827-7.31-4.736-9.458-3.41-9.37-1.46-7.729-.688-10.598.042-12.58.75-12.545 1.661-11.083 3.213-10.57 4.694-10.711 4.283-7.89 3.799-6.274 4.29-6.284 4.829-6.56 5.023-6.559 5.438-7.133 6.097-8.087 5.298-6.61 4.88-6.104 7.36-9.111 9.064-10.55 8.207-9.44 6.925-7.933 5.901-7.052 6.654-7.76 6.806-7.672 5.33-7.157 4.662-6.748 4.19-5.98 4.118-6.526 5.557-7.893 5.637-7.66 4.051-6.847 3.375-8.932 1.76-9.348.118-3.844a7.905 7.905 0 0 1 15.776 1.02"></path><path fill="currentColor" d="m509.11 304.727 3.32.805 7.137 1.769 7.865 1.538 9.211 1.933 9.188 2.28 7.566 1.482 8.302.622 9.065.029 8.058-.12 6.907-2.133 8.292-4.852 9.426-5.225 6.732-4.847 5.21-5.916 4.757-6.717 3.569-6.858 3.045-7.503 2.538-7.64 1.801-7.852.947-7.943.261-7.445.068-7.657-2.52-7.178-5.648-4.864-8.117-3.636-9.96-3.339-9.389-2.216-9.017-1.084-7.53 1.482-6.285 5.354-4.81 6.672-2.543 7.154-1.31 7.612-.673 7.362-.62 7.468 3.423 5.973 8.632 2.306 5.02.026a9.125 9.125 0 0 1-.056 18.25l-6.46-.059-10.937-.438-8.224-2.242-6.38-6.473-2.696-8.113.164-7.411.8-8.905.9-9.559 1.906-10.252 3.021-8.787 4.516-7.467 6.367-7.319 7.219-5.378 10.024-3.128 10.13-.18 9.094 1.438 10.356 2.381 8.681 2.466 9.185 3.583 10.126 6.396 6.807 8.11 3.062 9.214.509 8.76-.256 7.968-.726 9.274-1.678 10.077-2.606 8.849-3.259 8.45-4.2 9.26-5.356 8.673-6.394 7.758-7.982 7.186-9.087 6.109-9.356 5.666-10.237 4.928-9.213 1.895-8.154-.176-7.991-.172-8.47-.69-8.477-1.413-8.115-2.03-10.31-2.444-10.336-2.514-7.88-1.92-3.358-.632a8.097 8.097 0 0 1 3.408-15.83M208.845-383.831l-.335 6.12-.556 11.476-.212 9.738.063 8.413.105 7.99.125 7.622.335 8.393 1.509 8.79 3.178 10.27 3.926 11.729 3.766 10.05 4.086 10.07 3.576 8.9 2.499 7.627 2.54 7.99 2.821 7.907 2.952 8.018 2.865 7.51 2.957 7.171 3.188 7.123 3.1 7.278 3.829 8.665 4.994 10.762 4.502 10.296 3.372 8.165 3.541 7.725 4.137 8.39 3.818 7.288 8.03.623 10.6-4.394 7.903-3.866 7.342-3.948 7.414-4.19 8.832-5.657 10.86-7.143 9.12-5.15 9.1-4.549 8.616-4.868 6.179-3.993 8.442-5.913 10.298-8.166 8.752-7.191 7.536-5.67 7.198-5.39 8.093-5.432 8.79-5.297 7.948-4.42 7.77-4.168 7.552-4.268 8.25-4.232 8.177-3.946 8.065-4.136 8.565-4.742 8.833-4.88 9.587-4.994 9.532-5.123 10.327-5.628 11.004-5.98 9.535-5.33 7.17-4.357 7.465-5.345 7.916-6.059 6.247-5.442 3.543-8.555.874-12.624.15-14.47-.742-12.09-1.87-9.065-2.173-8.163-2.742-7.535-3.722-7.992-4-7.872-3.716-6.85-4.708-10.224-4.41-11.424-2.602-7.613-2.434-7.336-2.579-7.656-2.508-7.49-2.582-8.074-2.683-8.267-3.317-10.62-3.053-10.439-2.93-10.284-3.82-12.448-3.852-11.395-3.542-11.226-2.254-9.701-1.625-7.556-5.496-2.661-8.76 1.53-7.927 1.478-7.18 2.084-8.822 3.87-10.25 5.378-9.492 6.029-9.404 6.352-9.621 6.443-7.88 5.422-6.215 4.064-6.701 4.456-7.435 5.011-7.755 5.319-6.869 4.917-5.677 4.497-6.087 4.626-6.984 4.847-6.55 4.847-7.95 6.216-9.023 7.248-7.757 6.76-7.495 7.14-8.154 7.958-8.678 8.152-9 7.964-7.959 6.962-6.903 5.834-7.03 5.598-6.52 5.343-7.017 5.522-7.881 5.208-8.28 4.944-9.328 4.873-8.282 3.807-6.955 2.516-7.465 2.643-8.185 4.818-9.922 4.903-5.46 1.769a8.842 8.842 0 0 1-6.651-16.385l4.502-1.169 7.875-3.612 7.505-4.5 7.417-3.368 7.279-2.537 8.59-3.12 8.753-4.07 8.488-4.39 8.124-5.01 7.1-5.406 6.841-5.294 6.767-5.018 6.781-5.291 8.27-7.002 8.76-7.663 8.35-7.671 8.364-7.868 8.117-7.15 8.723-6.824 9.622-6.914 8.136-5.9 6.814-5.2 6.573-4.706 5.98-4.456 6.027-4.597 6.73-5.077 7.456-5.881 7.236-5.642 9.326-6.736 8.694-6.28 7.788-5.316 9.436-6.017 9.973-6.212 10.907-6.06 8.799-4.286 7.324-2.996 8.215-2.76 8.507-2.223 8.08-1.682 8.427-.619 8.454 3.393 4.777 7.344 1.895 9.725 2.464 11.15 3.164 10.839 3.463 11.819 3.487 13.01 2.626 10.318L546.03-493l3.029 10.314 2.842 8.323 2.65 8.023 2.369 7.454 2.577 7.843 2.202 7.298 2.302 7.34 4.184 10.432 4.456 9.635 3.592 7.04 4.238 8.094 4.5 9.027 3.14 8.325 2.481 8.501 2.87 10.261 1.947 13.42.733 11.922.043 9.683-.972 10.907-4.339 8.664-6.615 5.89-7.081 4.545-9.014 5.2-8.41 4.6-7.512 3.909-9.54 5.28-10.843 6.205-10.184 5.889-9.434 5.532-9.192 5.288-8.657 5.106-8.833 5.298-8.27 4.409-7.849 3.813-7.866 4.151-7.794 4.417-7.629 4.08-7.343 4.07-7.93 5.348-7.394 5.57-6.846 5.567-6.842 5.83-6.064 5.355-8.218 6.612-8.296 6.143-6.15 4.321-6.675 4.502-9.543 5.429-11.754 6.05-10.747 6.155-8.065 5.195-6.512 4.163-7.395 4.724-7.327 4.539-7.74 4.751-8.839 5.196-9.867 3.459-9.649-.03-7.121-3.568-4.51-5.996-3.264-7.304-3.361-8.266-3.016-7.577-2.586-7.442-3.288-9.186-3.308-8.215-3.607-8.573-3.362-8.58-2.988-7.002-3.399-7.444-3.126-7.431-2.96-7.455-3.296-7.947-3.407-8.202-2.896-7.718-2.742-7.184-3.74-9.04-3.968-10.454-3.513-10.445-3.685-11.764-3.079-12.374-1.003-10.949.322-8.422.125-7.622.105-7.99.063-8.413-.212-9.738-.556-11.476-.335-6.12a6.802 6.802 0 0 1 13.603 0M193.825-437.612l-5.14.069-12.686-.014-14.254-.18-12.297-.186-10.922-.126-8.838.169-9.595.554-11.05.626-11.63-1.386-10.592-3.284-3.918-1.62a6.591 6.591 0 0 1 4.8-12.277l3.977 1.466 8.202 2.982 9.16 1.783 11.012.583 9.578.486 8.815.069 10.873-.303 12.214-.496 13.962-.726 12.42-.976 5.112-.544a6.677 6.677 0 0 1 .797 13.33M487.776-647.679l1.226-5.715 1.89-9.595 3.215-11.367 5.444-14.038 5.94-12.624 5.96-11.837 6.787-11.354 6.79-9.59 4.874-6.98 4.733-6.784 2.777-3.803a5.166 5.166 0 0 1 8.312 6.136l-2.817 3.775-5.113 6.552-5.2 6.53-6.316 8.829-6.132 10.89-5.414 11.747-5.082 12.143-4.307 13.152-2.657 10.663-1.364 9.534-.625 5.812a6.543 6.543 0 0 1-12.921-2.076M303.337-526.61l-6.156-2.812-12.843-6.788-13.815-8.501-12.663-8.142-10.378-6.971-7.825-5.158-7.23-4.968-6.848-5.276-2.597-2.11a6.089 6.089 0 0 1 7.974-9.204l2.458 2.27 5.774 5.656 6.005 5.491 7.516 5.22 10.432 6.476 12.748 7.485 13.377 7.366 12.62 5.47 6.383 2.23a6.61 6.61 0 0 1-4.932 12.267"></path><path fill="currentColor" d="m261.01-343.598-.003 2.876 1.418 8.833 2.943 10.307 3.546 8.757 4.137 9.397 4.023 10.565 4.28 10.889 5.07 10.032 5.116 8.56 5.383 7.706 5.32 7.512 3.82 6.906 3.093 7.585 3.087 7.922 3.495 6.406 2.036 2.811a8.622 8.622 0 0 1-13.977 10.1l-2.785-4.581-4.372-8.573-3.08-7.953-3.031-7.528-3.324-6.542-4.115-6.305-4.748-7.397-5.434-9.35-4.55-8.345-3.94-9.072-4.071-10.494-3.902-9.257-4.31-9.96-3.383-10.53-2.352-10.388-1.07-7.935-.03-2.883a7.855 7.855 0 0 1 15.71-.07m41.254 130.8.37-2.681 1.572-7.361 1.68-8.295.681-8.959-.305-9.248-1.69-9.065-1.818-10.127-1.23-8.532-.591-3.568a8.973 8.973 0 0 1 17.606-3.477l.685 6.23 1.262 10.113 1.741 8.11 1.5 7.728.265 7.307-.29 7.68-.917 8.979-1.6 8.572-1.391 6.344-.487 2.879a8.622 8.622 0 0 1-17.043-2.63m3.787-61.393-.033-.014-.033-.013a8.975 8.975 0 0 1 7.371-16.368l.032.016.033.016a8.973 8.973 0 0 1-7.37 16.363m12.393-10.103.393 1.96 2.392 6.345 4.026 7.644 4.003 6.082 5.337 4.397 7.606 2.066 4.245.493a9.135 9.135 0 0 1-2.258 18.129l-5.383-.743-8.973-1.934-7.42-4.079-5.957-5.753-4.172-5.946-4.41-7.11-3.961-7.746-2.306-6.868-.71-3.153a8.975 8.975 0 0 1 17.548-3.784m17.815 36.873.281-2.253.35-6.493.08-8.13-1.073-8.135-2.537-7.543-3.183-7.017-3.166-6.938-4.193-8.57-4.078-8.506-3.403-7.144-4.805-8.439-5.165-9.386-4.507-8.35-3.707-6.597-4.209-8.058-4.067-8.487-1.5-3.608a8.473 8.473 0 0 1 15.663-6.469l.989 2.314 2.58 6.156 3.132 7.084 3.283 6.352 4.023 7.652 4.79 8.851 5.244 9.043 5.071 9.699 5.4 10.354 4.805 8.54 4.568 8.802 4.545 10.147 2.65 9.184 1.043 8.893.052 8.88-.447 7.6-.393 2.929a9.135 9.135 0 0 1-18.116-2.357M339.094-409.179l-.01 2.877.088 8.033 1.223 9.716 2.943 9.728 3.17 8.94 2.814 7.577 2.796 7.202 3.57 6.327 4.635 6.076 4.754 6.595 4.696 8.275 4.376 7.749 4.25 5.984 4.898 6.81 6.085 8.35 3.4 4.601a9.305 9.305 0 0 1-15.754 9.907l-3.209-4.362-5.264-7.382-4.35-6.293-4.58-6.853-3.792-6.915-3.244-6.39-3.918-6.538-4.255-6.547-4.092-6.594-3.237-7.004-2.695-7.625-2.694-8.018-3.008-9.002-2.826-8.427-1.562-6.755-.626-8.877-.114-8.288-.01-2.877a7.771 7.771 0 0 1 15.542 0M382.73-433.697l.829 4.107 1.897 7.772 2.396 7.228 3.611 8.24 4.81 9.156 4.433 7.586 4.515 6.79 5.17 7.229 5.61 7.514 6.237 8.997 5.314 7.808 4.12 5.876 4.388 6.477 4.04 6.39 4.708 7.777 3.063 4.767a8.974 8.974 0 0 1-14.49 10.592l-3.806-6.081-5.92-9.849-4.19-7.097-4.052-6.12-4.15-6.185-4.28-6.585-4.293-6.272-4.368-6.364-4.203-7.062-4.07-7.392-4.204-7.615-4.377-8.808-3.635-7.995-3.04-7.137-3.034-8.063-2.522-8.157-1.115-4.041a7.509 7.509 0 0 1 14.608-3.483"></path><path fill="currentColor" d="m381.499-440.325 3.556 1.371 8.467 3.404 9.031 4.69 7.963 5.433 7.529 5.51 6.926 5.463 6.35 5.33 6.388 6.197 6.156 6.54 5.708 6.186 5.666 6.139 6.226 5.068 6.434 3.795 6.722 2.981 7.737 2.46 10.084 3.44 6.025 2.34a9.377 9.377 0 0 1-10.378 15.621l-1.696-.913-5.19-1.62-7.262-2.104-7.296-2.752-6.945-3.34-6.734-4.148-7.064-5.665-6.053-6.47-4.677-5.662-5.812-6.589-5.926-6.437-6.848-6.381-7.938-6.574-7.288-5.502-6.746-4.937-7.036-3.945-7.637-2.916-3.637-1.142a7.876 7.876 0 0 1 5.195-14.87m116.712 92.132-.194.125-.193.124a9.386 9.386 0 0 1-9.873-15.964l.197-.118.198-.117a9.377 9.377 0 0 1 9.865 15.95m-12.758-2.005-2.212-2.944-5.145-7.548-4.8-7.481-5.361-8.63-7.019-10.9-6.47-9.209-5.461-7.664-4.697-7.384-3.91-6.79-3.256-6.645-3.215-7.82-3.321-9.136-3.462-8.402-3.198-6.819-3.124-6.695-1.753-3.325a8.848 8.848 0 0 1 15.593-8.366l2.135 4.654 3.386 7.987 3.01 7.135 3.084 7.804 3.216 8.487 3.666 8.754 3.397 7.89 3.592 6.584 4.398 6.443 5.91 8.26 5.77 7.813 5.78 8.056 5.655 7.796 5.488 7.267 5.257 6.932 1.936 2.44a9.386 9.386 0 0 1-14.87 11.456M600.323-491.79l7.482-1.09 13.98-2.35 11.394-2.281 8.5-2.063 7.974-2.315 7.633-3.73 3.264-2.456a6.878 6.878 0 0 1 8.045 11.156l-1.976 1.308-5.822 2.94-8.271 2.29-8.254 1.539-8.65 2.038-11.45 2.945-13.99 3.51-7.362 1.726a6.701 6.701 0 0 1-2.497-13.168M647.14-368.106l4.395.13 9.189.306 9.043.22 8.108.048 8.624.939 9.144 1.973 8.378 2.161 7.803 2.32 7.272 2.525 6.87 2.844 7.087 3.306 7.137 3.46 8.664 4.206 8.298 4.106 3.083 1.567a6.787 6.787 0 0 1-6.21 12.07l-3.068-1.598-8-4.382-8.335-4.456-7.014-3.382-9.699-4.474-9.691-3.951-7.236-2.255-7.899-1.961-7.863-1.627-7.4-.772-8.053.008-9.043.22-9.189.306-4.395.131a6.994 6.994 0 0 1 0-13.988M161.056-242.849l-4.236 3.467-8.46 6.864-8.745 7.163-8.827 7.2-7.47 6.326-6.141 6.07-5.719 6.217-5.223 5.436-3.657 3.878-1.174 1.482a7.377 7.377 0 0 1-11.198-9.607l1.287-1.386 4.51-4 6.778-5.056 7.109-5.141 6.945-5.515 7.438-6.315 8.404-7.56 8.233-7.63 7.748-7.44 3.869-3.871a6.353 6.353 0 0 1 8.529 9.418M217.998-126.586l-.711 4.78-1.445 8.674-1.747 7.404-2.829 10.044-2.843 10.486-3.036 9.8-3.877 10.962-4.172 12.027-4.358 12.624-3.68 10.352-2.912 8.957-2.365 8.386-2.06 7.589-2.448 7.991-1.465 4.47a5.52 5.52 0 0 1-10.513-3.378L168.95.095l2.617-7.768 2.484-7.403 2.73-8.592 3.076-9.012 3.369-10.213 3.707-12.78 3.374-12.164 2.717-10.784 2.216-9.929 2.797-10.925 3.404-12.806 1.743-10.903.226-4.825a7.33 7.33 0 0 1 14.589 1.423M415.005-171.724l-3.61 3.488-6.008 6.056-5.157 5.875-4.088 6.869-3.072 7.962-3.236 7.561-1.264 7.008.432 7.679.656 7.225 1.955 7.496 3.18 7.145 3.943 7.573 2.972 8.448L402.91-74l.54 8.122-.09 8.826-1.895 7.97-4.158 6.325-6.789 8.209-4.392 5.727a9.239 9.239 0 0 1-14.291-11.71l3.982-5.325 6.633-7.59 2.666-6.27-.13-8.64-.904-9.127-2.708-8.24-4.18-8.477-3.19-8.366-1.243-7.318-.54-8.519-.169-8.876 1.492-8.643 3.22-7.862 2.96-6.902 3.715-7.665 5.805-7.487 5.554-6.019 5.433-6.485 3.113-3.938a7.864 7.864 0 0 1 11.66 10.555M349.29-713.291l.167-4.443.216-8.315.072-7.621.049-7.545.033-7.49-.064-10.042-.07-9.879-.042-10.118-.132-12.34-.218-10.323-.225-9.196-.26-9.42.02-10.386.52-9.563.422-7.65.026-7.592-.172-7.468 1.003-8.27 3.455-8.858 4.422-7.15 5.038-7.71 5.298-8.038 5.803-8.693 6.923-8.985 5.703-6.257 4.574-5.292 4.83-5.869 5.023-6.408 4.906-6.264 6.467-8.217 6.85-8.512 5.579-6.8 6.422-8.48 7.748-10.029 6.515-7.9 4.954-5.914 5.875-6.977 6.121-7.623 5.236-6.57 1.306-6.203-2.154-8.952-3.158-11.06-4.756-11.493-5.127-12.311-3.526-9.723-2.247-6.829-2.388-7.08-2.579-9.153-2.615-10.232-2.14-10.695-1.502-11.567-1.095-11.358-.78-11.568-.549-10.687-.53-8.87-.441-8.09-.63-9.582-1.133-8.952-1.265-8.262 1.94-12.122 5.994-13.527 6.918-11.657 5.835-9.204 6.628-9.405 7.736-10.116 6.913-9.018 5.343-7.392 5.15-7.863 5.95-8.932 5.62-8.495 5.11-7.327 7.532-9.44 7.53-9.686 4.989-7.94 4.207-8.286 2.888-7.499 3.005-9.056 3.556-11.687 3.206-10.048 2.494-6.558 3.225-8.104 3.137-8.277 3.282-10.072 5.046-11.784 2.951-5.086a8.342 8.342 0 0 1 13.815 9.352l-2.104 3.052-4.212 6.749-2.708 7.1-2.085 6.525-3.574 7.884-4.317 10.715-3.18 9.387-1.832 6.768-2.709 8.806-3.764 10.008-3.863 8.084-5.402 8.93-5.918 8.791-5.26 7.214-6.907 9.237-7.398 9.865-6.595 8.248-6.984 8.21-5.948 7.09-5.483 7.241-6.51 9.254-7.001 10.156-6.074 9.18-5.16 8.935-5.513 11.327-4.156 10.801-1.614 8.837.07 8.128.021 9.65-.262 9.617-.077 7.968.113 8.723.583 10.34 1.208 11.172 1.654 10.84 2.17 10.61 2.7 9.789 3.502 9.653 3.276 8.576 2.675 7.14 3.524 9.666 4.717 11.802 4.133 8.978 3.098 6.662 2.8 6.787 2.529 9.68 1.815 11.935-1.047 9.307-4.057 6.422-5.67 6.276-6.441 7.273-5.683 6.55-4.756 6.126-6.224 7.74-7.532 9.657-6.197 8.796-4.885 7.278-4.605 6.925-5.295 7.595-5.314 7.088-5.527 6.822-6.464 7.572-5.77 6.483-5.447 5.836-5.074 6.535-4.752 6.787-4.61 6.167-5.378 8.563-5.3 10.467-2.169 9.04-.295 7.65-.314 7.495-.632 8.542-.79 9.014-.495 9.256-.259 9.42-.226 9.195-.217 10.323-.132 12.34-.042 10.118-.07 9.88-.065 10.04.034 7.491.049 7.545.072 7.62.215 8.316.167 4.443a7.28 7.28 0 0 1-14.559 0m214.386-732.451-4.51-.325-9.55-.772-10.875-.884-11.97-.769-11.928-.578-13.364-.43-16.302-.314-18.696-.23-20.364.202-21.025.62-22.302 1.03-23.18 1.691-22.766 2.13-22.45 2.406-19.881 2.333-15.279 2.192-12.044 2.53-10.58 2.776-10.443 2.61-9.517 2.64-10.14 2.703-9.985 2.418-8.443 2.459-.752 4.294 6.088 6.565 5.777 8.605 7.424 12.313 6.217 11.139 4.585 8.335 4.549 8.171 4.052 7.002 4.864 8.489 5.703 9.614 5.38 9.068 4.618 8.46 3.86 6.935 3.207 7.233.676 9.314-2.757 10.91-3.784 10.432-4.418 10.582-5.945 12.221-5.027 9.358-3.641 6.345-4.293 8.189-3.996 8.898-3.378 8.047-4.611 9.344-5.217 10.417-3.639 8.497 3.766 5.216 8.179 4.482 6.106 4.717 6.145 4.687 6.96 5.777 7.426 6.35 7.36 6.284 7.02 5.853 6.957 6.125 6.741 6.282 6.763 6.625 7.456 7.739 7.755 7.975 7.468 7.127 6.676 5.957 8.177 7.23 7.7 6.95 6.8 6.648 7.714 7.757 6.864 7.221 5.876 6.57 5.823 6.917 2.811 10.273-3.136 12.075-5.08 8.951-5.847 8.311-6.043 8.397-5.48 6.818-5.998 7.129-7.479 7.686-8.869 8.098-8.798 7.988-8.526 7.612-8.354 7.39-8.172 7.619-7.268 7.423-5.78 6.498-5.979 7.604-7.092 9.692-6.93 8.443-6.304 6.831-5.868 6.52-6.277 6.288-7.303 7.82-6.676 8.706.173 7.7 6.32 6.358 7.327 5.782 7.894 6.015 7.278 5.45 7.034 5.655 6.943 5.82 6.253 5.498 6.457 6.06 6.653 6.144 6.16 5.706 6.318 5.73 6.475 5.721 6.086 5.436 6.084 5.283 7.006 5.658 8.239 7.358 7.844 8.2 6.483 7.509 6.07 7.196 5.631 6.305 5.273 6.114 4.258 5.587 1.557 2.223a7.9 7.9 0 0 1-12.92 9.092l-1.567-2.216-3.653-5.06-4.44-5.685-5.697-6.99-6.003-7.755-5.531-7.254-6.573-7.757-7.111-7.42-6.766-6.125-6.178-5.485-5.837-5.416-6.634-5.805-6.483-5.84-5.932-5.63-6.93-6.105-6.367-5.795-5.821-5.23-6.849-5.505-6.766-5.209-7.266-5.031-8.605-5.408-8.111-5.239-8.972-6.286-7.025-8.298.342-8.186 4.501-6.972 6.721-8.12 6.65-7.311 5.572-5.357 5.808-5.83 5.789-6.61 5.988-6.96 6.869-7.901 8.238-9.186 7.06-7.211 6.227-6.295 7.463-7.675 8.093-8.016 7.98-7.63 7.988-7.91 8.11-8.47 7.538-8.274 6.221-7.692 5.279-7.395 4.652-6.681 5.71-8.567 6.42-10.094 4.915-7.209-.032-5.478-4.574-5.896-5.072-6.6-6.234-7.528-6.984-8.183-5.93-6.655-7.063-7.407-7.468-7.703-6.52-6.2-7.77-7.109-8.221-7.533-7.81-7.168-6.786-6.293-6.54-5.89-6.832-5.71-7.198-5.583-7.633-5.717-7.86-5.622-7.02-4.98-6.298-4.335-9.302-6.388-10.825-8.602-5.257-8.64 1.367-8.154 4.39-9.698 5.231-10.785 4.415-8.67 3.744-7.92 4.615-9.47 4.47-8.69 4.959-9.291 4.455-9.13 3.496-8.552 4.06-10.18 3.377-9.457 2.227-7.944-1.266-7.365-3.532-7.591-3.846-8.138-5.06-9.654-5.18-10.094-4.256-8.303-3.971-6.898-4.906-7.79-5.496-8.295-6.672-10.312-6.14-9.2-4.877-7.24-5.413-9.019-4.405-8.723-.74-7.497 5.001-5.452 8.333-2.46 8.457-1.292 9.774-2.131 10.16-2.522 9.742-2.397 10.364-2.511 10.945-2.794 12.577-2.658 15.51-2.26 19.964-2.393 22.555-2.484 22.93-2.236 23.403-1.833 22.42-1.21 21.183-.864 20.528-.535 18.699-.22 16.31-.296 13.377-.397 11.954-.522 12.033-.67 11.087-.71 9.954-.122 4.748.214a8.342 8.342 0 0 1-.97 16.655M192.197-1085.016l-.107 4.515-.534 9.5-1.43 11.816-2.546 13.793-3.496 14.583-3.375 13.282-2.47 10.324-1.681 8.09-1.896 8.932-2.013 9.46-1.827 8.803-3.047 10.535-3.329 9.122-2.783 6.67-3.362 7.895-3.473 9.986-3.016 9.505-3.24 8.47-2.9 7.655-2.08 7.039-1.462 6.457-.52 2.779a7.693 7.693 0 0 1-14.914-3.786l.892-2.785 2.245-6.757 2.495-7.55 2.444-7.765 2.776-9.775 2.903-8.9 3.018-6.545 4.1-8.684 3.824-8.997 3.193-8.527 3.213-9.15 2.787-8.668 3.296-9.48 2.843-8.3 2.16-7.932 2.391-10.343 2.877-13.21 2.755-14.054 1.595-13.151.629-11.198.036-9.14-.107-4.514a6.568 6.568 0 0 1 13.136 0m-64.16 201.984-2.024-2.491-4.526-6.026-4.674-6.285-5.374-5.882-6.647-5.33-8.057-5.08-7.43-5.155-5.649-4.881-7.65-7.063-7.439-7.766-6.485-8.23-7.296-10.6-5.194-9.067-3.878-6.992-5.88-9.756-5.764-9.104-3.975-6.112-4.002-6.212-4.255-6.114-4.36-5.833-4.785-6.509-6.207-8.245-6.318-7.529-5.436-5.657-6.311-6.008-7.139-7.042-7.016-7.321-6.364-6.73-6.861-7.709-8.266-8.851-8.857-8.063-7.255-6.072-6.966-6.038-7.906-6.385-7.9-4.127-8.353-1.817-9.096-.425-11.404.182-10.783 1.645-8.076 4.796-7.52 8.817-5.752 8.364-4.587 8.187-4.541 9.727-3.294 7.839-2.652 6.641-2.314 7.11-2.226 7.727-2.127 7.992-1.652 7.629-1.016 9.02-.416 9.992.117 9.227 1.197 8.13 3.6 6.845 5.349 6.196 6.236 2.325 7.41-.318 8.417.458 8.94.442 8.047-.048 7.738-.764 7.675-1.407 9.772-3.226 9.598-3.82 6.814-3.095 10.752-4.994 10.974-5.147 7.515-3.896 7.13-4.008 8.52-4.855 9.94-5.826 7.77-4.537 6.75-4.115 8.981-5.785 8.563-5.333 6.779-3.85 7.084-3.718 9.215-4.567 10.192-5.352 7.848-4.326 6.63-3.392 7.073-3.484 7.513-3.715 8.483-4.082 9.736-4.24 9.14-3.971 8.419-4.437 7.496-4.255 8.268-3.856 10.42-4.34 10.61-4.612 10.677-4.512 8.931-3.767 8.006-4.083 4.43-2.398a6.35 6.35 0 0 1 5.051 11.65l-4.708 1.66-8.41 3.188-8.524 3.83-10.003 5.284-10.237 5.876-8.786 4.68-8.417 3.047-9.504 3.398-8.89 4.06-8.716 4.307-8.992 4.877-8.199 4.684-7.419 4.118-6.834 3.67-6.286 3.397-8.388 4.476-10.557 5.15-8.625 4.23-9.494 5.535-9.25 5.895-7.903 5.029-9.407 5.22-9.899 5.24-10.465 5.369-8.494 4.317-7.343 4.235-7.98 4.455-7.818 3.869-7.063 3.495-6.72 3.314-7.092 3.306-7.314 3.166-7.159 2.625-7.421 2.11-8.769 1.986-8.77 1.3-8.642.647-9 .49-11.243.49-11.741-.549-7.817-3.31-5.096-5.217-4.334-6.203-3.924-7.444-2.476-8.317-.376-9.162.633-9.703 1.104-10.872 1.423-10.027 1.564-8.179 1.839-8.315 1.972-8.322 3.582-11.323 4.753-12.251 5.196-10.63 4.961-9.083 4.205-7.113 6.213-8.596 9.27-8.426 10.737-4.9 9.636-2.166 7.625-.771 8.807-.04 9.492.427 7.713 1.443 8.042 3.189 8.852 5.554 8.378 7.024 6.747 5.836 7.355 5.89 9.747 8.519 9.471 9.546 6.984 7.819 6.24 6.922 6.464 7.05 6.416 6.662 6.43 6.718 5.793 7.017 6.1 8.349 6.068 8.178 4.995 6.404 4.636 6.125 4.672 6.488 4.011 6.129 4.096 6.183 5.989 9.231 6.368 9.83 6.11 9.803 6.423 10.39 7.162 9.323 8.832 8.916 7.307 6.226 6.987 5.14 9.27 5.86 8.658 5.75 6.483 6.29 4.854 6.293 4.857 6.941 4.074 5.941 1.29 1.852a7.693 7.693 0 0 1-12.233 9.333m53.389-237.406.995 2.71 1.08 7.43.121 8.908-.072 9.09-.09 9.082.482 9.251.76 8.27.293 3.202a6.69 6.69 0 0 1-13.341.997l-.185-3.21-.2-8.73-.051-9.682-.237-8.993-.33-8.932-.331-8.055-.613-5.763-.408-1.807a6.35 6.35 0 0 1 12.127-3.768"></path><path fill="currentColor" d="m-124.855-1103.528-.075 3.144.178 6.88 1.683 8.203 3.174 7.645 3.844 5.906 2.544-1.835 1.706-8.711 1.494-8.222.236-4.074a9.366 9.366 0 0 1 18.73.165l-.421 5.533-1.584 8.838-1.824 7.002-3.11 8.279-5.302 7.214-6.593 4.294-7.247 1.04-6.384-2.71-5.102-5.183-4.129-6.243-3.696-7.635-2.933-8.959-1.437-9.382-.374-8.045-.076-3.144a8.349 8.349 0 0 1 16.698 0m23.151 18.33-3.436-.39-7.577-.456-7.702.655-8.285 3.842-4.724 3.122a8.874 8.874 0 0 1-10.665-14.185l4.783-3.642 9.482-5.501 8.894-2.408 8.48-.535 8.514.444 4.232.43a9.366 9.366 0 0 1-1.996 18.625M-175.372-1053.35l2.285.9 5.706 2.394 6.358-.668 6.38-3.817 7.462-3.306 9.12.343 7.306 4.899 4.427 5.772 7.349 4.41 5.123 1.538a9.043 9.043 0 0 1-.646 18.074l-2.284-.036-5.824-.276-7.739-2.351-6.864-5.593-2.774-7.428-3.25-2.458-6.491 3.157-8.565 3.697-8.794 1.59-6.648-1.96-5.366-2.39-2.295-.866a8.373 8.373 0 0 1 6.024-15.624M-44.15-1031.02l4.926.24 9.234.318 8.317.098 7.822.011 7.56-.024 9.965-.147 9.851-.323 9.296.045 10.903 1.436 10.219 1.696 10.21.758 5.23.261a7.679 7.679 0 0 1-.815 15.336l-5.474-.308-11.476-1.004-10.975-1.907-9.229-1.743-7.889-.723-9.85-.323-9.966-.148-7.56-.023-7.821.01-8.317.099-9.235.319-4.926.24a7.097 7.097 0 0 1 0-14.195M-22.594-1082.17l4.324.142 8.365.212 8.143.136 10.608-.005 10.386-.035 7.626.049 7.399.012 7.237-.008 8.856-.16 10.603-.26 11.165-.142 5.832-.033a7.314 7.314 0 0 1 0 14.627l-5.832-.034-11.165-.14-10.603-.262-8.856-.16-7.237-.008-7.4.012-7.625.05-10.386-.036-10.608-.005-8.143.136-8.365.212-4.324.142a7.22 7.22 0 0 1 0-14.442"></path><path fill="#1d1d1d" d="m-44.71-1022.207 4.614.174 8.773.238 8.279.33 8.577.607 8.358.478 7.909.563 9.695.964 10.578 1.123 8.55 1.015 7.76.971 8.114.967 9.832.563 9.27.217 8.002.314 4.548.233a7.277 7.277 0 0 1-.012 14.555l-4.548.226-8.007.3-7.259.213-8.108.063-7.723-1.03-7.006-1.769-7.242-1.555-8.433-1.646-10.114-1.771-8.842-1.298-7.53-.572-8.534-.287-8.234-.361-7.881-.15-8.772.238-4.614.174a7.044 7.044 0 0 1 0-14.087M259.58-1373.748l-1.77 4.544-4.539 11.173-4.78 10.118-5.106 7.116-6.29 7.08-6.842 6.896-8.262 6.809-9.435 6.485-9.947 6.217-10.98 6.356-10.719 5.86-9.524 4.848-8.425 4.09-7.297 3.62-6.99 3.315-7.025 2.852-8.149 2.496-10.721 1.71-13.538.763-13.895.34-12.114.144-10.394.012-9.417-1.535-8.534-4.306-6.555-5.17-6.128-7.602-4.765-10.994-1.703-12.053-.217-10.34.967-8.178 2.772-8.66 3.525-7.694 4.471-8.131 2.933-4.97a7.244 7.244 0 0 1 11.43 8.903l-1.554 1.63-4.101 6.336-4.575 10.978-2.07 12.963.18 11.606.99 8.314 3.961 7.65 8.623 7.929 9.883 3.878 10.021.002 11.957-.518 13.448-.825 12.356-1.286 9.5-1.897 7.53-2.105 6.645-2.164 7.015-2.733 7.49-3.085 8.225-3.586 9.146-4.739 10.278-6.01 10.357-6.549 9.135-6.468 8.157-6.485 6.964-6.533 6.069-6.852 5.21-6.285 4.001-5.744 4.264-8.862 3.862-10.543 1.313-4.697a7.212 7.212 0 0 1 13.683 4.566m-208.742 22.843-2.408-2.159-7.078-5.23-8.026-5.556-7-6.048-8.17-8.696-9.216-10.524-9.653-11.827-10.423-13.439-10.214-13.08L-31-1440.3l-8.267-12.128-5.82-10.804-4.17-11.47-2.692-11.986-1.191-12.316 1.279-13.507 6.459-16.299 11.526-18.162 14.304-17.053 19.548-17.622 24.142-18.916 25.481-17.874 24.462-15.129 19.42-11.07 18.727-10.34 10.618-5.863a4.213 4.213 0 0 1 4.073 7.376l-10.618 5.863-18.64 10.294-19.162 10.922-24.036 14.851-25.117 17.62-23.647 18.492-18.786 16.843-13.625 16.169-10.793 16.61-5.895 14.124-1.165 11.859 1.103 11.232 2.46 10.858 3.772 10.246 5.505 9.883 8.188 11.557 9.813 12.448 10.596 12.758 10.676 12.697 9.984 10.828 9.72 9.322 7.925 7.063 6.302 4.745 8.473 5.518 8.199 6.426 2.835 2.968a7.244 7.244 0 0 1-10.128 10.36M471.64-1300.974l4.104 2.814 8.272 5.34 8.197 4.707 9.399 4.617 10.102 4.464 10.767 3.752 13.285 3.181 13.878 2.298 12.802 1.337 11.6.528 10.473-.989 9.552-2.817 8.893-4.174 9.383-5.689 9.38-6.844 7.888-7.012 6.559-7.281 5.905-8.126 6.176-10.29 6.442-12.61 5.417-13.795 4.265-16.359 3.1-17.962 1.65-16.764.072-13.345-1.278-8.804-2.16-6.93.625-9.351 5.013-8.376 8.224-5.592 10.39-6.51 9.54-6.654 7.831-6.89 5.91-7.62 4.376-10.106 3.238-14.53 2.001-19.07 1.197-18.197-4.347-24.645-12.105-32.742-17.184-29.91-20.297-25.989-20.162-19.914-17.236-13.544-12.931-8.66-12.746-7.808-7.313-4.482a4.222 4.222 0 0 1 4.41-7.201l7.316 4.477 12.996 7.96 13.46 9.022 17.957 14.161 20.94 20.726 21.01 26.995 17.843 31.182 12.578 34.734 4.606 26.1-1.079 18.681-2.004 20.188-3.598 16.356-5.26 11.991-6.884 9.079-8.309 7.972-9.5 7.516-9.702 7.203-8.045 5.395-2.808 5.973 1.068 7.879.881 9.861-.07 14.229-1.7 17.392-3.224 18.73-4.512 17.3-5.668 14.603-6.646 13.227-6.531 11.034-6.548 8.866-7.32 7.786-8.542 7.47-10.014 7.407-10.237 6.17-10.13 4.51-11.123 3.095-11.656 1.195-12.151-.377-13.355-1.16-14.613-2.095-14.372-3.023-11.55-3.557-10.827-4.15-10.24-4.428-8.827-4.555-8.906-4.878-4.315-2.478a6.626 6.626 0 0 1 7.054-11.22M229.932-1726.01l1.062-5.213 2.286-10.855 2.296-10.806 2.288-11.161 2.714-11.867 2.795-11.727 2.618-11.241 2.818-11.165 2.795-11.54 2.557-12.034 2.416-12.484 2.44-13.166 3.074-14.678 3.717-14.926 4.394-15.39 5.251-15.844 5.877-15.35 7.218-16.374 9.344-17.923 10.705-19.135 11.091-18.77 11.708-18.005 11.111-16.24 9.717-13.389 9.36-11.826 8.264-9.69 5.85-7.014 5.009-5.731 7.589-6.38 9.07-6.105 9.307-4.981 11.1-5.238 13.161-5.609 14.911-5.61 16.104-5.846 16.021-5.407 14.863-4.547 14.579-4.056 14.233-3.42 13.487-2.864 12.329-2.81 10.59-2.703 8.304-2.255 8.469-2.441 9.548-2.076 8.835-1.597 4.395-.952a6.725 6.725 0 0 1 2.164 13.275l-5.076.592-9.109.584-8.863.534-8.27 1.092-8.332 1.618-10.75 2.585-12.462 2.864-13.263 2.843-13.916 3.379-14.351 4.05-14.605 4.542-15.779 5.436-15.937 5.94-14.43 5.625-12.712 5.713-10.61 5.349-8.5 4.54-8.11 5.53-6.995 5.657-5.297 4.807-6.143 6.58-8.078 9.43-9.143 11.545-9.583 13.202-10.993 16.067-11.524 17.706-10.983 18.596-10.581 18.902-9.098 17.424-7.055 16.006-5.741 14.995-5.126 15.493-4.303 15.127-3.615 14.602-2.998 14.497-2.4 13.233-2.375 12.647-2.509 12.277-2.675 11.634-2.6 11.026-2.38 11.309-2.429 11.662-2.198 11.717-1.793 11.234-1.603 10.768-1.346 10.894-.583 5.288a6.383 6.383 0 0 1-12.613-1.975"></path><path fill="#1d1d1d" d="m269.2-1668.037-.035-2.688.071-6.672.201-8.028.109-7.587.087-7.575.38-11.498 1.313-12.99 1.983-10.717 1.69-11.078 1.165-12.066 1.026-11.562.891-10.548.505-10.346.265-10.222.102-9.965-.014-9.593.117-8.903.286-8.224.379-9.902.506-11.261.988-10.483 1.921-10.145 2.113-8.43 1.856-8.143 1.899-8.734 1.828-7.435 1.794-6.771 2.34-7.659 3.254-9.772 3.2-8.746 2.914-6.494 3.832-6.985 5.397-9.184 5.78-10.408 5.522-9.998 5.426-9.197 4.64-7.986 5.256-8.478 5.635-7.553 7.226-7.958 9.43-10.013 8.258-9.104 7.402-7.756 8.378-6.567 9.383-5.832 8.481-4.936 7.983-3.933 8.918-4.247 7.71-3.925 6.45-3.08 9.512-4.439 9.739-4.521 10.738-4.769 11.232-4.882 7.174-3.385 6.9-3.14 7.552-3.098 8.08-3.225 8.485-3.173 8.41-3.027 7.582-2.897 9.44-3.804 10.61-3.506 9.126-2.438 9.315-2.836 9.391-2.872 8.64-2.758 11.119-3.655 11.007-3.343 7.451-2.025 8.364-2.01 4.743-1.052a5.914 5.914 0 0 1 2.848 11.48l-4.684 1.288-8.225 2.106-7.328 1.792-10.743 2.887-11.075 3.273-8.595 2.803-9.173 3.192-9.595 3.534-8.945 2.914-9.922 3.111-9.395 3.32-7.685 2.936-8.141 3.151-8.088 3.336-8.011 3.535-7.13 3.023-6.556 2.951-7.395 3.726-10.82 5.412-10.272 5.22-9.54 4.85-12.186 6.304-11.385 6.11-8.994 4.283-7.266 3.308-7.921 4.392-8.078 4.703-7.002 5.023-7.113 7.1-8.287 9.204-6.868 7.638-6.287 7.312-6.835 8.882-5.145 8.019-4.96 7.964-5.336 8.55-5.494 9.615-6.01 10.702-4.913 8.9-4.107 9.055-3.317 8.976-2.475 7.78-3.174 9.363-2.755 8.306-2.283 7.323-2.382 8.587-2.065 8.139-2.177 8.088-2.296 8.972-1.754 9.909-1.58 10.91-1.18 9.392-.749 7.925-.488 8.605-.175 9.646-.182 10.06-.234 10.39-.372 10.658-.653 10.54-.575 11.568-.503 12.68-.922 11.394-.94 10.292-.58 12.212-.146 11.063.087 7.575.109 7.587.201 8.028.07 6.672-.035 2.688a7.334 7.334 0 0 1-14.668 0"></path><path fill="#1d1d1d" d="m302.667-1625.901.045-3.83.182-11.452.327-12.567.258-9.447.26-9.747.14-9.295.052-9.024.218-10.13.19-10.266.053-9.752.006-9.565-.06-9.097-.188-8.105-.387-9.3.103-9.476.988-8.195 1.252-9.582.894-9.293.446-7.467.668-8.27 1.081-9.017 1.381-10.68 1.543-12.002 1.493-9.07 1.526-7.005 1.601-7.156 1.598-6.864 2.318-9.473 2.756-10.628 2.996-9.198 4.374-9.233 4.138-7.868 3.293-6.86 4.503-8.135 5.127-8.984 4.633-8.257 4.581-7.392 5.662-8.466 6.578-8.207 6.596-6.09 7.858-5.585 7.613-4.402 6.902-4.018 7.33-4.906 6.422-4.572 6.086-4.58 7.44-6.016 8.806-6.74 9.445-6.299 10.912-6.141 9.801-4.863 7.502-3.553 8.86-4.712 10.23-5.489 8.865-4.833 7.246-3.873 8.185-3.68 8.533-4.075 9.42-4.08 11.089-4.513 8.873-3.572 9.346-3.406 9.469-3.5 7.786-2.457 7.875-2.528 7.301-2.693 7.311-2.76 11.553-4.684 12.39-5.301 8.267-3.657 8.727-3.53 4.922-1.88a5.608 5.608 0 0 1 4.358 10.334l-4.78 2.213-8.343 3.67-7.97 3.738-12.505 6.22-11.739 5.41-7.275 2.92-7.64 3.092-7.756 2.935-7.425 2.8-9.584 3.837-11.36 4.513-11.417 4.727-9.918 4.12-8.808 3.725-9.793 4.413-9.302 4.648-9.11 4.582-10.21 5.195-9.06 4.979-7.19 4.007-7.027 4.03-7.902 4.709-8.35 5.377-7.874 5.795-8.205 6.683-7.514 6.057-6.233 4.453-7.054 4.773-9.133 5.804-8.705 5.273-7.708 5.707-7.106 6.958-5.78 7.33-4.467 6.72-4.282 7.149-5.094 8.83-4.853 8.529-3.85 7.155-3.93 7.169-4.263 7.182-3.464 7.602-3.042 9.315-3.107 11.189-2.378 9.621-2.245 10.253-2.508 12.47-2.087 11.54-1.543 9.997-.708 8.602-.45 8.152-.429 7.898-1.269 9.846-1.643 9.429-.997 7.294-.718 8.802-.387 9.295-.188 8.105-.06 9.097.006 9.565.053 9.752.19 10.266.218 10.13.052 9.024.14 9.295.26 9.747.258 9.447.327 12.567.182 11.453.045 3.829a6.97 6.97 0 0 1-13.94 0"></path><path fill="#1d1d1d" d="m341.237-1619.913.278-5.56.455-10.916.34-11.06.281-11.522.208-12.652.15-12.33.11-11.277-.05-10.528-.307-8.258-.257-8.674.476-10.083 1.076-9.177 1.779-9.783 2.915-12.108 2.65-10.303 2.007-7.856 1.983-8.095 1.755-8.01 1.59-8.27 1.78-8.99 1.915-9.128 2.108-10.5 2.457-11.242 2.021-9.017 2.305-7.772 3.567-8.678 4.193-8.211 4.629-8.435 4.916-8.751 4.928-7.191 5.052-6.784 5.498-6.276 6.878-6.425 7.52-6.61 8.123-6.996 8.3-7.213 7.403-6.187 7.403-5.563 6.695-4.964 6.509-4.858 6.244-5.53 5.708-6.26 6.331-5.963 7.678-5.619 8.858-6.001 10.067-6.643 9.94-5.538 7.47-3.6 7.678-3.757 8.327-4.036 8.092-4.058 7.443-3.661 7.429-3.791 9.584-4.291 8.717-3.212 6.994-2.565 7.715-3.167 8.222-3.66 9.094-3.77 8.362-2.74 7.416-1.672 7.553-1.823 7.127-2.601 7.52-2.907 10.92-4.303 7.08-2.911a6.982 6.982 0 0 1 5.64 12.775l-3.998 1.953-7.234 3.407-6.517 2.82-7.392 3.515-8.515 3.991-8.266 2.47-7.232 1.292-6.712 1.751-8.539 3.575-9.523 4.238-8.188 2.828-7.843 2.056-8.099 2.21-8.243 2.863-7.273 3.168-7.035 3.64-7.892 4.566-7.875 4.621-7.48 4.42-9.396 5.629-8.504 5.596-7.018 5.263-8.081 5.81-6.583 4.936-5.226 4.745-5.078 5.53-5.76 5.38-6.568 5.089-6.82 5.078-6.94 5.164-7.48 6.056-7.035 5.993-6.98 5.987-7.896 6.71-7.277 6.206-5.596 5.47-4.717 5.849-4.594 6.5-4.175 6.3-3.62 6.563-4.46 7.413-4.227 7.157-3.108 6.434-2.815 6.477-2.715 8.01-3.06 10.44-2.343 10.07-1.557 8.994-1.396 9.082-1.406 8.662-1.589 8.303-1.714 8.29-1.748 8.107-2.557 10.298-2.914 11.589-2.236 9.367-1.998 8.317-1.702 8.879-.911 8.328-.306 8.257-.052 10.528.11 11.277.15 12.33.208 12.652.283 11.522.339 11.06.454 10.917.279 5.56a6.328 6.328 0 0 1-12.657 0"></path><path fill="#1d1d1d" d="m367.217-1621.55.062-4.126 1.006-9.31 2.08-10.157 2.853-10.418 2.914-10.081 2.176-8.877 1.973-8.65 1.929-8.717 1.852-8.579 1.74-8.168 1.553-7.244 1.49-6.723 1.71-8.6 1.74-10.411 1.255-9.985 1.644-11.342 2.009-10.433 1.247-7.32.785-9.314.568-10.333.866-9.354 1.4-9.294 1.593-8.536 2.135-9.176 2.75-10.264 3.445-10.16 4.728-9.78 5.488-8.867 5.937-8.117 7.33-8.282 8.012-8.075 6.281-6.735 5.344-5.99 6.426-6.928 6.249-6.835 6.391-6.464 8.606-7.955 7.949-6.822 6.99-5.408 6.28-5.98 5.15-5.736 8.6-6.902 9.762-6.485 8.411-4.847 9.021-4.75 9.014-4.741 8.195-4.59 7.624-4.304 8.52-5.247 8.228-5.4 8.056-4.265 9.84-4.32 8.57-3.404 7.708-2.608 9.096-3.254 10.906-3.786 9.889-2.996 7.25-1.877 7.219-2.138 8.218-2.286 8.051-1.493 3.486-.44a8.063 8.063 0 0 1 1.687 16.038l-2.1.197-6.492.626-8.54 1.548-7.588 2.114-6.844 2.045-6.84 2.282-7.805 2.703-7.707 2.548-7.504 2.266-9.575 3.178-10.423 3.917-8.423 3.284-7.403 3.57-7.004 3.849-6.651 3.622-7.452 4.252-8.069 4.956-8.52 5.403-8.092 5.292-7.328 5.199-6.714 5.257-7.269 5.984-7.52 7.161-7.349 6.743-8.642 7.087-8.94 8.59-7.034 7.035-5.917 5.977-6.55 7.081-5.999 6.334-5.736 6.037-7.163 7.476-7.287 7.795-6.017 7.434-4.998 7.29-4.222 7.247-3.466 8.442-2.922 9.514-2.395 9.459-2.045 8.197-1.997 8.17-1.343 8.856-.908 8.777-.825 8.24-.689 7.587-1.098 7.781-1.753 10.167-1.828 11.106-1.89 10.097-2.616 10.897-3.323 12.064-2.808 10.325-1.922 8.085-1.954 8.587-2.005 8.795-2.085 8.739-2.207 9.043-2.314 9.92-1.948 9.962-1.334 9.026-.497 8.313.062 4.113a6.73 6.73 0 0 1-13.46 0"></path><path fill="#1d1d1d" d="m109.787-1751.223 4.704.225 8.19.224 9.537-.076 9.577-.058 7.28.324 9.074 1.08 9.67 1.776 8.765 1.864 8.834 2.112 8.202 3.114 7.322 4.712 7.416 6.802 6.978 7.067 5.706 6.057 4.918 5.884 3.742 6.405 2.984 7.655 2.953 7.98 2.458 7.569 1.886 8.366.826 4.581a8.659 8.659 0 0 1-17.21 1.933l-.137-2.523-1.106-6.479-2.342-7.817-2.832-7.863-3.973-8.296-5.748-8.016-6.96-7.43-7.276-7.196-7.602-5.508-8.2-3.217-8.472-2.228-8.48-2.174-9.652-1.787-9.026-.63-9.575-.059-9.537-.076-8.19.225-4.704.224a7.373 7.373 0 0 1 0-14.746m121.376 76.034 5.28-.46 9.266-.982 7.49-1.126 8.593-1.347 9.443-.908 8.763 1.235 7.518 4.01 5.445 5.24 4.818 6.083 5.558 8.305 4.293 8.211 2.789 7.927 2.958 8.286 2.965 7.878 2.78 9.092 1.2 4.935a8.767 8.767 0 0 1-16.981 4.367l-.65-2.961-1.541-6.78-2.207-7.378-2.751-7.612-3.06-8.47-3.475-7.392-4.46-6.947-5.802-7.93-6.99-4.185-8.223.314-8.047 1.374-7.664 1.765-9.634 1.79-5.59.857a8.659 8.659 0 0 1-2.084-17.191m75.412 61.546 3.695-2.617 8.162-5.465 8.423-5.824 8.308-5.975 8.628-6.325 7.23-5.255 9.166-4.068 10.21-2.942 8.903-1.702 8.635-1.377 8.163 1.189 7.802 4.459 3.366 2.791a8.004 8.004 0 0 1-10.424 12.15l-1.737-1.513-5.36-2.803-8-.748-10.927 2.251-10.647 3.4-8.513 4.687-8.14 6.12-7.545 6.845-7.917 7.513-7.532 6.517-3.436 2.725a8.767 8.767 0 0 1-10.513-14.033M680.788-1794.142l-5.66-.372-10.284-.477-8.303-.058-9.735.185-14.308-.04-13.163.27-10.534 1.946-11.499 3.342-10.755 3.777-9.078 3.863-7.568 3.961-7.447 5.263-7.078 6.654-5.377 6.31-5.001 5.975-5.076 6.267-6.394 9.72-5.388 9.755-2.461 9.287-1.237 10.337-1.736 10.005-5.99 8.233-7.348 4.633-7.08 6.204-6.101 7.18-4.238 7.407-5.063 10.752-5.043 12.998-4.134 13.017-3.353 12.959-2.842 12.327-2.49 11.285-1.795 9.21-1.02 8.188-.804 8.33-.845 10.893-.45 6.976a5.791 5.791 0 0 1-11.527-1.126l.928-7.137 1.582-10.866 1.236-8.644 1.567-8.57 2.036-9.127 2.185-11.406 2.46-12.64 2.9-13.583 3.54-13.832 4.329-14.134 4.416-12.224 6.883-12.181 7.444-9.587 5.439-4.669 6.948-5.023 4.809-7.383 1.302-8.351 1.754-7.756 2.806-7.411 5.96-10.96 6.888-11.021 5.156-6.548 5.07-6.093 6.83-6.965 9.362-6.943 8.946-5.047 8.253-3.889 9.474-4.07 11.097-4.4 12.37-4.252 11.994-2.974 13.903-1.161 14.356-.115 9.735.185 8.303-.057 10.283-.477 5.66-.372a7.123 7.123 0 0 1 0 14.247M394.555-1769.373l5.301.32 10.52.548 8.827.036 7.434-.319 9.455-.41 10.545-.491 10.865.454 10.978 1.966 9.996 3.768 8.424 5.527 5.813 5.549 4.791 5.883 4.075 6.914 3.276 7.072 1.633 3.556a8.38 8.38 0 0 1-15.264 6.918l-.926-2.036-2.712-6.303-3.932-7.629-5.196-6.718-6.186-5.184-7.248-3.147-8.77-2.08-9.527-.918-10.432-.296-9.303-.098-7.569.114-9.047.303-10.52.548-5.3.32a7.084 7.084 0 0 1 0-14.167M505.935-2162.026l-1.303-4.379-2.84-7.957-3.109-7.252-3.164-7.297-4.179-8.863-4.558-9.514-3.297-7.851-2.509-7.275-2.23-7.719-1.816-8.6-1.073-8.01-.416-7.094-.141-7.32-.215-7.554.003-7.672.753-7.822 1.897-9.252 3.37-10.874 3.643-9.054 4.305-9.238 4.3-9.041 4.667-9.167 4.721-9.226 3.828-6.844 4.566-7.214 5.175-7.423 5.08-7.327 4.797-6.863 5.1-6.401 7.36-7.625 9.617-8.004 9.158-5.938 8.396-4.275 8.508-3.273 10.528-2.686 11.56-2.04 11.492-1.203 10.239-.266 9.311.477 10.152 1.039 10.772 1.821 11.274 2.795 10.263 3.143 8.96 2.84 8.376 2.83 7.942 3.05 7.512 3.162 7.18 3.208 6.966 3.41 7.65 4.4 8.213 5.33 8.414 6.022 8.374 6.525 8.69 7.267 9.15 8.05 8.641 7.979 8.26 7.924 8.195 8.164 7.903 8.46 7.87 9.338 7.47 9.56 6.637 8.735 6.04 8.072 5.302 7.645 5.123 7.654 5.18 8.581 5.069 9.272 4.748 8.457 4.313 7.664 4.068 7.407 4.007 7.957 3.968 8.441 3.806 7.882 3.462 8.438 3.14 8.499 3.22 8.513 3.091 9.669 2.586 10.43 2.26 11.162 2.152 11.258 2.103 9.858 2.073 9.099 2.032 8.756 1.993 8.719 1.948 9.97 1.97 11.38 2.03 12.257 1.764 11.48 1.292 10.14 1.21 8.689 1.172 7.956.82 8.097.551 7.742.292 8.193.083 9.04-.048 8.485-.749 8.157-1.616 8.12-2.166 7.777-2.294 7.35-2.545 7.325-3.73 9.812-3.703 10.422-3.307 8.116-4.245 7.026-6.706 7.056-7.067 5.861-6.228 4.331-6.996 4.152-7.85 3.923-8.206 3.736-7.762 3.299-7.77 2.81-8.648 2.388-9.803 2.1-9.553 1.946-8.4 1.902-7.236 1.742-8.98 1.69-9.962 1.296-9.393.72-10.194-.354-8.43-1.66-6.858-2.45-7.07-3.093-7.137-3.937-7.317-5.024-7.712-6.264-7.511-6.094-7.584-5.497-8.038-5.642-7.431-5.062-6.495-4.452-7.58-5.197-8.113-5.91-6.667-5.555-5.931-5.342-5.215-5.27-5.303-6.35-5.332-7.598-4.891-9.452-5.202-10.848-5.578-10.18-5.41-8.976-4.207-6.877-1.625-2.75a7.794 7.794 0 0 1 13.3-8.131l1.707 2.699 4.225 6.857 5.671 9.398 6.242 10.753 5.38 10.385 4.06 7.899 3.822 5.794 4.297 5.966 4.916 6.185 5.223 5.836 5.112 5.394 6.856 6.056 7.057 5.661 6.107 4.513 7.388 4.952 8.457 5.323 8.327 5.388 7.852 5.502 10.329 6.844 9.676 5.37 8.934 3.297 11.05 2.663 10.08.877 9.41.025 10.537-.917 9.764-1.686 8.399-1.929 9.238-2.341 9.071-2.542 7.776-2.43 6.946-2.591 7.168-3.305 7.482-3.95 9.642-5.843 8.601-6.075 7.047-5.968 6.87-7.289 4.28-7.671 4.317-10.163 3.952-9.501 2.548-6.969 2.361-6.944 2.835-10.24 1.876-10.563.174-8.163-.128-8.9-.079-7.991-.1-7.437-.328-7.73-.618-8.003-.718-8.693-1.107-9.762-1.955-11.272-2.385-12.098-2.321-11.178-2.101-9.837-1.753-8.764-1.749-8.845-1.806-9.173-2.041-9.885-2.507-11.017-2.66-10.647-2.783-9.697-3.205-9.142-3.331-8.653-2.911-8.15-3.15-7.921-3.683-7.98-3.848-8.265-3.736-7.832-3.67-7.492-3.891-7.72-4.64-8.505-4.997-8.892-5.015-8.378-4.782-7.785-4.64-7.565-5.68-8.085-6.535-8.636-7.303-9.243-7.646-8.935-7.764-8.114-8.187-7.887-8.284-7.588-8.666-7.52-9.29-7.52-8.633-6.71-8.25-5.864-8.317-5.373-7.958-4.776-7.227-4.08-6.489-3.456-6.834-3.345-7.068-3.269-7.367-3.107-8.03-2.899-8.637-2.767-9.535-2.47-10.518-1.634-10.027-.777-9.454-.055-11.412.48-11.678.813-10.897 1.524-10.105 2.054-9.593 2.801-9.211 3.74-8.194 4.619-8.48 6.26-6.577 6.325-4.553 5.625-4.508 6.718-4.701 7.56-4.47 7.256-3.877 6.774-3.329 6.482-4.489 9.264-4.406 9.19-3.94 8.95-4.784 11.587-3.587 10.256-2.25 8.566-1.512 8.5-.568 8.289.155 7.344.7 9.573 1.421 12.171 1.996 9.932 2.326 8.55 2.61 8.51 3.878 9.465 4.153 9.3 3.275 7.227 3.54 7.687 3.584 8.37 1.65 4.263a7.215 7.215 0 0 1-13.654 4.667"></path><path fill="#1d1d1d" d="m577.947-2187.82 3.47.091 9.38.403 10.1 1.165 8.29 2.152 7.725 2.593 8.096 3.24 7.748 4.022 6.745 4.465 6.875 4.764 7.287 5.082 6.327 5.371 5.882 6.318 6.412 7.469 5.106 6.777 3.942 6.038 3.413 6.882 3.045 7.813 2.891 8.21 2.732 7.919 2.547 7.19 2.613 7.49 2.451 8.697 1.292 8.953.191 8.45-.033 7.776-.044 8.382v8.653l-.015 8.844-.028 4.974a9 9 0 0 1-18 0l-.034-3.686-.027-7.903.02-8.087-.029-7.755-.064-8.451-.02-8.568-.642-7.47-1.674-7.007-2.347-7.106-2.712-7.424-2.869-7.823-2.899-7.656-3.245-7.695-4.349-7.504-4.517-6.484-4.562-5.647-4.733-5.42-5.225-5.269-6.287-4.908-6.527-4.833-7.668-5.245-8.335-4.628-7.496-3.11-8.305-2.692-9.869-1.647-8.556-.154-3.469.091a8.051 8.051 0 0 1 0-16.102"></path></symbol><symbol id="icon-test2" viewBox="1852.701 -2786.139 782.198 2709.256"><path fill="#1d1d1d" d="M2165.523-1862.631a2.652 2.652 0 1 1 5.305 0 2.652 2.652 0 1 1-5.305 0M2132.977-2197.577l.066 5.63.632 10.306 1.338 9.443 3.039 14.331 4.167 15.055 3.314 8.816 2.963 6.629 3.109 7.023 3.013 7.336 2.732 7.327 3.392 9.308 3.72 9.77 3.145 7.359 3.1 6.326 3.702 6.346 4.716 6.543 5.89 8.019 6.09 9.047 7.002 8.817 7.117 7.196 5.836 5.017 10.227 5.149 13.346 4.07 11.773 1.947 11.964.807 12.573-1.1 12.866-3.243 13.233-5.087 12.646-6.044 11.539-6.077 9.878-5.451 8.712-5.467-.347-5.9-10.928-4.402-11.892-2.537-9.702-1.356-8.659-.673-12.82-.623-14.665-.382-12.57.527-12.744 1.092-12.435 1.259-9.724 1.699-8.032 2.936-6.737 6.123-3.97 7.817-2.222 7.826-1.282 8.808-.29 9.143.143 9.273.212 9.229.322 8.433 1.679 7.504 3.794 6.565 6.326 5.481 7.36 3.784 7.533 3.348 7.714 3.232 7.424 2.376 7.676 2.248 8.256 2.13 8.568 1.855 8.183 1.3 7.677.598 8.434.25 10.31.211 11.052.2 9.856-.142 7.753-1.176 7.263-4.536 8.605-7.157 7.908-5.315 8.898-4.62 10.359-4.935 8.518-3.263 7.486-2.011 7.06.216 6.029 4.457 3.263 7.745.807 10.247-.784 10.209-2.207 9.84-3.387 10.252-3.676 7.783-4.864 6.165-6.522 4.22-9.308 2.135-11.472 1.416-9.427.684-7.741-.293-7.506-2.921-5.095-5.95-3.076-5.937-1.664-2.355a9 9 0 0 1 15.101-9.797l1.375 2.245 2.77 5.383 5.023 3.083 8.28-.447 9.507-1.27 8.214-3.508 4.955-6.085 2.776-8.311 1.485-10.612 2.477-9.266-1.165-2.772-7.028 1.911-8.616 3.737-9.436 5.167-8.812 6.088-7.116 6.52-8.07 5.42-9.043 3.069-8.981.982-10.785.382-11.08.178-10.387.143-10.581-.066-9.313-.62-7.043-1.304-7.791-1.56-7.887-1.804-8.318-2.385-8.172-2.187-6.96-2.67-7.603-3.62-8.273-3.504-7.707-4.09-6.31-5.277-4.687-5.879-3.28-6.6-2.391-6.93-1.075-8.452-.023-9.586.265-9.32.423-9.815.759-8.38 1.564-7.94 2.928-9.597 4.594-9.532 6.894-8.04 9.825-5.308 9.97-2.368 10.252-1.545 12.532-1.518 13.083-1.445 13.184-1.013 15.008-.234 13.35.168 9.092.72 10.257 1.094 12.764 1.569 11.543 2.04 9.236 3.226 5.53 6.822-.39 8.298-4.618 6.16-7.931 4.834-9.302 4.589-9.993 5.4-11.768 6.365-13.232 6.519-14.19 5.696-14.242 3.873-14.007 1.705-12.925-.14-12.884-1.154-16.595-4.23-13.32-5.983-6.915-5.373-6.056-5.438-6.423-7.327-6.705-9.345-5.183-7.928-4.061-6.398-3.985-7.228-3.653-7.384-3.072-6.732-3.462-7.817-3.743-10.253-2.912-9.384-2.367-7.05-2.678-7.206-2.826-7.255-2.58-7.062-3.505-9.275-4.947-15.842-3.581-14.916-1.916-10.024-1.652-10.679-.754-5.58a6.883 6.883 0 0 1 13.73-1.006m202.568 283.015-3.855-1.18-8.545-1.992-10.54-1.23-11.043-.21-10.461 2.417-10.66 5.89-8.87 6.732-5.484 6.198-3.306 6.872-1.579 7.183-1.724.354 3.703-2.33 10.924 1.66 9.358 1.261 9.914.687 12.32.182 10.843-1.888 9.062-5.096 5.723-6.282 1.518-2.947a8.224 8.224 0 0 1 15.953 4.005l-3.126 5.579-6.096 8.213-7.792 5.613-8.04 4.26-10.374 2.57-13.817 1.225-10.13-.166-7.451-.253-7.973-.446-9.323-.964-10.798-2.297-7.62-5.65-1.682-8.122 2.067-9.048 3.72-9.045 4.815-6.97 6.668-6.192 6.975-5.697 6.33-4.724 6.838-4.236 7.602-3.468 7.677-2.15 9.755-.666 10.37.25 7.682.964 7.175 1.598 6.031 1.622 2.351.647a9 9 0 0 1-5.085 17.267m3.633 26.342-3.38-.598-6.055-.924-2.677-.325a8.575 8.575 0 0 1 2.658-16.942l3.105.582 6.369 1.336 3.263.755a8.224 8.224 0 0 1-3.283 16.116m-19.23-8.844-.423-2.165-.424-2.164a8.665 8.665 0 0 1 17.072-2.979l.335 2.18.334 2.18a8.575 8.575 0 0 1-16.894 2.947M2038.989-2145.26l-.07 4.35.19 9.692 1.366 11.406 2.727 12.847 3.766 15.024 4.357 16.474 4.541 16.716 4.363 15.418 3.983 12.877 3.549 11.547 2.953 11.026 2.58 10.662 2.398 10.738 2.125 10.53 1.44 10.792.962 11.333.896 10.854 1.036 9.583.975 9.255.697 8.83.622 7.757.794 8.03.886 8.123.821 11.002.52 11.03.17 7.58.166 7.128.297 8.372.489 8.268-1.176 8.455-3.628 8.713-4.299 7.515-4.607 9.03-4.395 9.224-4.604 8.371-4.853 7.335-5.44 6.54-10.543 10.612-11.51 10.599-8.143 6.745-8.047 6.843-7.103 5.907-7.478 2.577-7.49-2.836-3.974-7.044-1.328-8.424.322-12.375 2.607-13.152 4.754-10.457 6.488-10.764 7.012-10.51 6.495-9.386 5.602-8.32 4.765-7.331 4.367-6.534 4.37-6.56 4.64-6.645 4.076-5.826 1.8-2.726a7.412 7.412 0 0 1 11.455 9.41l-1.62 1.647-4.914 4.966-5.997 6.301-4.899 5.797-4.61 6.05-4.97 7.056-5.443 8.329-5.813 9.526-5.896 10.365-4.863 10.01-3.045 8.597-1.331 10.732.145 10.996 4.507 1.276 7.773-6.118 7.307-6.967 10.111-10.886 10.833-13.143 6.827-9.446 4.53-7.285 4.869-9.175 4.701-9.683 4.398-9.155 2.943-8.479.71-8.518.236-8.34.076-7.08.013-7.49-.067-10.708-.212-10.54-.62-8.307-.476-8.406-.024-7.68-.234-8.553-.565-9.224-.686-9.698-.88-10.791-1.024-10.956-1.28-10.27-1.972-10.32-2.362-10.595-2.516-10.43-2.94-10.694-3.643-11.474-4.19-13.033-4.589-15.444-4.827-16.67-4.756-16.446-4.355-15.176-3.59-13.559-2.458-12.525-.915-10.262-.07-4.351a6.47 6.47 0 0 1 12.939 0m21.395 290.932.427 3.798.633 7.288.28 8.184.086 9.696.004 10.187-.02 10.596.034 9.853.024 9.842-.059 10.938.816 10.393 2.18 10.425 2.644 9.991 2.607 7.85 6.196 3.502 10.546-6.458 8.708-10.22 5.184-6.627 4.578-8.348 3.87-9.455 1.814-7.482 1.53-11.363 1.45-11.346.45-7.079-1.51-6.74-4.06-5.868-6.232-.446-9.664 4.993-9.911 4.982-7.8 5.226-7.271 4.969-8.637 5.046-5.11 2.978a8.027 8.027 0 0 1-8.385-13.69l5.38-3.445 9.101-5.468 7.33-4.463 8.024-4.901 7.453-4.055 6.317-3.197 6.626-3.098 9.55-2.396 10.36 2.073 6.943 6.67 4.491 7.003 1.65 7.288-.514 7.733-.791 7.353-.676 8.076-1.033 10.11-2.301 10.924-3.91 9.971-4.235 8.477-4.137 6.848-5.028 7.221-6.031 8.906-6.358 8.713-8.971 5.667-9.886.703-10.265-3.338-8.21-6.95-3.036-8.389-2.497-9.182-2.785-11.35-1.802-11.811-.577-12.003-.055-10.713.055-9.503.033-9.885-.005-10.049-.053-10.48-.016-10.795-.149-9.055-.17-3.64a7.412 7.412 0 0 1 14.776-1.186M2361.104-1847.176l5.659.275 11.513 1.397 11.72 3.381 11.966 6.22 11.518 9.135 9.078 11.85 5.686 14.857 3.102 17.915 1.667 21.401-.891 24.721-5.047 26.406-10.877 29.301-16.572 30.818-19.018 27.679-21.742 24.304-22.957 20.336-20.612 14.873-19.247 10.093-17.646 6.396-14.28 3.636-10.493 1.873-11.22-1.925-10.501-8.101-4.831-11.184-.598-9.934 4.512-9.411 7.225-8.508 7.001-6.236 6.894-4.79 6.795-4.06 5.862-2.97 2.372-.918a7.076 7.076 0 0 1 3.966 13.584l-2.649.674-7.433 3.07-7.685 4.56-5.76 5.213-5.791 7.82-2.443 8.983 1.95 7.877 4.404 5.621 6.71 1.884 9.692-1.297 13.503-3.399 16.59-5.93 18.23-9.495 19.916-14.346 22.24-19.617 21.065-23.495 18.514-26.889 16.047-29.687 10.473-28.014 4.846-25.074.81-23.738-1.658-20.57-2.749-16.284-4.606-12.584-7.683-9.92-10.035-7.736-10.239-4.998-9.976-2.35-10.64-.364-5.647.276a6.303 6.303 0 0 1 0-12.606m-84.988 244.528.565 2.677 1.883 6.69 1.96 7.954.224 8.51-.42 4.565a8.245 8.245 0 0 1-16.233-2.898l.517-2.697.151-6.31-1.244-7.398-1.13-6.346-.254-2.559a7.076 7.076 0 0 1 13.98-2.188"></path><path fill="#1d1d1d" d="m2333.742-1764.558-.001 3.113-.045 6.642-.076 7.015-.058 6.973.043 6.95.496 10.51.669 12.892.4 10.387-.613 8.124-4.211 9.612-5.767 8.571-5.19 5.001-6.312 5.211-3.447 2.747a7.092 7.092 0 0 1-9.278-10.73l5.414-4.928 8.587-8.477 4.673-7.08 1.558-7.914-.008-10.034-.25-9.087-.526-7.185-.474-7.416-.16-7.153-.058-6.974-.076-7.015-.045-6.642v-3.114a7.378 7.378 0 0 1 14.755 0M2424.541-1724.563a6.501 6.501 0 1 1 13.003 0 6.501 6.501 0 1 1-13.003 0"></path><path fill="#1d1d1d" d="m2528.842-1704.678-3.751-.121-8.135-.052-9.274.195-9.354-.086-9.278-.648-8.468-.994-10.42-1.528-10.397-1.773-7.064-1.612-7.07-1.74-7.324-1.896-7.58-2.278-7.345-2.435-8.945-2.76-8.952-2.23-7.936-1.053-8.126-.597-7.048.785-7.76 2.18-7.888 2.36-6.648 2.827-5.34 4.772-5.905 9.532-5.515 10.134-4.28 9.647-3.14 10.127-.846 9.304.352 9.093 2.953 6.442 7.942 6.83 8.655 6.345 6.458 3.472 6.946 2.734 7.8 2.554 7.96 2.28 7.458 1.812 10.864 1.472 11.73.943 9.067.144 10.242-1.045 12.839-3.063 14.315-4.859 13.522-5.422 11.125-4.955 8.107-4.457 6.922-5.803 4.209-8.236-2.547-6.098-8.824-2.636-9.717-1.574-8.516-.711-8.283-.467-8.807 3.06-7.235 6.72-3.639 10.775-1.873 11.725-.702 8.497-.27 10.183 1.62 10.792 4.703 9.008 7.547 8.7 9.7 7.668 10.972 6.008 10.798 4.29 8.747 2.323 10.67.892 6.93.173a5.481 5.481 0 0 1-.77 10.935l-4.151-.37-7.697-.857-7.485-1.638-9.517-2.834-12.016-4.512-12.507-6.525-11.508-8.577-9.563-10.325-6.765-12.18-2.303-13.247.551-10.731.497-9.18.925-9.44 1.898-9.67 3.17-8.088 4.573-5.485 5.992-4.653 8.35-4.169 9.254-2.057 8.94.097 9.23.279 9.108.85 8.149 1.895 6.566 3.151 6.21 8.32 1.8 11.783-5.208 9.752-6.74 6.416-6.816 4.166-8.759 4.559-11.322 5.34-13.841 6.025-15.047 5.712-14.114 4.132-11.525 1.868-9.793.332-9.06-.273-8.152-.767-7.786-1.363-7.806-1.813-8.47-2.07-8.767-2.374-8.55-2.988-8.115-3.802-7.092-4.307-6.405-4.45-6.687-6.295-5.382-9.093-1.627-8.751.444-7.565 1.2-8.764 2.991-10.576 3.582-9.155 3.162-7.29 3.665-8.085 3.938-7.703 6.401-8.27 9.243-6.984 8.238-3.206 7.896-2.794 9.871-3.373 11.597-1.678 9.925 1.007 7.575 2.021 9.307 2.808 8.95 2.893 6.932 2.126 7.095 1.865 10.554 2.271 13.38 2.493 13.012 1.598 11.825.977 8.832.663 8.407.372 9.274.195 8.135-.051 3.751-.121a7.965 7.965 0 0 1 0 15.929M2167.233-1773.089l-.41 5.748-.622 10.772-.153 8.548.28 8.15.494 8.345.272 3.719a7.335 7.335 0 0 1-14.669 0l.273-3.719.494-8.345.28-8.15-.154-8.548-.621-10.772-.41-5.748a7.474 7.474 0 0 1 14.946 0m-6.827 37.976 6.375.928 14.943 1.359 20.575.735 21.055.519 16.107.366 11.472-.169 6.61-3.395 2.843-9.126 1.07-12.044.616-11.04.111-8.675-.329-7.274-.444-5.665-.191-2.02a6.443 6.443 0 0 1 12.885.192l-.252 2.04-.661 5.697-.661 7.31-.372 8.774-.236 11.287-.427 12.975-2.123 12.181-7.64 6.962-10.534 1.773-11.774.293-16.124.245-21.115.305-20.775.36-15.505-.045-6.791-.236a7.335 7.335 0 0 1 1.292-14.612m106.527-49.003-3.106-.245-8.079-.545-13.524-.609-20.052-.532-22.392-.384-18.788-.277-13.587-.2-13.185-.147-7.492-.063a4.516 4.516 0 0 1 .007-9.032l7.493-.051 13.185-.126 13.59-.174 18.795-.232 22.415-.305 20.136-.394 13.796-.365 8.712.366 3.533.51a6.443 6.443 0 0 1-1.457 12.805M2210.96-1664.726l.087 4.425-.103 12.602-.355 16.565-.3 18.01-.24 22.35-.186 24.995-1.755 25.242-5.717 27.483-12.322 34.3-16.247 35.555-17.151 31.015-16.878 26.73-16.597 22.824-16.695 19.505-14.195 13.417-12.344 8.754-10.45 5.612-7.862 3.482-7.386 1.03-7.682-4.378-5.562-7.91-3.077-7.218-1.555-11.526-.507-15.68 1.428-14.809 5.154-13.884 7.506-11.31 6.267-7.724 5.506-6.49 7.085-5.372 7.53-1.115 7.532 3.472 6.928 6.445 5.12 7.465 3.949 7.318 3.195 6.717 3.492 8.176 3.512 9.036 2.521 8.567 2.25 10.571 2.183 10.698 2.258 8.015 5.997 2.417 8.741-.697 7.61.312 7.276.174 8.983-1.005 9.616-4.029 8.694-7.448 6.573-7.171 4.064-5.611 4.604-8.13 4.53-11.044 2.855-10.84 1.215-8.857-1.774-3.595-1.988.266a8.126 8.126 0 0 1 2.048-16.122l5.396 1.377 8.505 5.914 2.807 8.828-1.19 9.78-2.637 11.545-3.065 9.689-4.477 9.72-5.364 9.59-4.604 6.652-4.974 6.034-8.114 7.501-9.197 6.733-7.353 3.207-7.577 1.518-7.576.524-7.372.171-7.718.216-10.042.022-10.81-2.497-6.915-6.952-3.09-8.808-1.9-9.854-2.035-10.526-1.924-8.764-1.998-7.685-3.266-9.242-3.79-8.712-5.416-8.765-6.975-8.039-6.435-.134-5.71 5.025-5.875 6.717-6.267 9.454-4.114 11.427-.705 13.396 1.73 16.823 3.504 15.238 5.936 5.133 7.862-2.223 9.557-4.777 11.406-8.038 13.52-12.766 16.206-18.95 16.256-22.412 16.554-26.306 16.785-30.49 15.821-34.794 11.85-33.18 5.319-26.286 1.398-24.66-.252-24.974-.355-22.315-.503-17.946-.713-16.31-.733-12.378-.315-4.415a6.789 6.789 0 0 1 13.564-.616"></path><path fill="#1d1d1d" d="m2213.133-1433.197 6.925-6.194 13.266-12.006 11.85-10.38 9.873-8.328 7.164-6.39 5.643-5.485 4.577-4.465 1.733-1.61a6.46 6.46 0 0 1 7.798 10.3l-1.714 1.001-4.992 3.332-6.19 4.658-7.147 6.368-9.253 8.703-11.01 10.883-12.423 12.923-6.435 6.702a6.958 6.958 0 0 1-9.665-10.012m71.285-50.866.693 3.215 1.808 9.844 4.094 16.208 7.438 21.399 8.97 24.128 9.02 25.208 7.611 21.916 4.928 14.415 3.362 9.877 3.275 8.629 2.32 5.927.584 1.777a5.92 5.92 0 0 1-11.59 2.421l-.081-1.401-1.001-5.712-2.22-8.74-3.215-9.777-5.147-14.296-7.893-21.7-9.397-24.9-9.626-24.103-8.507-22.023-5.458-17.149-2.26-9.962-.418-2.884a6.46 6.46 0 0 1 12.71-2.317m46.33 169.334-3.652-1.098-7.708-3.82-8.548-6.117-8.786-6.84-7.912-6.42-6.858-5.76-5.984-4.877-7.552-5.345-9.374-6.044-8.787-5.062-7.386-4.17-6.356-4.898-6.075-5.062-5.928-3.984-7.2-4.801-6.24-4.631-2.081-1.757a8.145 8.145 0 0 1 10.388-12.547l2.114 1.717 5.119 3.847 7.01 4.909 6.82 4.877 5.21 4.756 4.976 5.026 6.759 5.026 8.878 6.02 9.479 7.24 7.545 6.305 5.77 5.196 6.404 5.627 7.677 5.885 8.976 5.931 8.075 5.081 6.28 3.404 2.902 1.225a5.92 5.92 0 0 1-3.955 11.16M2151.034-1564.214l-1.1 2.294-3.496 5.595-5.277 7.155-5.624 8.002-4.534 9.296-3.15 8.87-2.636 7.22-2.244 6.858-2.674 7.144-3.767 7.159-5.01 7.223-7.583 9.603-7.833 9.887-5.372 7.351-4.4 6.91-6.764 6.351-9.994 3.277-9.803.138-8.322-1.452-7.88-1.638-7.608-1.825-6.636-4.068-6.938-2.862-4.004.044a8.558 8.558 0 0 1 .189-17.115l2.288.1 5.807.662 6.73 2.197 5.98 4.445 7.121 3.968 10.557 2.178 11.124 1.156 7.334-3.145 4.604-6.53 4.946-7.829 6.488-10.641 6.924-11.589 5.04-8.783 2.945-7.008 2.457-7.62 2.792-7.163 2.946-8.23 4.061-9.532 4.96-7.742 6.434-7.926 5.099-7.08 1.077-2.296a8.16 8.16 0 0 1 14.745 6.99M2011.9-1458.766l-2.722-3.29-5.08-6.8-3.696-6.776-3.672-5.84-6.326-6.539-6.491-8.441-3.819-8.693-3.774-9.02-4.504-8.205-5.029-8.032-7.326-10.374-9.524-12.272-9.188-11.432-7.676-9.364-6.36-7.447-3.973-5.315-1.278-2.325a5.682 5.682 0 0 1 10.521-4.291l.12 1.1 2.535 4.143 6.3 7.277 8.274 8.928 10.015 10.878 10.736 11.697 9.068 9.903 8.241 10.513 7.26 12.333 4.375 9.411 4.788 6.65 5.565 6.709 4.402 7.313 4.269 7.316 4.586 6.299 2.542 3.04a8.558 8.558 0 0 1-13.159 10.946m-87.738-137.382 1.914-1.139 7.485-1.905 11.862-.878 13.216-.128 11.932-.099 9.866-.55 10.231-.771 10.861-.496 9.704-.376 9.097-.394 8.955-.303 7.604-.262 9.64-.088 10.887.369 9.899.588 8.808.305 8.44-.16 8.742-.378 7.478-.34 7.531-.317 8.357-.224 4.315-.028a8.134 8.134 0 0 1 0 16.27l-4.315-.028-8.357-.224-7.53-.317-7.479-.34-8.742-.378-8.44-.16-8.808.305-9.9.589-10.887.368-9.638-.088-7.604-.261-8.951-.3-9.09-.386-9.683-.351-10.773-.419-10.155-.532-9.828-.166-11.754.462-12.652.858-9.554.858-5.62 1.148-1.943.81a5.682 5.682 0 0 1-5.12-10.144M2217.464-2105.88l.269-5.422.49-11.347.369-11.358.204-10.593.123-10.459.159-11.29.158-11.821-.028-10.515-.256-8.644-.237-8.355-.037-9.397.054-9.934-.103-8.92-.234-7.798-.48-9.307-.669-10.036-.497-9.401-.475-8.814-.28-3.948a7.49 7.49 0 0 1 14.98-.21l-.126 2.328-.297 6.137-.336 8.915-.357 9.408-.298 7.71-.219 7.218-.233 7.798-.104 8.92.055 9.934-.038 9.397-.236 8.355-.257 8.644-.028 10.515.158 11.822.16 11.29.123 10.458.203 10.593.37 11.358.49 11.347.269 5.421a6.404 6.404 0 0 1-12.81 0m4.769-170.079-1.933-.236-.964 4.37.97 4.605a8.07 8.07 0 0 1-16.135-.382l.01-3.15.417-7.876 2.404-7.608 6.788-4.299 7.869-.807 3.075.612a7.49 7.49 0 0 1-2.501 14.771M2197.045-2306.255l.715-4.444 1.5-8.591 1.477-7.553 1.24-9.248.76-12.471.276-10.225.096-7.065.07-7.158-.092-8.615-.276-8.473-.24-7.923-.192-8-.48-8.465-.383-4.842a8.354 8.354 0 0 1 16.675-1.045l-.085 5.364-.183 8.99-.197 8.006-.25 7.936-.31 8.493-.147 8.652-.01 7.216-.045 7.174-.096 7.202-.545 9.972-1.635 13.347-1.75 10.719-.933 8.298-.348 4.487a7.357 7.357 0 0 1-14.612-1.738m14.064-105.337-2.457.374-5.234 1.078-2.775.705a8.307 8.307 0 0 1-4.38-16.025l2.748-.805 6.168-1.325 3.419-.52a8.354 8.354 0 0 1 2.511 16.518"></path><path fill="#1d1d1d" d="m2160.517-2417.625-.47-2.086-1.007-6.085-1.648-8.004-1.363-9.377-.117-11.682.222-12.212.049-10.338-.095-8.083.902-8.56 4.257-8.067 6.976-5.488 9.14-4.604 10.028-4.129 8.175-3.434 7.189-2.672 7.013-1.739 8.311-1.29 8.794-.953 9.042.357 10.49 2.799 8.718 4.526 8.47 9.089 6.807 10.33 3.04 7.251 2.444 7.435 1.743 8.808 1.178 9.743.867 9.361.524 9.049.354 8.277.027 7.259-1.523 8.735-5.108 9.457-9.433 6.835-10.358 3.988-8.754 1.767-9.883.603-5.779.136a7.77 7.77 0 0 1-.425-15.532l3.186-.133 6.981-.226 8.924-.91 8.954-2.208 6.637-3.888 3.54-7.069.646-8.296-.341-7.932-.7-8.44-1.286-8.866-1.615-8.673-1.784-7.327-3.65-9.31-5.931-10.306-7.168-6.678-9.208-3.931-8.841-1.548-7.875.244-9.819 1.324-8.943 2.638-7.733 3.775-8.28 4.563-8.31 6.284-4.33 7.571-.088 8.077.069 10.32.283 12.123.235 9.661.8 7.246 1.23 8.351.911 6.623.428 2.094a8.039 8.039 0 0 1-15.719 3.377M2126.516-2227.797l-2.413 6.33-7.943 16.714-12.855 24.105-18.449 31.32-22.943 35.06-22.59 32.638-21.142 29.4-17.592 24.004-11.756 16.207-10.526 14.956-5.991 8.527a4.328 4.328 0 0 1-7.094-4.962l5.955-8.552 10.496-15.099 11.678-16.35 17.376-24.049 20.817-29.418 22.126-32.621 22.211-34.835 17.61-31.255 11.629-23.593 6.415-16.262 1.736-6.536a6.958 6.958 0 0 1 13.244 4.27M2102.684-2283.069l.15 3.337.076 6.815-1.51 7.372-4.471 8.527-7.85 10.68-10.966 13.361-13.096 15.872-14.44 17.109-14.362 16.448-15.273 17.394-18.038 18.744-20.14 18.013-21.238 17.26-21.267 16.276-18.536 13.553-13.733 9.869-13.272 9.492-7.536 5.394a4.256 4.256 0 0 1-4.961-6.917l7.525-5.409 13.232-9.515 13.644-9.876 18.332-13.498 20.992-16.199 20.814-17.09 19.494-17.67 17.52-18.608 14.94-17.605 13.815-16.619 13.76-17.417 12.2-16.289 9.41-13.341 5.873-9.9 3.14-8.445 1.27-7.781.15-3.337a7.176 7.176 0 0 1 14.352 0M2378.04-1490.073l-.313 7.989-.447 15.263.543 14.14 1.902 12.49 4.17 13.899 6.152 16.123 7.176 15.635 7.23 13.9 6.501 11.908 6.35 11.216 6.182 10.687 6.015 10.623 5.102 9.125 5.003 9.5 5.194 10.337 4.372 8.008 4.878 7.413 5.87 7.487 5.895 6.722 5.73 5.334 6.343 3.604 3.493 1.516a8.145 8.145 0 0 1-7.17 14.627l-3.494-1.94-6.723-4.566-5.878-5.93-4.899-6.885-4.225-6.906-4.22-7.885-4-8.22-4.064-8.285-5.23-10.26-4.714-9.482-4.692-9.089-6.014-10.523-6.278-10.716-6.49-11.28-6.69-11.994-7.58-14.226-7.626-16.068-6.7-16.747-4.866-14.892-2.644-13.55-1.403-14.77-.65-15.343-.312-7.99a6.61 6.61 0 0 1 13.22 0m92.492 233.918-1.683-3.29-3.577-6.63-4.35-8.324-5.499-11.625-5.508-12.316-6.113-18.96-6.379-25.886-4.827-24.493-3.378-23.145-2.158-19.103-1.368-13.559-.922-10.343-1.305-10.8-.876-6.166a5.782 5.782 0 0 1 11.55-.576l-.23 6.147-.057 10.675.738 10.117 1.552 13.418 2.383 18.763 3.66 22.586 5.21 23.904 6.627 24.523 6.552 17.564 6.346 11.274 6.524 10.326 5.633 8.07 4.282 7.1 1.7 3.378a8.145 8.145 0 0 1-14.527 7.371m-37.396-198.192 1.284 1.566 3.433 4.534 5.894 8.107 6.076 8.54 4.821 7.26 5.175 7.76 5.944 9.299 6.213 10.928 5.889 11.334 5.377 12.23 4.769 13.348 4.212 14.695 3.346 14.657 2.725 13.353 2.31 11.247 2.031 9.706 1.734 8.575 1.615 9.58 1.317 10.897.722 9.51.235 9.128-1.082 9.86-2.95 10.008-5.421 9.938-8.463 11.2-9.23 9.909-9.377 8.148-11.427 8.961-12.252 9.137-11.398 8.197-11.171 7.466-10.721 6.728-10.121 5.687-11.154 5.263-12.2 4.76-13.452 3.922-15.592 3.379-15.552 2.565-14.51 1.46-13.409-.095-12.158-3.275-11.025-6.427-8.818-7.657-6.723-8.571-5.035-8.862-3.345-9.377-2.012-9.38-1.154-9.02-.706-8.79.032-8.384 2.43-9.206 4.027-8.062 5.76-6.541 6.91-5.439 6.633-3.9 7.43-2.868 7.55-1.74 11.074-.17 11.187 2.161 7.01 4.213 5.672 5.223 5.469 7.6 4.965 10.094 2.047 10.927-1.606 9.135-6.413 7.734-10.052 7.107-10.129 4.156-11.13.625-9.976-4.419-5.712-6.437-3.451-8.318.07-11.66 2.736-8.897 1.316-2.795a8.28 8.28 0 0 1 15.148 6.685l-1.785 3.707-1.524 7.209 2.025 6.95 6.152 2.624 8.642-2.988 7.867-5.588 3.116-6.837-2.178-7.393-4.2-7.673-6.609-6.629-9.127-3.528-10.929.412-11.401 3.834-9.889 7.176-6.017 7.42-2.114 6.527-.405 7.317.355 8.302.713 8.345 1.275 8.162 2.437 8.102 3.916 7.864 5.427 7.533 7.41 6.8 8.97 5.602 10.065 2.855 12.351.067 13.975-1.424 15.093-2.524 14.97-3.275 12.715-3.762 11.56-4.609 10.513-5.108 9.608-5.64 10.291-6.807 10.627-7.587 10.87-8.508 11.45-9.461 10.155-9.19 7.708-8.3 7.831-10.112 7.181-9.925 4.301-7.115 2.706-7.427 1.42-7.94.532-8.339.317-9.21.063-10.306-.395-9.07-1.2-8.425-1.756-9.717-2.177-11.195-2.815-13.124-3.38-14.087-4.272-14.035-4.796-12.529-5.5-11.373-6.199-10.574-6.595-9.903-6.558-8.768-5.673-7.527-6.714-9.402-6.321-8.93-3.983-6.453-2.53-4.738-.77-1.436a5.782 5.782 0 0 1 9.544-6.53M2096.489-1262.217l-.85 2.37-1.333 5.94-.736 9.349-.617 10.755-.54 9.498-.505 10.296-.575 11.885-.375 12.529.321 13.27 1.285 13.36 2.077 12.406 2.49 10.255 2.832 9.97 3.115 10.328 2.95 9.312 3.027 9.884 3.223 9.317 3.072 8.878 2.938 8.52 3.143 6.746 3.543 6.017 3.787 6.065 5.926 7.74 7.607 7.14 7.742 4.008 10.62 2.15 10.401-.067 8.462-2.246 9.394-4.06 9.574-5.725 8.165-5.978 7.536-7.846 6.223-9.95 3.108-10.105 1.184-9.969-.789-9.163-3.435-7.064-6.17-4.248-5.445 3.799-3.288 10.624-2.024 9.457-.434 7.94 3.563 6.053 3.564 2.326a8.538 8.538 0 0 1-8.727 14.677l-4.075-2.51-6.958-6.321-3.437-7.274-.31-7.697.703-7.738 1.6-8.248 3.34-11.207 3.475-9.8 3.773-6.653 7.694-4.097 8.463.485 7.57 3.67 7.796 6.492 5.278 9.68 1.83 11.875-1.004 12.347-3.526 12.208-4.36 9.19-4.482 6.28-5.437 5.71-6.548 5.362-8.695 6.648-10.438 7.101-10.788 5.587-10.88 3.5-9.914 1.07-8.368-.873-7.576-1.975-7.83-4.335-8.767-7.719-6.85-7.962-4.036-6.46-3.595-6.609-3.52-7.127-2.97-7.739-2.66-8.608-2.775-8.85-3.268-9.65-3.071-9.893-2.746-9.358-3.258-10.535-2.867-10.296-2.53-10.8-2.497-12.988-1.78-13.986-.947-13.689-.447-12.585-.521-11.92-.41-10.351-.374-9.686.007-11.618 1.382-11.732 2.063-7.592.946-2.34a7.26 7.26 0 0 1 13.566 5.173"></path><path fill="#1d1d1d" d="m2124.64-1229.13-.012 2.672.06 5.94.071 3.269a8.17 8.17 0 0 1-16.338 0l.072-3.269.06-5.94-.013-2.673a8.05 8.05 0 0 1 16.1 0m-4.994 4.305 1.96.775 7.45 1.334 11.248.7 5.76.141a8.297 8.297 0 0 1-.436 16.588l-4.226-.13-8.872-.387-9.857-1.255-7.174-1.806-1.965-.808a8.17 8.17 0 0 1 6.112-15.152"></path><path fill="#1d1d1d" d="m2128.477-1247.093-.593-.074-.593-.074a8.463 8.463 0 0 1 2.753-16.7l.585.12.585.12a8.416 8.416 0 0 1-2.737 16.608m-4.289-15.679 4.627-1.897 9.518-.21 8.94 4.78 6.602 6.115 4.658 6.922 2.776 8.188.748 7.992.091 7.366-.555 9.04-3.933 9.955-3.364 4.577a8.977 8.977 0 0 1-13.665-11.645l1.901-4.088 1.828-9.385-.623-9.872-3.022-8.044-5.84-4.928-2.548-.983.819.478a8.463 8.463 0 0 1-8.958-14.36M2291.906-1060.616l-.03 3.91-.174 8.591-.378 9.973-.457 10.867-.388 12.076-.254 11.848-.628 10.21-1.3 12.469-1.45 12.184-1.364 8.6-1.457 7.981-1.744 9.927-1.882 10.392-2.553 11.392-3.29 11.252-3.511 8.76-3.209 9.929-2.206 8.469-.852 3.016a7.176 7.176 0 0 1-13.5-4.871l1.806-4.48 2.871-8.284 2.53-8.302 3.566-11.328 3.296-10.725 2.486-7.86 2.76-9.86 2.374-9.69 1.729-7.609 1.547-8.122 1.744-11.988 1.655-11.904.541-9.563-.254-11.843-.388-12.076-.457-10.867-.378-9.973-.174-8.59-.03-3.911a6.702 6.702 0 0 1 13.403 0m-31.22 172.744 2.485.848 7.35 2.976 11.902 5.192 14.388 6.869 14.995 7.619 15.014 7.556 14.646 7.93 13.23 7.687 11.235 6.712 9.703 6.13 7.542 4.901 6.948 4.176 8.28 5.121 8.993 5.87 8.299 5.015 6.83 3.696 6.929 3.273 6.273 2.924 2.42 1.272a6.527 6.527 0 0 1-7.157 10.918l-1.702-1.43-5.434-3.776-6.605-4.261-6.62-4.255-8.434-5.163-9.051-5.55-8.508-5.257-6.88-4.763-6.946-5.068-9.476-5.912-11.255-6.426-13.11-7.224-14.557-7.343-15.276-6.957-14.959-6.646-14.277-5.554-12.05-3.828-7.685-2.684-2.794-1.256a7.176 7.176 0 0 1 5.315-13.332m167.453 100.105.157-1.753 1.047-6.947 1.453-10.323 1.393-9.344 2.027-9.357 2.375-10.344 2.49-11.447 2.675-13.674 3.035-14.397 3.89-15.395 4.54-17.911 4.348-18.209 3.868-16.28 3.228-13.305 2.04-9.385 1.047-7.066-4.138-3.274-8.723-1.41-7.797-3.031-7.073-3.088-9.29-4.554-10.393-4.988-11.367-5.894-11.066-6.744-7.874-5.042-6.997-4.045-6.548-3.956-6.633-4.711-6.423-4.788-7.83-5.567-9.27-7.27-7.804-7.265-6.331-5.847-5.59-4.663-7.575-5.451-8.931-5.644-7.474-4.637-7.916-5.42-7.321-7.05-2.846-3.825a8.615 8.615 0 0 1 14.098-9.906l1.653 3.058 4.527 4.956 6.31 4.362 7.215 4.829 6.803 4.084 6.165 4.164 5.587 5.002 5.43 5.387 6.13 6.392 6.854 7.166 8.219 7.192 7.458 5.81 8.885 6.52 9.365 6.257 7.243 4.125 8.024 4.533 10.592 5.678 11.384 5.908 10.323 5.558 8.466 4.489 6.442 2.922 10.07 3.663 10.153 3.855 5.252 6.239.68 8.137-2.271 6.987-2.425 9.27-3.099 13.293-3.702 16.314-4.148 18.369-4.213 17.918-3.377 15.058-2.406 14.27-1.902 13.902-1.551 11.606-1.275 10.475-1.142 9.2-1.345 9.667-1.863 10.003-1.61 6.572-.541 2.258a6.527 6.527 0 0 1-12.86-2.24M2198.552-946.055l-5.104.064-9.374.208-8.66.202-10.098-.069-5.708-.126a5.637 5.637 0 0 1-.256-11.27l5.697-.385 9.97-.525 8.423-.34 9.226-.747 5.074-.545a6.778 6.778 0 0 1 .81 13.533M2331.421-787.826l-.144 4.415-.172 8.225-.052 7.638-.245 8.866-.22 5.039a6.263 6.263 0 0 1-12.527 0l-.22-5.039-.244-8.866-.053-7.638-.171-8.225-.145-4.415a7.097 7.097 0 0 1 14.193 0M2408.837-1068.614l4.838-2.807 10.78-6.049 9.405-5.384 8.688-5.706 8.54-6.21 6.506-5.12 7.408-5.457 4.215-2.985a5.773 5.773 0 0 1 6.996 9.185l-3.997 3.27-7.044 5.55-6.844 5.498-9.409 6.492-9.142 5.347-8.936 5.605-9.853 6.924-4.447 3.39a6.94 6.94 0 0 1-7.704-11.543M2489.816-890.086l3.786.722 7.213 1.389 6.725 1.723 6.957 2.43 6.987 3.41 6.16 4.469 5.428 5.01 2.595 2.578a8.553 8.553 0 0 1-12.347 11.839l-2.325-2.504-5.195-5.352-6.33-4.53-8.942-2.956-9.31-1.7-3.83-.427a8.141 8.141 0 0 1 2.428-16.1M2077.183-2353.545l-4.452-.115-7.958-.08-10.007-1.03-11.523-1.96-9.507-2.031-10.142-2.578-9.028-2.556-6.504-2.796-7.355-5.078-8.23-7.15-6.76-7.29-5.124-6.612-4.88-7.607-4.818-8.818-4.519-9.344-4.46-11.237-4.47-12.647-4.064-13.101-3.272-12.508-2.737-12.26-2.438-12.096-2.167-11.882-1.637-12.335-1.025-11.185-.586-12.486-.242-13.667-.124-13.09-.192-11.65-.166-10.056-.112-10.073.107-9.354 1.372-9.796 2.596-9.956 3.262-9.685 3.177-8.696 3.779-8.109 4.05-7.397 3.635-6.212 5.104-6.827 6.153-7.025 6.535-6.667 6.53-6.12 6.389-5.447 6.055-4.707 6.804-5.955 9.962-7.802 10.027-5.885 8.304-3.983 7.786-3.97 7.172-3.544 9.311-3.73 9.866-3.519 9.021-2.564 12.008-2.738 11.73-2.167 9.522-1.13 9.614-1.197 8.904-1.212 7.836-1.21 7.688-1.186 7.611-1.072 9.218-1.22 9.67-1.294 10.31-.82 9.726-.211 7.562.093 7.543.338 7.202.84 7.122 1.277 6.796 1.47 9.057 2.214 10.674 2.808 8.734 2.757 7.67 3.454 10.117 5.025 11.503 5.518 9.325 4.62 8.286 4.599 7.502 4.532 6.084 3.96 5.751 3.9 6.593 5.268 6.146 5.864 5.584 6.623 5.86 7.978 5.397 8.556 5.107 9.5 4.104 9.258 3.428 9.408 3.4 11.73 2.53 11.123 1.624 8.572 1.616 8.443 2.346 10.474 2.582 11.597 1.497 9.744.662 8.049.365 9.385.205 9.93.17 8.396-.035 7.896-1.198 8.542-2.045 8.133-1.76 7.288-2.151 7.843-2.704 7.79-2.492 8.592-2.55 7.896-4.165 6.464-6.081 6.254-6.68 6.51-5.693 5.84-2.304 2.367a8.565 8.565 0 0 1-12.716-11.477l2.12-2.534 5.51-6.31 6.839-7.284 5.638-6.76 3.095-6.785 2.474-8.202 2.984-9.188 2.297-7.863 2.359-8.156 2.162-8.732.798-8.112.156-8.38.09-8.107.115-8.994-.039-8.818-.78-8.464-2.184-11.16-2.566-10.579-2.145-8.24-2.246-8.157-3.015-10.175-3.553-10.891-3.207-8.654-3.64-8.065-4.58-8.234-4.871-7.527-5.039-6.807-5.594-6.563-6.018-6.024-7.086-5.694-7.422-5.214-7.25-4.988-6.776-4.467-8.262-4.517-8.515-4.22-6.266-2.987-9.558-4.149-11.55-4.201-10.315-3.057-11.548-2.913-12.441-2.18-13.543-.651-13.283.205-9.92.316-9.315.484-8.955.73-7.45.921-7.672 1.078-7.845 1.13-8.736 1.474-9.58 1.893-8.88 1.71-7.972 1.79-9.708 2.353-9.602 2.077-8.47 1.804-10.604 3.346-9.558 4.263-7.853 4.35-10.637 5.857-10.829 6.632-9.679 7.159-8.337 6.29-6.03 4.882-6.142 5.674-6.061 6.28-5.61 6.437-6.55 8.757-6.022 9.254-3.721 7.173-3.237 8.233-3.084 9.114-2.463 8.823-1.484 8.676-.495 8.977-.049 10.049-.054 10.034.005 11.606.222 13.013.369 13.435.488 12.17.864 10.742 1.686 11.87 2.292 11.674 2.605 11.825 2.945 11.838 3.522 11.91 4.442 12.456 4.973 11.863 4.868 10.064 4.97 8.488 4.897 7.627 4.659 6.424 5.052 5.87 6.255 6.513 7.586 7.085 7.666 5.606 8.794 3.88 9.056 2.89 8.771 1.662 10.663 1.02 9.3.439 7.952-.081 4.452-.115a6.744 6.744 0 0 1 0 13.488M2239.043-813.389l-.18 4.818-.462 11.02-.496 13.555-.37 14.205-.273 13.722-.514 14.415-.878 13.506-1.255 15.496-1.367 18.78-.932 16.66-1.641 15.998-2.146 15.827-2.222 14.269-2.727 13.199-3.163 12.657-3.997 12.66-4.824 12.253-6.176 12.266-7.4 11.996-8.448 11.46-10.47 11.599-12.31 11.977-13.987 13.067-15.541 13.927-14.172 12.324-10.662 9.555-10.414 9.586-5.938 5.465a4.21 4.21 0 0 1-5.703-6.195l5.939-5.466 10.485-9.65 10.764-9.647 14.08-12.242 15.41-13.811 13.865-12.952 11.925-11.565 9.952-10.971 8.057-10.899 7.037-11.344 5.85-11.577 4.617-11.708 3.835-12.151 3.063-12.335 2.627-12.785 2.147-14.094 2.062-15.525 1.518-15.621.828-16.812 1.215-18.832 1.032-15.351.572-13.189.108-14.22-.273-13.722-.37-14.205-.496-13.555-.463-11.02-.179-4.818a6.73 6.73 0 0 1 13.46 0"></path><path fill="#1d1d1d" d="m2254.235-708.466.049 2.68-.033 9.889-.096 10.7-.378 11.016-.641 15.515-.486 15.487-.361 13.58-.154 10.998-.035 10.023-.02 9.983.129 9.034.242 7.94.242 7.466.47 7.212.953 8.163 1.33 9.334 1.553 9.587 1.69 9.849 1.783 9.965 1.851 9.99 1.896 10.045 1.927 10.13 2.263 10.034 2.442 8.327 2.576 6.71 4.151 9.344 5.073 11.7 4.24 11.03 3.601 10.028 2.248 9.23.811 8.046.406 7.236.22 7.21.287 8.475-1.286 10.492-3.687 9.212-6.498 8.018-10.298 8.87-11.617 8.135-10.083 6.24-9.713 4.797-9.96 2.69-9.8.6-9.941.026-9.707-.087-8.737.011-9.24.321-9.15.52-8.383-.591-7.672-3.025-7.033-6.238-6.615-7.635-3.678-7.663-1.447-7.534-1.28-7.62-1.35-7.257-.507-3.068a8.69 8.69 0 0 1 17.222-2.334l.442 4.564 1.142 8.744 1.048 8.056 2.939 7.123 6.96 6.825 8.136 3.813 9.092.392 9.173.126 8.602-.273 9.424-.586 12.374-1.29 11.93-2.53 8.4-3.895 9.15-5.493 7.94-5.57 7.204-6.266 7.167-7.307 4.087-7.774 1.081-10.65-.231-9.775-.74-9.85-2-11.191-2.93-10.155-3.27-10.762-4.085-11.826-3.664-10.278-2.135-7.398-2.27-8.783-2.51-10.317-2.089-10.107-2.071-10.029-2.062-9.983-2.053-9.972-2.003-9.904-1.86-9.734-1.704-9.822-1.036-8.992-.095-7.655.242-7.466.243-7.942.128-9.033-.02-9.983-.034-10.023-.154-10.998-.362-13.58-.485-15.487-.641-15.515-.378-11.016-.097-10.7-.033-9.888.05-2.68a7.145 7.145 0 0 1 14.289 0m-105.462 342.009-2.6 1.08-7.894 3.852-9.655 3.174-9.677 1.405-8.938 1.742-7.278.834-9.519-1.335-9.443-2.633-7.384-2.472-6.575-5.415-5.044-8.001-4.513-8.17-4.254-8.074-2.458-7.834-.871-8.509-.804-9.02-.862-8.88-.646-8.47-.225-7.6-.182-6.95-.144-8.327-.025-4.793a8.917 8.917 0 0 1 17.834-.002l.007 3.318-.084 7.278-.063 8.143.183 7.908.65 7.686.862 9.017.926 9.757 1.81 8.908 3.234 7.92 4.438 8.819 5.786 6.19 7.249 2.32 9.018 1.44 9.24-.719 10.738-1.147 9.507-2.635 6.903-4.113 3.994-1.703a8.69 8.69 0 0 1 6.76 16.01M2347.839-597.246l.908 2.814 3.05 7.065 5.007 7.81 6.99 7.461 8.225 7.062 8.656 5.27 7.748 3.652 9.584 3.79 10.075 3.289 7.192 1.992 9.133 2.426 9.886 2.045 11.365.805 12.633-.58 11.229-2.053 10.768-2.833 8.88-3.254 9.073-4.033 9.142-4.73 6.91-4.443 6.257-4.77 3.487-7.476.269-4.8a7.512 7.512 0 0 1 14.877-2.091l.064 4.257-1.341 8.596-4.199 6.523-6.67 4.52-7.177 4.264-7.58 4.46-9.69 5.347-9.523 4.46-9.5 3.776-11.3 3.983-12.553 3.521-11.328 1.926-8.138.085-8.85-1.193-10.78-2.614-8.893-2.48-7.51-1.831-7.876-2.032-7.475-2.362-9.38-3.849-9.16-4.318-8.075-5.425-9.27-7.936-8.635-9.49-6.694-10.703-3.563-8.28-.935-2.811a7.728 7.728 0 0 1 14.687-4.812m178.105 10.69.203-.288.203-.288a7.565 7.565 0 0 1 11.683 9.613l-.244.254-.244.255a7.512 7.512 0 0 1-11.601-9.546m8.219-3.073 3.008.721 7.203.537 7.941-.22 8.145-2.858 7.287-5.449 6.034-6.916 6.102-10.241 4.834-9.87 3.229-7.447 2.464-6.964 2.531-8.987 1.817-10.674.52-10.586.142-11.232-.024-10.946-.374-9.462-1.395-8.188-3.722-7.3-7.85-6.241-10.803-5.649-9.642-4.47-7.305-3.037-3.27-1.37a8.262 8.262 0 0 1 6.968-14.983l2.789 1.447 7.421 3.448 9.851 4.436 11.184 5.466 9.4 6.222 5.434 6.228 3.349 6.634 1.944 7.438.827 9.041.147 10.41-.176 11.078-.329 11.644-.94 12.039-2.407 12.287-2.83 9.752-2.457 7.694-2.949 8.32-3.134 7.902-3.076 6.997-3.571 6.753-6.168 7.993-7.889 7.597-8.622 5.265-8.905 2.706-8.518.298-9.699-.822-6.829-1.303-1.63-.531a7.565 7.565 0 0 1 3.943-14.607m28.515-153.039-.24 1.847-.277 5.337.471 7.751.647 8.998.204 8.383.131 7.576-.63 8.22-3.02 8.44-4.605 6.823-5.638 5.915-6.419 5.292-6.577 4.07-6.45 4.25-6.623 4.318-7.519 4.1-9.17 4.374-10.105 4.156-8.504 2.906-7.452 1.522-9.232.234-8.938-1.584-6.762-3.914-7.806-5.004-7.967-3.806-6.812-2.529-7.746-2.488-8.92-2.442-7.894-2.068-7.821-.96-8.048-.105-7.66-.035-7.78.778-6.9 2.344-5.763 4.282-4.926 6.171-5.35 8.384-5.243 9.019-3.777 9.42-3.362 11.73-3.53 12.983-2.406 11.873-.802 9.385-.155 7.963.03 7.36.535 7.61 2.05 8.94 3.364 9.695 4.734 10.288 6.299 10.699 6.316 9.719 4.83 7.78 4.72 7.658 5.717 7.271 6.48 6.396 6.929 5.818 8.195 4.789 12.016 4.756 11.596 3.464 8.937 1.777 9.248 1.118 9.075.648 8.678.323 8.52.167 8.032.029 7.493-.063 9.626-.387 11.588-1.964 11.504-4.722 10.583-5.663 7.912-5.18 3.247-2.615a7.261 7.261 0 0 1 8.608 11.696l-4.42 3.027-8.923 5.146-7.864 3.998-7.244 3.681-7.17 2.733-7.183 1.705-10.298.802-10.046-.053-7.542-.163-8.115-.146-8.675-.142-8.919-.22-9.542-.308-10.202-.563-10.02-1.182-9.579-1.787-8.307-2.159-10.197-4.297-10.454-6.126-7.92-6.891-7.594-7.94-6.547-8.736-4.807-7.634-4.763-7.4-6.467-9.748-7.454-11.648-5.424-9.64-2.982-7.609-2.483-7.97-1.538-7.976-.477-7.867.173-7.31.308-7.861.669-9.173.916-8.564 1.15-7.07 2.093-10.113 2.605-12.447 2.637-10.213 3.209-7.812 3.773-6.878 3.877-6.548 3.855-6.35 4.294-6.028 5.279-5.701 6.262-4.762 7.227-3.461 8.937-1.978 9.043-.45 9.322-.011 9.922.118 8.474 1.364 8.448 2.414 8.973 2.478 8.292 2.725 7.403 2.67 7.435 2.651 7.348 4.248 6.374 5.113 7.395 2.163 7.874-.95 7.688-2.53 9.097-4.19 8.48-4.54 6.668-3.746 6.544-4.228 6.623-4.304 6.738-4.372 6.589-6.043 3.912-6.848.987-7.442.072-8.327-.075-8.09-.469-7.644-.157-7.933.657-6.465.432-2.368a8.262 8.262 0 0 1 16.317 2.603M2369.47-447.91l1.31 3.476 3.85 8.174 5.31 9.168 5.682 8.894 5.834 8.762 5.437 8.375 4.178 7.064 3.291 6.626 2.609 7.568 1.21 9.12.202 9.934-1.233 9.814-3.296 8.993-5.623 7.398-7.802 6.063-11.733 1.956-7.465-.673a8.719 8.719 0 0 1 5.667-16.49l1.27.897 4.429-.974 5.404-4.792 3.126-7.214.73-9.305-.512-8.647-2.33-8.236-3.498-7.711-4.235-7.22-5.56-8.529-5.998-9.386-5.646-9.46-4.198-7.765-3.186-6.675-1.486-3.406a7.697 7.697 0 0 1 14.261-5.798"></path><path fill="#1d1d1d" d="M2362.789-340.389a7.778 7.778 0 1 1 15.557 0 7.778 7.778 0 1 1-15.557 0M2468.619-393.166l-.083 2.755-.17 8.085-.051 9.282.298 7.77 3.807 6.421 6.769 3.998 6.729 2.076 7.149.97 7.384-2.569 6.943-7.138 6.27-9.265 4.522-9.42 1.45-9.16-1.185-8.025-3.15-6.136-6.122-3.181-7.814 1.358-6.17 5.114-2.508 3.416a8.955 8.955 0 0 1-16.191-7.652l3.726-5.357 6.704-7.798 6.844-4.347 8.981-2.167 9.521.154 7.564 2.242 5.696 4.506 4.628 6.396 3.87 9.33 1.836 10.758-.82 9.866-2.977 8.988-5.033 9.132-7.66 11.59-9.99 10.397-9.154 4.836-8.383.857-7.905-.746-7.907-2.07-8.4-3.564-8.208-6.1-5.637-7.67-1.506-8.706-.11-9.194.087-9.43.05-8.19.034-2.757a8.138 8.138 0 0 1 16.272.345M2270.565-307.401l-.15 3.924-.128 9.114.182 8.959 2.875 7.277 5.616 6.635 7.139 3.35 8.388.004 5.73-5.028 3.437-8.882 2.331-7.769.583-7.675-2.259-7.433-7.266-4.613-9.017-2.557-7.594-2.44-9.54-1.083-6.065-.04a9.027 9.027 0 0 1 .21-18.052l6.634.146 10.498 1.145 7.301 2.006 8.46 2.218 9.26 2.676 8.184 4.479 6.572 7.664 2.703 9.074-.162 8.447-.788 8.413-2.36 8.946-3.15 7.885-3.14 7.15-4.495 6.758-6.4 4.424-7.333 1.64-7.083.12-7.57-.41-7.718-2.487-6.116-4.98-5.197-6.233-4.771-6.547-2.981-6.697-.74-7.408.182-9.082-.129-9.114-.149-3.924a8.008 8.008 0 0 1 16.016 0M2358.547-191.31l2.597.036 6.972 1.874 9.48 6.278 8.308 8.909 5.45 8.576 4.469 8.365 3.617 8.98 1.657 9.587.348 9.066-1.189 8.97-3.963 8.583-5.749 6.386-7.127 4.049-8.237 1.53-10.111-.43-9.958-.931-7.632-1.384-7.17-3.577-6.86-5.29-6.028-6.446-3.114-7.915-.508-7.782 1.044-9.237 3.754-10.585 5.04-10.754 2.452-5.746a8.988 8.988 0 0 1 17.08 5.602l-1.21 3.678-3.2 7.18-4.343 8.287-2.39 9.021 1.306 7.439 3.592 6.041 5.64 3.61 8.406 1.231 10.013.994 7.83-1.651 4.097-5.726 1.278-7.736-.035-7.866-1.78-7.414-3.242-6.986-3.609-6.697-4.595-6.632-5.229-5.394-4.943-2.179-2.208.036a7.975 7.975 0 0 1 0-15.95M2019.15-2643.075l-.416 5.67-.552 10.243-.316 8.107-.173 7.385 5.274 6.428 9.105 4.58 9.108 2.462 9.224-1.147 8.748-4.004 7.918-4.45 3.66-7.42.935-8.952.203-8.141-.832-8.21-4.019-5.824-7.32-3.645-8.383-1.575-8.738-.103-8.566.275-7.874 1.408-6.98 2.46-3.376 1.326a8.354 8.354 0 0 1-6.769-15.275l3.25-1.61 9.125-3.591 11.4-2.442 9.838-.441 8.892-.034 9.168.644 7.801 2.496 6.969 4.613 6.408 5.373 4.255 6.173 2.203 7.704.793 7.836-.123 7.259-.858 6.965-1.443 8.048-3.113 9.492-5.599 7.263-7.038 4.263-9.531 4.792-11.545 4.383-9.307 1.602-7.72-2.118-8.398-4.693-8.942-5.102-8.291-7.325-3.372-8.314.822-8.997.399-9.934-.54-10.233-.415-5.67a7.525 7.525 0 0 1 15.05 0"></path></symbol><symbol id="icon-x" viewBox="0 0 24 24"><path d="M18 6 6 18M6 6l12 12"></path></symbol><symbol id="icon-zap" viewBox="0 0 24 24"><path d="M4 14a1 1 0 0 1-.78-1.63l9.9-10.2a.5.5 0 0 1 .86.46l-1.92 6.02A1 1 0 0 0 13 10h7a1 1 0 0 1 .78 1.63l-9.9 10.2a.5.5 0 0 1-.86-.46l1.92-6.02A1 1 0 0 0 11 14z"></path></symbol></svg>