<svg xmlns="http://www.w3.org/2000/svg" aria-hidden="true" style="width: 0; height: 0; position: absolute;"><symbol id="icon-file-text" viewBox="0 0 24 24"><path d="M14 2H6a2 2 0 0 0-2 2v16a2 2 0 0 0 2 2h12a2 2 0 0 0 2-2V8z"></path><path d="M14 2v6h6M16 13H8M16 17H8M10 9H8"></path></symbol><symbol id="icon-github" viewBox="0 0 24 24"><path d="M9 19c-5 1.5-5-2.5-7-3m14 6v-3.87a3.37 3.37 0 0 0-.94-2.61c3.14-.35 6.44-1.54 6.44-7A5.44 5.44 0 0 0 20 4.77 5.07 5.07 0 0 0 19.91 1S18.73.65 16 2.48a13.4 13.4 0 0 0-7 0C6.27.65 5.09 1 5.09 1A5.07 5.07 0 0 0 5 4.77a5.44 5.44 0 0 0-1.5 3.78c0 5.42 3.3 6.61 6.44 7A3.37 3.37 0 0 0 9 18.13V22"></path></symbol><symbol id="icon-lazer" viewBox="0 0 381.548 606.333"><path d="m16.063 6.45 27.705 47.863q27.692 47.865 60.547 107.69 32.85 59.834 66.265 121.125 33.411 61.276 53.917 99.23 20.514 37.958 35.663 66 15.157 28.047 15.458 28.901.296.863.312 1.77.002.91-.279 1.777-.276.86-.824 1.588-.54.734-1.285 1.251-.752.511-1.624.766-.871.254-1.776.212-.91-.034-1.759-.362-.848-.329-1.541-.913-.707-.582-1.18-1.358-.472-.775-.68-1.664-.204-.874-.112-1.782t.462-1.73q.376-.829.994-1.5.613-.663 1.411-1.097t1.698-.585q.892-.158 1.794-.021.894.13 1.705.554.803.417 1.438 1.072.627.649 1.017 1.478.386.815.497 1.723.107.895-.082 1.787-.184.884-.64 1.673-.465.783-1.15 1.374-.692.6-1.529.948-.84.334-1.744.4-.906.053-1.785-.176-.881-.242-1.643-.74-.747-.501-1.308-1.215l-.555-.722-15.273-27.98-35.944-65.825q-20.666-37.855-54.293-98.985-33.63-61.145-66.71-120.663-33.083-59.532-61.2-107.15Q3.938 13.55 3.6 12.768q-.342-.773-.474-1.613-.146-.836-.084-1.68.062-.843.327-1.65t.714-1.529Q4.534 5.587 5.133 5q.614-.59 1.348-1.018.726-.433 1.542-.676.811-.235 1.662-.275.846-.032 1.674.127.836.165 1.605.524.768.36 1.413.89.668.532 1.178 1.213zM292.567 448.182l.34-13.93q.33-13.94.58-28.44.25-14.51.43-31.75.19-17.25.32-29.23.13-11.99.22-20.78.09-8.8-.8-15.5-.89-6.71-.7-7.91.19-1.19.75-2.26.56-1.08 1.44-1.91.87-.84 1.97-1.35 1.1-.52 2.3-.65 1.19-.14 2.38.11 1.18.26 2.22.88t1.83 1.54 1.24 2.04.52 2.33q.08 1.21-.24 2.38-.32 1.16-1 2.17-.67 1-1.63 1.74t-2.11 1.13q-1.14.39-2.34.4-1.21 0-2.36-.38t-2.12-1.11-1.65-1.72q-.68-1-1.01-2.17-.33-1.16-.27-2.37t.5-2.34q.44-1.12 1.22-2.05t1.82-1.56q1.03-.62 2.21-.89t2.38-.14q1.2.12 2.3.63 1.1.5 1.99 1.33.88.83 1.45 1.9.57 1.06.77 2.26l.21 1.19-.83 6.74q-.82 6.73-.72 15.53.11 8.8.24 20.79.13 11.98.32 29.23.18 17.24.43 31.75.25 14.5.58 28.44.34 13.93.23 14.85-.12.93-.45 1.81-.33.87-.86 1.64t-1.23 1.39-1.53 1.06q-.83.43-1.74.66-.91.22-1.84.22t-1.84-.22q-.91-.23-1.74-.66-.83-.44-1.53-1.06t-1.23-1.39-.86-1.64q-.33-.88-.45-1.81zM227.047 497.281l-7.6-5.39q-7.61-5.38-18.91-12.18-11.3-6.79-24.9-14.38-13.61-7.58-24.9-13.74-11.3-6.16-19.67-10.72t-9.09-5.11q-.72-.56-1.23-1.31-.5-.76-.74-1.63-.24-.88-.19-1.79.05-.9.39-1.75.34-.84.94-1.53.59-.69 1.37-1.15.78-.47 1.67-.66.88-.19 1.79-.09.9.1 1.72.49.83.38 1.48 1.01.66.63 1.08 1.43.42.81.57 1.71.14.89-.01 1.79t-.58 1.7-1.09 1.42-1.49 1-1.73.47q-.91.09-1.79-.1-.89-.2-1.66-.68-.78-.47-1.37-1.16-.58-.7-.91-1.54-.34-.85-.38-1.76-.05-.9.2-1.78.25-.87.76-1.62t1.24-1.3 1.59-.83q.86-.29 1.77-.28.91 0 1.77.29l.86.3 8.43 4.44q8.43 4.44 19.86 10.45 11.43 6.02 25.31 13.47 13.88 7.44 25.71 14.15 11.82 6.7 19.69 11.69 7.86 4.99 8.51 5.55.64.55 1.13 1.24t.8 1.48.43 1.63q.11.84.02 1.68t-.38 1.63q-.29.8-.77 1.51-.47.7-1.1 1.27-.62.57-1.37.98-.74.4-1.56.61-.83.22-1.67.23t-1.67-.18q-.82-.2-1.58-.58zM336.228 457.17l2.714-7.583q2.717-7.593 6.84-19.387 4.112-11.797 8.271-23.968t6.034-18.648q1.862-6.471 3.052-11.31 1.183-4.85 1.744-5.94t1.438-1.954q.883-.85 1.99-1.387 1.105-.527 2.33-.679 1.216-.154 2.417.096 1.202.25 2.264.865 1.06.624 1.866 1.546.807.921 1.28 2.061.464 1.137.553 2.363.079 1.223-.231 2.416-.308 1.182-.986 2.214-.676 1.022-1.645 1.782-.97.76-2.13 1.163-1.159.404-2.386.43-1.233.013-2.394-.361-1.171-.377-2.156-1.104-.981-.736-1.687-1.74t-1.05-2.188q-.345-1.182-.298-2.406.05-1.234.491-2.374.444-1.15 1.221-2.097.79-.954 1.827-1.597 1.05-.65 2.243-.927 1.202-.275 2.427-.165 1.222.12 2.334.615 1.121.497 2.018 1.333.907.838 1.497 1.91.587 1.082.808 2.288.208 1.212.028 2.425l-.18 1.213-1.869 4.63q-1.856 4.624-4.118 10.966-2.255 6.354-5.976 18.666t-7.263 24.294q-3.532 11.984-5.754 19.736-2.219 7.742-2.627 8.62-.409.876-1.011 1.638-.612.76-1.38 1.352-.77.593-1.664.989-.89.385-1.847.55t-1.925.105q-.965-.069-1.888-.366-.924-.297-1.748-.804-.821-.517-1.502-1.209-.69-.694-1.177-1.534-.498-.833-.777-1.763-.278-.93-.333-1.903-.044-.97.135-1.921zM214.99 552.408l-17.27-.28q-17.27-.28-35.41-.48-18.15-.21-31.5-.36-13.34-.15-23.21-.25-9.86-.11-10.79-.27-.93-.15-1.77-.59-.83-.44-1.48-1.13-.65-.68-1.04-1.54-.4-.85-.5-1.79-.1-.93.1-1.85t.69-1.73q.48-.81 1.2-1.42t1.6-.96 1.82-.4 1.85.2 1.69.78 1.35 1.28.87 1.65q.3.89.3 1.83t-.3 1.83q-.3.9-.87 1.65t-1.35 1.28-1.69.78-1.85.2q-.95-.05-1.82-.4-.88-.35-1.6-.96t-1.2-1.42q-.49-.81-.69-1.73-.21-.92-.1-1.85.1-.94.5-1.79.39-.86 1.04-1.54.65-.69 1.48-1.13.84-.44 1.77-.59l.93-.16 9.86-.11q9.87-.1 23.21-.25 13.35-.15 31.5-.36 18.14-.2 35.41-.48t18.14-.17 1.7.42q.82.31 1.55.81.72.5 1.31 1.16.58.66.99 1.44t.62 1.64q.21.85.21 1.73t-.21 1.73q-.21.86-.62 1.64t-.99 1.44q-.59.66-1.31 1.16-.73.5-1.55.81-.83.31-1.7.42z"></path><path fill="none" stroke-linecap="round" d="M314.891 488.976c8.11 1.72 17.87 7.8 23.77 13.98s9.96 14.89 11.63 23.11 1.26 18.13-1.61 26.22c-2.87 8.08-9.27 16.39-15.62 22.29s-14.28 11.29-22.48 13.12c-8.19 1.84-18.44.66-26.66-2.1-8.22-2.77-16.86-8.18-22.68-14.49-5.82-6.32-10.71-15.1-12.27-23.39-1.56-8.28.26-18.15 2.89-26.31 2.63-8.17 6.81-17.08 12.9-22.68 6.09-5.59 14.3-9.59 23.64-10.9 9.34-1.3 26.08 1.94 32.41 3.07s5.86 3 5.56 3.7m-3.32-3.74c7.27 2.88 14.35 11.68 19.07 19.22 4.72 7.53 8.62 17.26 9.24 26s-1.32 18.91-5.5 26.45c-4.17 7.55-12.38 14.49-19.56 18.83s-15.02 7.08-23.51 7.2-19.87-2.28-27.45-6.47c-7.58-4.2-13.7-11.6-18.03-18.7s-7.45-15.61-7.96-23.91c-.51-8.31.92-18.47 4.88-25.9 3.96-7.44 11.56-14.05 18.88-18.74 7.32-4.68 16.79-9.19 25.05-9.37 8.27-.17 20.17 6.97 24.55 8.32 4.37 1.35 1.89-.88 1.71-.21"></path><path fill="none" stroke-linecap="round" d="M281.084 485.009c7.69-3.29 19.72-2.62 28.57-.89 8.86 1.73 17.97 5.61 24.56 11.28 6.59 5.66 12.2 14.31 14.99 22.71s3.2 18.91 1.75 27.67c-1.46 8.77-4.7 18.26-10.5 24.91s-15.69 11.97-24.31 14.99-18.75 4.69-27.41 3.11c-8.67-1.57-18.01-6.65-24.57-12.57-6.57-5.91-11.96-14.47-14.82-22.93-2.87-8.46-4.16-19.2-2.35-27.84s6.09-16.99 13.21-24c7.12-7 23.73-15.02 29.51-18.04 5.77-3.02 5.16-1.08 5.16-.07m12 .7c8.49.33 20.09 5.14 27.05 10.5s11.51 13.59 14.69 21.66 5.54 17.85 4.4 26.75c-1.14 8.89-5.5 19.49-11.25 26.64s-14.95 12.92-23.25 16.25c-8.31 3.32-17.89 5.19-26.57 3.7-8.68-1.5-18.32-7.26-25.51-12.67-7.18-5.41-14.51-11.76-17.6-19.82-3.08-8.05-2.44-19.65-.9-28.51 1.53-8.87 4.58-17.87 10.1-24.67 5.51-6.79 14.51-12.75 22.99-16.11s23.52-3.41 27.89-4.06c4.37-.66-1.44-.94-1.66.12"></path><path fill="none" stroke-linecap="round" d="M293.412 481.669c8.82-1.64 20.08.35 28.59 4.04 8.5 3.68 16.74 10.82 22.42 18.06 5.67 7.25 10.5 16.39 11.63 25.38 1.13 9-1.12 19.84-4.85 28.59-3.73 8.74-9.88 18.2-17.51 23.89-7.63 5.68-18.81 9.21-28.27 10.21-9.47.99-19.98-.56-28.51-4.24s-17.33-10.26-22.69-17.83c-5.37-7.56-8.52-18.45-9.52-27.57-.99-9.11-.05-18.53 3.56-27.13 3.61-8.59 9.27-18.5 18.11-24.43s27.94-9.64 34.92-11.16c6.97-1.52 6.96.8 6.94 2.06m-6.7-.61c8.81-1.03 18.84 1.2 26.61 6 7.77 4.79 15.59 14.57 20.02 22.78s6.8 17.28 6.58 26.46c-.23 9.18-3.16 20.49-7.95 28.62-4.78 8.14-12.51 15.36-20.75 20.18s-19.3 9.01-28.68 8.77c-9.37-.25-19.58-5.17-27.55-10.24-7.96-5.06-15.84-12.19-20.23-20.18-4.4-7.99-6.6-18.23-6.12-27.75.47-9.52 3.94-21.27 8.95-29.35s12.92-15.03 21.12-19.13c8.2-4.11 23.29-4.43 28.07-5.49 4.77-1.06.85-1.5.58-.87"></path><path fill="none" stroke-linecap="round" d="M297.148 476.2c8.69-.91 20.49 2.67 28.98 6.93 8.48 4.25 16.54 11.09 21.92 18.61 5.39 7.52 8.89 17.58 10.41 26.51 1.52 8.94 1.53 18.58-1.31 27.1-2.84 8.53-8.8 17.47-15.72 24.05-6.92 6.57-16.71 12.78-25.8 15.4-9.08 2.62-19.72 2.35-28.71.31-8.99-2.03-18.19-6.34-25.24-12.5-7.05-6.15-13.29-15.9-17.05-24.41s-6.22-17.58-5.49-26.64c.72-9.06 4.73-19.96 9.83-27.74 5.11-7.78 11.68-14.29 20.79-18.95 9.11-4.65 27.31-7.9 33.87-8.96 6.56-1.05 5.45 1.67 5.48 2.65m-28.29 1.01c8.29-3.45 19.4-4.63 28.46-2.95 9.06 1.69 18.56 7.44 25.91 13.05 7.35 5.62 14.05 12.18 18.2 20.64 4.15 8.45 6.92 20.59 6.72 30.09-.2 9.49-2.92 19.33-7.91 26.88s-14.17 13.43-22.02 18.44c-7.86 5.01-16.11 10.87-25.12 11.6-9.01.74-20.05-3.14-28.95-7.19-8.91-4.05-18.67-10.09-24.48-17.09-5.8-7.01-8.59-16.04-10.34-24.97s-2.73-19.72-.16-28.63c2.58-8.9 9.04-17.87 15.62-24.77 6.57-6.9 19.58-14.38 23.82-16.63 4.23-2.26 1.02 1.96 1.58 3.11"></path></symbol><symbol id="icon-mail" viewBox="0 0 24 24"><path d="M4 4h16c1.1 0 2 .9 2 2v12c0 1.1-.9 2-2 2H4c-1.1 0-2-.9-2-2V6c0-1.1.9-2 2-2"></path><path d="m22 6-10 7L2 6"></path></symbol><symbol id="icon-map" viewBox="0 0 24 24"><path d="M1 6v16l7-4 8 4 7-4V2l-7 4-8-4zM8 2v16M16 6v16"></path></symbol><symbol id="icon-menu" viewBox="0 0 24 24"><path d="M3 12h18M3 6h18M3 18h18"></path></symbol><symbol id="icon-plug" viewBox="0 0 24 24"><path d="M9 2v6M15 2v6M12 17v5M5 8h14M6 11V8h12v3a6 6 0 1 1-12 0"></path></symbol><symbol id="icon-x" viewBox="0 0 24 24"><path d="M18 6 6 18M6 6l12 12"></path></symbol><symbol id="icon-zap" viewBox="0 0 24 24"><path d="M4 14a1 1 0 0 1-.78-1.63l9.9-10.2a.5.5 0 0 1 .86.46l-1.92 6.02A1 1 0 0 0 13 10h7a1 1 0 0 1 .78 1.63l-9.9 10.2a.5.5 0 0 1-.86-.46l1.92-6.02A1 1 0 0 0 11 14z"></path></symbol></svg>