<svg xmlns="http://www.w3.org/2000/svg" direction="ltr" width="203.1682432541147" height="153.20625533162615" viewBox="14787.049403577588 -807.7386475134208 203.1682432541147 153.20625533162615" stroke-linecap="round" stroke-linejoin="round" data-color-mode="light" class="tl-container tl-theme__force-sRGB tl-theme__light" style="background-color: rgb(249, 250, 251);"><defs><mask id="_export_1_rgu_"><rect x="0" y="0" width="8" height="8" fill="white"/><g stroke-linecap="round" stroke="black"><line x1="0.6666666666666666" y1="2" x2="2" y2="0.6666666666666666"/><line x1="3.333333333333333" y1="4.666666666666666" x2="4.666666666666666" y2="3.333333333333333"/><line x1="6" y1="7.333333333333333" x2="7.333333333333333" y2="6"/></g></mask><pattern id="_export_1_rgt__hash_pattern_light_0" width="8" height="8" patternUnits="userSpaceOnUse"><rect x="0" y="0" width="8" height="8" fill="#fcfffe" mask="url(#_export_1_rgu_)"/></pattern></defs><g transform="matrix(1, 0, 0, 1, 14819.3175, -775.7386)" opacity="1"><path fill="#494949" d="M 0 19.6242 C 0 8.7861 31.0939 0 69.4501 0 C 107.8063 0 138.9001 8.7861 138.9001 19.6242 C 138.9001 30.4624 107.8063 39.2484 69.4501 39.2484 C 31.0939 39.2484 0 30.4624 0 19.6242"/><path fill="url(#_export_1_rgt__hash_pattern_light_0)" d="M 0 19.6242 C 0 8.7861 31.0939 0 69.4501 0 C 107.8063 0 138.9001 8.7861 138.9001 19.6242 C 138.9001 30.4624 107.8063 39.2484 69.4501 39.2484 C 31.0939 39.2484 0 30.4624 0 19.6242"/><path stroke-width="3.5" d="M -0.2835 19.1448 C -0.8446 8.0299 30.2493 -0.7562 68.6055 -0.7562 C 108.7315 -1.133 139.8254 7.6531 139.8254 18.4913 C 137.8906 31.5651 106.7967 40.3511 68.4405 40.3511 C 30.8103 38.769 -0.2835 29.9829 -0.2835 19.1448 M -0.7365 19.5117 C -0.7137 7.696 30.3801 -1.0901 68.7363 -1.0901 C 106.9408 1.0127 138.0347 9.7987 138.0347 20.6369 C 139.6542 30.3086 108.5603 39.0947 70.2041 39.0947 C 30.3573 39.1359 -0.7365 30.3498 -0.7365 19.5117" fill="none" stroke="#1d1d1d"/></g><g transform="matrix(1, 0, 0, 1, 14819.3175, -725.7808)" opacity="1"><path stroke-width="3.5" d="M 0.0058 20.4639 C 1.1657 8.2714 32.2596 -0.5147 70.6158 -0.5147 C 107.4429 -1.1304 138.5368 7.6557 138.5368 18.4938 C 138.4432 31.182 107.3493 39.9681 68.9931 39.9681 C 31.0997 40.0881 0.0058 31.3021 0.0058 20.4639 M 0.7243 20.5438 C 0.9935 8.5208 32.0874 -0.2652 70.4436 -0.2652 C 108.0676 1.0147 139.1614 9.8007 139.1614 20.6389 C 139.031 30.1085 107.9371 38.8946 69.5809 38.8946 C 31.8181 40.168 0.7243 31.3819 0.7243 20.5438" fill="none" stroke="#1d1d1d"/></g><g transform="matrix(1, 0, 0, 1, 14819.0494, -754.6274)" opacity="1"><g transform="scale(1)"><path d="M2.8464,0 T2.702,3.8965 2.4476,11.7048 2.2555,19.026 2.1125,25.4209 2.007,30.7215 2.0211,34.7085 2.2329,38.2486 2.542,41.5356 2.851,43.8937 3.0038,44.8328 A2.8521,2.8521 0 0 1 -2.6838,45.2672 T-2.691,44.1116 -2.542,41.5362 -2.2329,38.2486 -2.0211,34.7085 -2.007,30.7215 -2.1125,25.4209 -2.2555,19.026 -2.4476,11.7048 -2.702,3.8965 -2.8464,0 A2.8464,2.8464 0 0 1 2.8464,0 Z" stroke-linecap="round" fill="#1d1d1d"/></g></g><g transform="matrix(1, 0, 0, 1, 14958.1844, -754.7002)" opacity="1"><g transform="scale(1)"><path d="M2.6526,0 T2.6312,1.7282 2.4934,5.7897 2.2898,10.6075 2.1379,15.6953 2.0257,20.7408 1.9824,25.2298 2.0273,29.0785 2.1295,32.4125 2.326,36.217 2.5923,40.0187 2.857,43.6134 3.0376,47.4695 3.0931,50.365 3.1012,51.47 A3.1012,3.1012 0 0 1 -3.1012,51.47 T-3.0931,50.365 -3.0376,47.4695 -2.857,43.6134 -2.5923,40.0187 -2.326,36.217 -2.1295,32.4125 -2.0273,29.0785 -1.9824,25.2298 -2.0257,20.7408 -2.1379,15.6953 -2.2898,10.6075 -2.4934,5.7897 -2.6312,1.7282 -2.6526,0 A2.6526,2.6526 0 0 1 2.6526,0 Z" stroke-linecap="round" fill="#1d1d1d"/></g></g></svg>